Moderustic-Bold.ufo
<glyph name="quotedbl" format="2">
  <advance width="409"/>
  <unicode hex="0022"/>
  <outline>
    <contour>
      <point x="246" y="546" type="line"/>
      <point x="364" y="546" type="line"/>
      <point x="379" y="803" type="line"/>
      <point x="231" y="803" type="line"/>
    </contour>
    <contour>
      <point x="45" y="546" type="line"/>
      <point x="163" y="546" type="line"/>
      <point x="178" y="803" type="line"/>
      <point x="30" y="803" type="line"/>
    </contour>
  </outline>
</glyph>
<glyph name="numbersign" format="2">
  <advance width="830"/>
  <unicode hex="0023"/>
  <outline>
    <contour>
      <point x="95" y="0" type="line"/>
      <point x="263" y="0" type="line"/>
      <point x="304" y="200" type="line"/>
      <point x="460" y="200" type="line"/>
      <point x="419" y="0" type="line"/>
      <point x="587" y="0" type="line"/>
      <point x="628" y="200" type="line"/>
      <point x="755" y="200" type="line"/>
      <point x="755" y="280" type="line"/>
      <point x="644" y="280" type="line"/>
      <point x="673" y="420" type="line"/>
      <point x="802" y="420" type="line"/>
      <point x="802" y="500" type="line"/>
      <point x="689" y="500" type="line"/>
      <point x="730" y="700" type="line"/>
      <point x="562" y="700" type="line"/>
      <point x="521" y="500" type="line"/>
      <point x="365" y="500" type="line"/>
      <point x="406" y="700" type="line"/>
      <point x="238" y="700" type="line"/>
      <point x="198" y="500" type="line"/>
      <point x="74" y="500" type="line"/>
      <point x="74" y="420" type="line"/>
      <point x="181" y="420" type="line"/>
      <point x="152" y="280" type="line"/>
      <point x="28" y="280" type="line"/>
      <point x="28" y="200" type="line"/>
      <point x="136" y="200" type="line"/>
    </contour>
    <contour>
      <point x="320" y="280" type="line"/>
      <point x="349" y="420" type="line"/>
      <point x="505" y="420" type="line"/>
      <point x="476" y="280" type="line"/>
    </contour>
  </outline>
</glyph>
<glyph name="dollar" format="2">
  <advance width="600"/>
  <unicode hex="0024"/>
  <outline>
    <contour>
      <point x="310" y="3.242" type="curve" smooth="yes"/>
      <point x="473" y="3.242"/>
      <point x="561" y="79.212"/>
      <point x="561" y="206.766" type="curve" smooth="yes"/>
      <point x="561" y="301.494"/>
      <point x="497.807" y="363.322"/>
      <point x="336.373" y="396.222" type="curve" smooth="yes"/>
      <point x="240.087" y="415.845"/>
      <point x="203" y="436.552"/>
      <point x="203" y="491.888" type="curve" smooth="yes"/>
      <point x="203" y="540.659"/>
      <point x="232.112" y="574.423"/>
      <point x="294.353" y="574.423" type="curve" smooth="yes"/>
      <point x="354.585" y="574.423"/>
      <point x="415.822" y="543.472"/>
      <point x="462" y="491.888" type="curve"/>
      <point x="557" y="580.988" type="line"/>
      <point x="497" y="648.517"/>
      <point x="407" y="697.288"/>
      <point x="287" y="697.288" type="curve" smooth="yes"/>
      <point x="133" y="697.288"/>
      <point x="38" y="617.567"/>
      <point x="38" y="489.074" type="curve" smooth="yes"/>
      <point x="38" y="384.029"/>
      <point x="109.23" y="317.569"/>
      <point x="280.678" y="281.798" type="curve" smooth="yes"/>
      <point x="369.958" y="263.171"/>
      <point x="396" y="245.22"/>
      <point x="396" y="201.139" type="curve" smooth="yes"/>
      <point x="396" y="151.43"/>
      <point x="362.878" y="126.107"/>
      <point x="300.648" y="126.107" type="curve" smooth="yes"/>
      <point x="232.396" y="126.107"/>
      <point x="171.17" y="157.058"/>
      <point x="125" y="208.642" type="curve"/>
      <point x="30" y="119.542" type="line"/>
      <point x="90" y="52.013"/>
      <point x="180" y="3.242"/>
    </contour>
    <contour>
      <point x="288" y="-101" type="line"/>
      <point x="326" y="-101" type="line"/>
      <point x="326" y="780" type="line"/>
      <point x="288" y="780" type="line"/>
    </contour>
  </outline>
</glyph>
<glyph name="quotesingle" format="2">
  <advance width="204"/>
  <unicode hex="0027"/>
  <outline>
    <contour>
      <point x="43" y="546" type="line"/>
      <point x="161" y="546" type="line"/>
      <point x="176" y="803" type="line"/>
      <point x="28" y="803" type="line"/>
    </contour>
  </outline>
</glyph>
<glyph name="parenleft" format="2">
  <advance width="391"/>
  <unicode hex="0028"/>
  <outline>
    <contour>
      <point x="365" y="-215" type="curve"/>
      <point x="365" y="-135" type="line"/>
      <point x="278" y="-103"/>
      <point x="214" y="78"/>
      <point x="214" y="291" type="curve" smooth="yes"/>
      <point x="214" y="489"/>
      <point x="273" y="648"/>
      <point x="365" y="697" type="curve"/>
      <point x="365" y="777" type="line"/>
      <point x="170" y="741"/>
      <point x="50" y="564"/>
      <point x="50" y="310" type="curve" smooth="yes"/>
      <point x="50" y="26"/>
      <point x="182" y="-194"/>
    </contour>
  </outline>
</glyph>
<glyph name="parenright" format="2">
  <advance width="384"/>
  <unicode hex="0029"/>
  <outline>
    <contour>
      <point x="25" y="-147" type="curve"/>
      <point x="25" y="-215" type="line"/>
      <point x="220" y="-177"/>
      <point x="341" y="17"/>
      <point x="341" y="291" type="curve" smooth="yes"/>
      <point x="341" y="560"/>
      <point x="224" y="740"/>
      <point x="25" y="777" type="curve"/>
      <point x="25" y="709" type="line"/>
      <point x="114" y="656"/>
      <point x="176" y="506"/>
      <point x="176" y="289" type="curve" smooth="yes"/>
      <point x="176" y="70"/>
      <point x="113" y="-112"/>
    </contour>
  </outline>
</glyph>
<glyph name="comma" format="2">
  <advance width="262"/>
  <unicode hex="002C"/>
  <outline>
    <contour>
      <point x="45" y="-137" type="curve"/>
      <point x="55" y="-178" type="line"/>
      <point x="166" y="-111"/>
      <point x="221" y="-35"/>
      <point x="221" y="50" type="curve" smooth="yes"/>
      <point x="221" y="121"/>
      <point x="182" y="160"/>
      <point x="131" y="160" type="curve" smooth="yes"/>
      <point x="79" y="160"/>
      <point x="41" y="121"/>
      <point x="41" y="72" type="curve" smooth="yes"/>
      <point x="41" y="21"/>
      <point x="79" y="-20"/>
      <point x="135" y="-20" type="curve"/>
      <point x="128" y="-52"/>
      <point x="86" y="-106"/>
    </contour>
  </outline>
</glyph>
<glyph name="period" format="2">
  <advance width="262"/>
  <unicode hex="002E"/>
  <outline>
    <contour>
      <point x="131" y="-20" type="curve" smooth="yes"/>
      <point x="182" y="-20"/>
      <point x="221" y="21"/>
      <point x="221" y="71" type="curve" smooth="yes"/>
      <point x="221" y="121"/>
      <point x="182" y="160"/>
      <point x="131" y="160" type="curve" smooth="yes"/>
      <point x="79" y="160"/>
      <point x="41" y="121"/>
      <point x="41" y="71" type="curve" smooth="yes"/>
      <point x="41" y="21"/>
      <point x="79" y="-20"/>
    </contour>
  </outline>
</glyph>
<glyph name="three" format="2">
  <advance width="578"/>
  <unicode hex="0033"/>
  <outline>
    <contour>
      <point x="290" y="-19" type="curve" smooth="yes"/>
      <point x="473" y="-19"/>
      <point x="542" y="69"/>
      <point x="542" y="182" type="curve" smooth="yes"/>
      <point x="542" y="325"/>
      <point x="430" y="388"/>
      <point x="192" y="368" type="curve"/>
      <point x="192" y="288" type="line"/>
      <point x="321" y="288"/>
      <point x="377" y="263"/>
      <point x="377" y="195" type="curve" smooth="yes"/>
      <point x="377" y="139"/>
      <point x="338" y="111"/>
      <point x="274" y="111" type="curve" smooth="yes"/>
      <point x="217" y="111"/>
      <point x="173" y="133"/>
      <point x="122" y="182" type="curve"/>
      <point x="24" y="84" type="line"/>
      <point x="87" y="17"/>
      <point x="173" y="-19"/>
    </contour>
    <contour>
      <point x="192" y="439" type="curve"/>
      <point x="192" y="361" type="line"/>
      <point x="439" y="351"/>
      <point x="520" y="430"/>
      <point x="520" y="533" type="curve" smooth="yes"/>
      <point x="520" y="629"/>
      <point x="449" y="720"/>
      <point x="286" y="720" type="curve" smooth="yes"/>
      <point x="155" y="720"/>
      <point x="80" y="665"/>
      <point x="42" y="628" type="curve"/>
      <point x="140" y="530" type="line"/>
      <point x="193" y="568"/>
      <point x="225" y="589"/>
      <point x="280" y="589" type="curve" smooth="yes"/>
      <point x="330" y="589"/>
      <point x="355" y="568"/>
      <point x="355" y="524" type="curve" smooth="yes"/>
      <point x="355" y="480"/>
      <point x="328" y="439"/>
    </contour>
  </outline>
</glyph>
<glyph name="four" format="2">
  <advance width="665"/>
  <unicode hex="0034"/>
  <outline>
    <contour>
      <point x="358" y="0" type="line"/>
      <point x="524" y="0" type="line"/>
      <point x="524" y="151" type="line"/>
      <point x="650" y="151" type="line"/>
      <point x="650" y="281" type="line"/>
      <point x="524" y="281" type="line"/>
      <point x="524" y="700" type="line"/>
      <point x="317" y="700" type="line"/>
      <point x="8" y="237" type="line"/>
      <point x="8" y="151" type="line"/>
      <point x="358" y="151" type="line"/>
    </contour>
    <contour>
      <point x="196" y="281" type="line"/>
      <point x="358" y="521" type="line"/>
      <point x="358" y="281" type="line"/>
    </contour>
  </outline>
</glyph>
<glyph name="five" format="2">
  <advance width="605"/>
  <unicode hex="0035"/>
  <outline>
    <contour>
      <point x="280.763" y="-20" type="curve" smooth="yes"/>
      <point x="454.603" y="-20"/>
      <point x="566.5" y="75"/>
      <point x="566.5" y="232" type="curve" smooth="yes"/>
      <point x="566.5" y="370"/>
      <point x="480.625" y="453"/>
      <point x="334.836" y="453" type="curve" smooth="yes"/>
      <point x="298.888" y="453"/>
      <point x="260.943" y="448"/>
      <point x="222" y="427" type="curve"/>
      <point x="243" y="570" type="line"/>
      <point x="535" y="570" type="line"/>
      <point x="535" y="700" type="line"/>
      <point x="113" y="700" type="line"/>
      <point x="47" y="253" type="line"/>
      <point x="150.145" y="307"/>
      <point x="223.249" y="333"/>
      <point x="289.342" y="333" type="curve" smooth="yes"/>
      <point x="365.449" y="333"/>
      <point x="401.5" y="299"/>
      <point x="401.5" y="231" type="curve" smooth="yes"/>
      <point x="401.5" y="151"/>
      <point x="351.411" y="110"/>
      <point x="272.271" y="110" type="curve" smooth="yes"/>
      <point x="205.152" y="110"/>
      <point x="167.085" y="140"/>
      <point x="119" y="197" type="curve"/>
      <point x="24" y="102" type="line"/>
      <point x="96.933" y="21"/>
      <point x="166.868" y="-20"/>
    </contour>
  </outline>
</glyph>
<glyph name="question" format="2">
  <advance width="551"/>
  <unicode hex="003F"/>
  <outline>
    <contour>
      <point x="158" y="365" type="curve"/>
      <point x="158" y="250" type="line"/>
      <point x="324" y="250" type="line"/>
      <point x="324" y="332" type="line"/>
      <point x="448" y="388"/>
      <point x="521" y="475"/>
      <point x="521" y="575" type="curve" smooth="yes"/>
      <point x="521" y="690"/>
      <point x="426" y="767"/>
      <point x="278" y="767" type="curve" smooth="yes"/>
      <point x="169" y="767"/>
      <point x="80" y="725"/>
      <point x="15" y="646" type="curve"/>
      <point x="110" y="551" type="line"/>
      <point x="159" y="609"/>
      <point x="207" y="637"/>
      <point x="264" y="637" type="curve" smooth="yes"/>
      <point x="318" y="637"/>
      <point x="355" y="612"/>
      <point x="355" y="556" type="curve" smooth="yes"/>
      <point x="355" y="486"/>
      <point x="299" y="434"/>
    </contour>
    <contour>
      <point x="242" y="-20" type="curve" smooth="yes"/>
      <point x="288.809" y="-20"/>
      <point x="324.605" y="17.631"/>
      <point x="324.605" y="63.523" type="curve" smooth="yes"/>
      <point x="324.605" y="109.414"/>
      <point x="288.809" y="145.209"/>
      <point x="242" y="145.209" type="curve" smooth="yes"/>
      <point x="194.273" y="145.209"/>
      <point x="159.395" y="109.414"/>
      <point x="159.395" y="63.523" type="curve" smooth="yes"/>
      <point x="159.395" y="17.631"/>
      <point x="194.273" y="-20"/>
    </contour>
  </outline>
</glyph>
<glyph name="A" format="2">
  <advance width="655"/>
  <unicode hex="0041"/>
  <anchor x="328" y="-20" name="bottom"/>
  <anchor x="640" y="-2" name="ogonek"/>
  <anchor x="328" y="719" name="top"/>
  <anchor x="76" y="500" name="topgr"/>
  <outline>
    <contour>
      <point x="474" y="0" type="line"/>
      <point x="648" y="0" type="line"/>
      <point x="421" y="700" type="line"/>
      <point x="283" y="700" type="line"/>
    </contour>
    <contour>
      <point x="193" y="114" type="line"/>
      <point x="459" y="114" type="line"/>
      <point x="415" y="234" type="line"/>
      <point x="237" y="234" type="line"/>
    </contour>
    <contour>
      <point x="7" y="0" type="line"/>
      <point x="181" y="0" type="line"/>
      <point x="372" y="700" type="line"/>
      <point x="234" y="700" type="line"/>
    </contour>
  </outline>
</glyph>
<glyph name="B" format="2">
  <advance width="634"/>
  <unicode hex="0042"/>
  <anchor x="328" y="-20" name="bottom"/>
  <anchor x="308" y="719" name="top"/>
  <outline>
    <contour>
      <point x="68" y="0" type="line"/>
      <point x="356" y="0" type="line" smooth="yes"/>
      <point x="518" y="0"/>
      <point x="604" y="98"/>
      <point x="604" y="206" type="curve" smooth="yes"/>
      <point x="604" y="329"/>
      <point x="494" y="372"/>
      <point x="365" y="372" type="curve"/>
      <point x="493" y="372"/>
      <point x="558" y="426"/>
      <point x="558" y="518" type="curve" smooth="yes"/>
      <point x="558" y="614"/>
      <point x="487" y="700"/>
      <point x="316" y="700" type="curve" smooth="yes"/>
      <point x="68" y="700" type="line"/>
    </contour>
    <contour>
      <point x="325" y="130" type="curve" smooth="yes"/>
      <point x="234" y="130" type="line"/>
      <point x="234" y="570" type="line"/>
      <point x="288" y="570" type="line" smooth="yes"/>
      <point x="367" y="570"/>
      <point x="391" y="542"/>
      <point x="391" y="505" type="curve" smooth="yes"/>
      <point x="391" y="464"/>
      <point x="362" y="431"/>
      <point x="306" y="431" type="curve" smooth="yes"/>
      <point x="100" y="431" type="line"/>
      <point x="100" y="305" type="line"/>
      <point x="310" y="305" type="line" smooth="yes"/>
      <point x="397" y="305"/>
      <point x="437" y="282"/>
      <point x="437" y="219" type="curve" smooth="yes"/>
      <point x="437" y="159"/>
      <point x="401" y="130"/>
    </contour>
  </outline>
</glyph>
<glyph name="C" format="2">
  <advance width="684"/>
  <unicode hex="0043"/>
  <anchor x="416" y="-20" name="bottom"/>
  <anchor x="386" y="719" name="top"/>
  <outline>
    <contour>
      <point x="393.886" y="-20" type="curve" smooth="yes"/>
      <point x="514.839" y="-20"/>
      <point x="590.436" y="28"/>
      <point x="662" y="107" type="curve"/>
      <point x="567" y="202" type="line"/>
      <point x="517.601" y="144"/>
      <point x="454.087" y="110"/>
      <point x="387.549" y="110" type="curve" smooth="yes"/>
      <point x="273.628" y="110"/>
      <point x="196" y="209"/>
      <point x="196" y="358" type="curve" smooth="yes"/>
      <point x="196" y="499"/>
      <point x="265.567" y="589"/>
      <point x="381.512" y="589" type="curve" smooth="yes"/>
      <point x="449.063" y="589"/>
      <point x="514.597" y="559"/>
      <point x="564" y="501" type="curve"/>
      <point x="659" y="596" type="line"/>
      <point x="597.513" y="670"/>
      <point x="503.77" y="720"/>
      <point x="378.78" y="720" type="curve" smooth="yes"/>
      <point x="164.078" y="720"/>
      <point x="28" y="573"/>
      <point x="28" y="360" type="curve" smooth="yes"/>
      <point x="28" y="139"/>
      <point x="174.153" y="-20"/>
    </contour>
  </outline>
</glyph>
<glyph name="D" format="2">
  <advance width="722"/>
  <unicode hex="0044"/>
  <anchor x="318" y="-20" name="bottom"/>
  <anchor x="318" y="719" name="top"/>
  <outline>
    <contour>
      <point x="58" y="0" type="line"/>
      <point x="340" y="0" type="line" smooth="yes"/>
      <point x="551" y="0"/>
      <point x="694" y="141"/>
      <point x="694" y="350" type="curve" smooth="yes"/>
      <point x="694" y="558"/>
      <point x="550" y="700"/>
      <point x="340" y="700" type="curve" smooth="yes"/>
      <point x="58" y="700" type="line"/>
    </contour>
    <contour>
      <point x="319" y="130" type="curve" smooth="yes"/>
      <point x="223" y="130" type="line"/>
      <point x="223" y="570" type="line"/>
      <point x="319" y="570" type="line" smooth="yes"/>
      <point x="447" y="570"/>
      <point x="526" y="481"/>
      <point x="526" y="352" type="curve" smooth="yes"/>
      <point x="526" y="218"/>
      <point x="441" y="130"/>
    </contour>
  </outline>
</glyph>
<glyph name="F" format="2">
  <advance width="510"/>
  <unicode hex="0046"/>
  <anchor x="271" y="-20" name="bottom"/>
  <anchor x="260" y="719" name="top"/>
  <outline>
    <contour>
      <point x="58" y="0" type="line"/>
      <point x="224" y="0" type="line"/>
      <point x="224" y="280" type="line"/>
      <point x="454" y="280" type="line"/>
      <point x="454" y="410" type="line"/>
      <point x="224" y="410" type="line"/>
      <point x="224" y="570" type="line"/>
      <point x="485" y="570" type="line"/>
      <point x="485" y="700" type="line"/>
      <point x="58" y="700" type="line"/>
    </contour>
  </outline>
</glyph>
<glyph name="G" format="2">
  <advance width="776"/>
  <unicode hex="0047"/>
  <anchor x="383" y="-20" name="bottom"/>
  <anchor x="383" y="719" name="top"/>
  <outline>
    <contour>
      <point x="341" y="-20" type="curve" smooth="yes"/>
      <point x="505" y="-20"/>
      <point x="625" y="90"/>
      <point x="629" y="220" type="curve"/>
      <point x="591" y="312" type="line"/>
      <point x="591" y="178"/>
      <point x="496.24" y="111"/>
      <point x="387.515" y="111" type="curve" smooth="yes"/>
      <point x="273.803" y="111"/>
      <point x="196" y="184"/>
      <point x="196" y="354" type="curve" smooth="yes"/>
      <point x="196" y="524"/>
      <point x="273.796" y="589"/>
      <point x="387.499" y="589" type="curve" smooth="yes"/>
      <point x="464.298" y="589"/>
      <point x="529.128" y="559"/>
      <point x="578" y="501" type="curve"/>
      <point x="673" y="596" type="line"/>
      <point x="612" y="670"/>
      <point x="508" y="720"/>
      <point x="374" y="720" type="curve" smooth="yes"/>
      <point x="164" y="720"/>
      <point x="28" y="597"/>
      <point x="28" y="348" type="curve" smooth="yes"/>
      <point x="28" y="105"/>
      <point x="167" y="-20"/>
    </contour>
    <contour>
      <point x="592" y="0" type="line"/>
      <point x="723" y="0" type="line"/>
      <point x="723" y="387" type="line"/>
      <point x="336" y="387" type="line"/>
      <point x="336" y="256" type="line"/>
      <point x="592" y="256" type="line"/>
    </contour>
  </outline>
</glyph>
<glyph name="H" format="2">
  <advance width="716"/>
  <unicode hex="0048"/>
  <anchor x="358" y="-20" name="bottom"/>
  <anchor x="358" y="719" name="top"/>
  <anchor x="-60" y="500" name="topgr"/>
  <outline>
    <contour>
      <point x="57" y="0" type="line"/>
      <point x="222" y="0" type="line"/>
      <point x="222" y="305" type="line"/>
      <point x="494" y="305" type="line"/>
      <point x="494" y="0" type="line"/>
      <point x="659" y="0" type="line"/>
      <point x="659" y="700" type="line"/>
      <point x="494" y="700" type="line"/>
      <point x="494" y="435" type="line"/>
      <point x="222" y="435" type="line"/>
      <point x="222" y="700" type="line"/>
      <point x="57" y="700" type="line"/>
    </contour>
  </outline>
</glyph>
<glyph name="I" format="2">
  <advance width="326"/>
  <unicode hex="0049"/>
  <anchor x="163" y="-20" name="bottom"/>
  <anchor x="239" y="-3" name="ogonek"/>
  <anchor x="163" y="719" name="top"/>
  <anchor x="-33" y="500" name="topgr"/>
  <outline>
    <contour>
      <point x="80" y="0" type="line"/>
      <point x="246" y="0" type="line"/>
      <point x="246" y="700" type="line"/>
      <point x="80" y="700" type="line"/>
    </contour>
  </outline>
</glyph>
<glyph name="J" format="2">
  <advance width="540"/>
  <unicode hex="004A"/>
  <anchor x="248" y="-20" name="bottom"/>
  <anchor x="403" y="719" name="top"/>
  <outline>
    <contour>
      <point x="248" y="-20" type="curve" smooth="yes"/>
      <point x="394" y="-20"/>
      <point x="487" y="67"/>
      <point x="487" y="222" type="curve" smooth="yes"/>
      <point x="487" y="700" type="line"/>
      <point x="321" y="700" type="line"/>
      <point x="321" y="240" type="line" smooth="yes"/>
      <point x="321" y="148"/>
      <point x="297" y="110"/>
      <point x="239" y="110" type="curve" smooth="yes"/>
      <point x="187" y="110"/>
      <point x="151" y="140"/>
      <point x="95" y="217" type="curve"/>
      <point x="0" y="122" type="line"/>
      <point x="59" y="30"/>
      <point x="138" y="-20"/>
    </contour>
  </outline>
</glyph>
<glyph name="K" format="2">
  <advance width="670"/>
  <unicode hex="004B"/>
  <anchor x="335" y="-20" name="bottom"/>
  <anchor x="335" y="719" name="top"/>
  <outline>
    <contour>
      <point x="466" y="0" type="line"/>
      <point x="658" y="0" type="line"/>
      <point x="446" y="367" type="line"/>
      <point x="654" y="700" type="line"/>
      <point x="480" y="700" type="line"/>
      <point x="319" y="421" type="line"/>
      <point x="116" y="421" type="line"/>
      <point x="105" y="287" type="line"/>
      <point x="307" y="287" type="line"/>
    </contour>
    <contour>
      <point x="57" y="0" type="line"/>
      <point x="223" y="0" type="line"/>
      <point x="223" y="700" type="line"/>
      <point x="57" y="700" type="line"/>
    </contour>
  </outline>
</glyph>
<glyph name="N" format="2">
  <advance width="732"/>
  <unicode hex="004E"/>
  <anchor x="366" y="-20" name="bottom"/>
  <anchor x="366" y="719" name="top"/>
  <outline>
    <contour>
      <point x="57" y="0" type="line"/>
      <point x="223" y="0" type="line"/>
      <point x="223" y="439" type="line"/>
      <point x="519" y="0" type="line"/>
      <point x="675" y="0" type="line"/>
      <point x="675" y="700" type="line"/>
      <point x="509" y="700" type="line"/>
      <point x="509" y="261" type="line"/>
      <point x="213" y="700" type="line"/>
      <point x="57" y="700" type="line"/>
    </contour>
  </outline>
</glyph>
<glyph name="P" format="2">
  <advance width="628"/>
  <unicode hex="0050"/>
  <anchor x="322" y="-20" name="bottom"/>
  <anchor x="322" y="719" name="top"/>
  <outline>
    <contour>
      <point x="68" y="0" type="line"/>
      <point x="234" y="0" type="line"/>
      <point x="234" y="216" type="line"/>
      <point x="334" y="216" type="line" smooth="yes"/>
      <point x="524" y="216"/>
      <point x="605" y="334"/>
      <point x="605" y="460" type="curve" smooth="yes"/>
      <point x="605" y="585"/>
      <point x="524" y="700"/>
      <point x="334" y="700" type="curve" smooth="yes"/>
      <point x="68" y="700" type="line"/>
    </contour>
    <contour>
      <point x="299" y="347" type="curve" smooth="yes"/>
      <point x="234" y="347" type="line"/>
      <point x="234" y="570" type="line"/>
      <point x="299" y="570" type="line" smooth="yes"/>
      <point x="381" y="570"/>
      <point x="438" y="537"/>
      <point x="438" y="458" type="curve" smooth="yes"/>
      <point x="438" y="380"/>
      <point x="382" y="347"/>
    </contour>
  </outline>
</glyph>
<glyph name="Q" format="2">
  <advance width="775"/>
  <unicode hex="0051"/>
  <anchor x="388" y="-20" name="bottom"/>
  <anchor x="512" y="-1" name="ogonek"/>
  <anchor x="388" y="719" name="top"/>
  <outline>
    <contour>
      <point x="387" y="-20" type="curve" smooth="yes"/>
      <point x="611" y="-20"/>
      <point x="747" y="144"/>
      <point x="747" y="350" type="curve" smooth="yes"/>
      <point x="747" y="557"/>
      <point x="606" y="720"/>
      <point x="388" y="720" type="curve" smooth="yes"/>
      <point x="170" y="720"/>
      <point x="28" y="560"/>
      <point x="28" y="350" type="curve" smooth="yes"/>
      <point x="28" y="142"/>
      <point x="168" y="-20"/>
    </contour>
    <contour>
      <point x="634" y="-221" type="curve"/>
      <point x="634" y="-91" type="line"/>
      <point x="493" y="-91"/>
      <point x="483" y="-84"/>
      <point x="483" y="-3" type="curve"/>
      <point x="330" y="-3" type="line"/>
      <point x="330" y="-197"/>
      <point x="393" y="-221"/>
    </contour>
    <contour>
      <point x="388.992" y="111" type="curve" smooth="yes"/>
      <point x="271.605" y="111"/>
      <point x="196" y="210"/>
      <point x="196" y="353" type="curve" smooth="yes"/>
      <point x="196" y="498"/>
      <point x="265.636" y="589"/>
      <point x="385.013" y="589" type="curve" smooth="yes"/>
      <point x="505.384" y="589"/>
      <point x="579" y="493"/>
      <point x="579" y="346" type="curve" smooth="yes"/>
      <point x="579" y="204"/>
      <point x="507.374" y="111"/>
    </contour>
  </outline>
</glyph>
<glyph name="R" format="2">
  <advance width="648"/>
  <unicode hex="0052"/>
  <anchor x="324" y="-20" name="bottom"/>
  <anchor x="324" y="719" name="top"/>
  <outline>
    <contour>
      <point x="58" y="0" type="line"/>
      <point x="224" y="0" type="line"/>
      <point x="224" y="570" type="line"/>
      <point x="314" y="570" type="line" smooth="yes"/>
      <point x="410" y="570"/>
      <point x="442" y="537"/>
      <point x="442" y="472" type="curve" smooth="yes"/>
      <point x="442" y="407"/>
      <point x="410" y="374"/>
      <point x="314" y="374" type="curve" smooth="yes"/>
      <point x="100" y="374" type="line"/>
      <point x="100" y="244" type="line"/>
      <point x="348" y="244" type="line" smooth="yes"/>
      <point x="507" y="244"/>
      <point x="609" y="334"/>
      <point x="609" y="476" type="curve" smooth="yes"/>
      <point x="609" y="615"/>
      <point x="511" y="700"/>
      <point x="348" y="700" type="curve" smooth="yes"/>
      <point x="58" y="700" type="line"/>
    </contour>
    <contour>
      <point x="449" y="0" type="line"/>
      <point x="627" y="0" type="line"/>
      <point x="457" y="333" type="line"/>
      <point x="306" y="281" type="line"/>
    </contour>
  </outline>
</glyph>
<glyph name="S" format="2">
  <advance width="600"/>
  <unicode hex="0053"/>
  <anchor x="310" y="-20" name="bottom"/>
  <anchor x="286" y="719" name="top"/>
  <outline>
    <contour>
      <point x="310" y="-20" type="curve" smooth="yes"/>
      <point x="473" y="-20"/>
      <point x="561" y="61"/>
      <point x="561" y="197" type="curve" smooth="yes"/>
      <point x="561" y="298"/>
      <point x="497.807" y="363.922"/>
      <point x="336.373" y="399" type="curve" smooth="yes"/>
      <point x="240.087" y="419.922"/>
      <point x="203" y="442"/>
      <point x="203" y="501" type="curve" smooth="yes"/>
      <point x="203" y="553"/>
      <point x="232.112" y="589"/>
      <point x="294.353" y="589" type="curve" smooth="yes"/>
      <point x="354.585" y="589"/>
      <point x="415.822" y="556"/>
      <point x="462" y="501" type="curve"/>
      <point x="557" y="596" type="line"/>
      <point x="497" y="668"/>
      <point x="407" y="720"/>
      <point x="287" y="720" type="curve" smooth="yes"/>
      <point x="133" y="720"/>
      <point x="38" y="635"/>
      <point x="38" y="498" type="curve" smooth="yes"/>
      <point x="38" y="386"/>
      <point x="109.23" y="315.139"/>
      <point x="280.678" y="277" type="curve" smooth="yes"/>
      <point x="369.958" y="257.139"/>
      <point x="396" y="238"/>
      <point x="396" y="191" type="curve" smooth="yes"/>
      <point x="396" y="138"/>
      <point x="362.878" y="111"/>
      <point x="300.648" y="111" type="curve" smooth="yes"/>
      <point x="232.396" y="111"/>
      <point x="171.17" y="144"/>
      <point x="125" y="199" type="curve"/>
      <point x="30" y="104" type="line"/>
      <point x="90" y="32"/>
      <point x="180" y="-20"/>
    </contour>
  </outline>
</glyph>
<glyph name="T" format="2">
  <advance width="626"/>
  <unicode hex="0054"/>
  <anchor x="313" y="-20" name="bottom"/>
  <anchor x="313" y="719" name="top"/>
  <outline>
    <contour>
      <point x="230" y="0" type="line"/>
      <point x="396" y="0" type="line"/>
      <point x="396" y="570" type="line"/>
      <point x="616" y="570" type="line"/>
      <point x="616" y="700" type="line"/>
      <point x="10" y="700" type="line"/>
      <point x="10" y="570" type="line"/>
      <point x="230" y="570" type="line"/>
    </contour>
  </outline>
</glyph>
<glyph name="U" format="2">
  <advance width="675"/>
  <unicode hex="0055"/>
  <anchor x="338" y="-20" name="bottom"/>
  <anchor x="454" y="-1" name="ogonek"/>
  <anchor x="338" y="719" name="top"/>
  <outline>
    <contour>
      <point x="335.946" y="-20" type="curve" smooth="yes"/>
      <point x="513.108" y="-20"/>
      <point x="625" y="89"/>
      <point x="625" y="262" type="curve" smooth="yes"/>
      <point x="625" y="700" type="line"/>
      <point x="459" y="700" type="line"/>
      <point x="459" y="285" type="line" smooth="yes"/>
      <point x="459" y="168"/>
      <point x="418.682" y="110"/>
      <point x="338.045" y="110" type="curve" smooth="yes"/>
      <point x="256.318" y="110"/>
      <point x="216" y="168"/>
      <point x="216" y="285" type="curve" smooth="yes"/>
      <point x="216" y="700" type="line"/>
      <point x="50" y="700" type="line"/>
      <point x="50" y="262" type="line" smooth="yes"/>
      <point x="50" y="88"/>
      <point x="158.784" y="-20"/>
    </contour>
  </outline>
</glyph>
<glyph name="V" format="2">
  <advance width="655"/>
  <unicode hex="0056"/>
  <anchor x="328" y="-20" name="bottom"/>
  <anchor x="328" y="719" name="top"/>
  <outline>
    <contour>
      <point x="283" y="0" type="line"/>
      <point x="421" y="0" type="line"/>
      <point x="648" y="700" type="line"/>
      <point x="474" y="700" type="line"/>
    </contour>
    <contour>
      <point x="234" y="0" type="line"/>
      <point x="372" y="0" type="line"/>
      <point x="181" y="700" type="line"/>
      <point x="7" y="700" type="line"/>
    </contour>
  </outline>
</glyph>
<glyph name="W" format="2">
  <advance width="960"/>
  <unicode hex="0057"/>
  <anchor x="480" y="-20" name="bottom"/>
  <anchor x="480" y="719" name="top"/>
  <outline>
    <contour>
      <point x="621" y="0" type="line"/>
      <point x="758" y="0" type="line"/>
      <point x="959" y="700" type="line"/>
      <point x="786" y="700" type="line"/>
    </contour>
    <contour>
      <point x="203" y="0" type="line"/>
      <point x="340" y="0" type="line"/>
      <point x="175" y="700" type="line"/>
      <point x="2" y="700" type="line"/>
    </contour>
    <contour>
      <point x="237" y="0" type="line"/>
      <point x="371" y="0" type="line"/>
      <point x="536" y="700" type="line"/>
      <point x="402" y="700" type="line"/>
    </contour>
    <contour>
      <point x="590" y="0" type="line"/>
      <point x="724" y="0" type="line"/>
      <point x="559" y="700" type="line"/>
      <point x="425" y="700" type="line"/>
    </contour>
  </outline>
</glyph>
<glyph name="X" format="2">
  <advance width="648"/>
  <unicode hex="0058"/>
  <anchor x="324" y="-20" name="bottom"/>
  <anchor x="324" y="719" name="top"/>
  <outline>
    <contour>
      <point x="10" y="0" type="line"/>
      <point x="204" y="0" type="line"/>
      <point x="325" y="218" type="line"/>
      <point x="446" y="0" type="line"/>
      <point x="641" y="0" type="line"/>
      <point x="428" y="354" type="line"/>
      <point x="636" y="700" type="line"/>
      <point x="441" y="700" type="line"/>
      <point x="324" y="489" type="line"/>
      <point x="207" y="700" type="line"/>
      <point x="11" y="700" type="line"/>
      <point x="221" y="351" type="line"/>
    </contour>
  </outline>
</glyph>
<glyph name="Y" format="2">
  <advance width="662"/>
  <unicode hex="0059"/>
  <anchor x="331" y="-20" name="bottom"/>
  <anchor x="331" y="719" name="top"/>
  <anchor x="-95" y="500" name="topgr"/>
  <outline>
    <contour>
      <point x="248" y="0" type="line"/>
      <point x="414" y="0" type="line"/>
      <point x="414" y="284" type="line"/>
      <point x="654" y="700" type="line"/>
      <point x="466" y="700" type="line"/>
      <point x="334" y="442" type="line"/>
      <point x="199" y="700" type="line"/>
      <point x="8" y="700" type="line"/>
      <point x="248" y="284" type="line"/>
    </contour>
  </outline>
</glyph>
<glyph name="Z" format="2">
  <advance width="577"/>
  <unicode hex="005A"/>
  <anchor x="290" y="-20" name="bottom"/>
  <anchor x="300" y="719" name="top"/>
  <outline>
    <contour>
      <point x="20" y="0" type="line"/>
      <point x="560" y="0" type="line"/>
      <point x="560" y="130" type="line"/>
      <point x="211" y="130" type="line"/>
      <point x="558" y="580" type="line"/>
      <point x="558" y="700" type="line"/>
      <point x="48" y="700" type="line"/>
      <point x="48" y="570" type="line"/>
      <point x="367" y="570" type="line"/>
      <point x="20" y="120" type="line"/>
    </contour>
  </outline>
</glyph>
<glyph name="bracketright" format="2">
  <advance width="418"/>
  <unicode hex="005D"/>
  <outline>
    <contour>
      <point x="35" y="-217" type="line"/>
      <point x="351" y="-217" type="line"/>
      <point x="351" y="778" type="line"/>
      <point x="35" y="778" type="line"/>
      <point x="35" y="678" type="line"/>
      <point x="199" y="678" type="line"/>
      <point x="199" y="-117" type="line"/>
      <point x="35" y="-117" type="line"/>
    </contour>
  </outline>
</glyph>
<glyph name="asciicircum" format="2">
  <advance width="515"/>
  <unicode hex="005E"/>
  <outline>
    <contour>
      <point x="417" y="519" type="line"/>
      <point x="465" y="519" type="line"/>
      <point x="303" y="779" type="line"/>
      <point x="211" y="779" type="line"/>
      <point x="50" y="520" type="line"/>
      <point x="98" y="520" type="line"/>
      <point x="257" y="739" type="line"/>
    </contour>
  </outline>
</glyph>
<glyph name="a" format="2">
  <advance width="606"/>
  <unicode hex="0061"/>
  <anchor x="294" y="-20" name="bottom"/>
  <anchor x="555" y="-3" name="ogonek"/>
  <anchor x="300" y="520" name="top"/>
  <outline>
    <contour>
      <point x="235" y="-20" type="curve" smooth="yes"/>
      <point x="359" y="-20"/>
      <point x="433" y="90"/>
      <point x="433" y="257" type="curve" smooth="yes"/>
      <point x="433" y="421"/>
      <point x="361" y="520"/>
      <point x="232" y="520" type="curve" smooth="yes"/>
      <point x="97" y="520"/>
      <point x="20" y="411"/>
      <point x="20" y="259" type="curve" smooth="yes"/>
      <point x="20" y="99"/>
      <point x="106" y="-20"/>
    </contour>
    <contour>
      <point x="294.517" y="106" type="curve" smooth="yes"/>
      <point x="231.218" y="106"/>
      <point x="185" y="168"/>
      <point x="185" y="256" type="curve" smooth="yes"/>
      <point x="185" y="341"/>
      <point x="227.199" y="393"/>
      <point x="290.498" y="393" type="curve" smooth="yes"/>
      <point x="355.806" y="393"/>
      <point x="397" y="337"/>
      <point x="397" y="251" type="curve" smooth="yes"/>
      <point x="397" y="166"/>
      <point x="356.81" y="106"/>
    </contour>
    <contour>
      <point x="397" y="0" type="line"/>
      <point x="562" y="0" type="line"/>
      <point x="562" y="500" type="line"/>
      <point x="397" y="500" type="line"/>
    </contour>
  </outline>
</glyph>
<glyph name="c" format="2">
  <advance width="545"/>
  <unicode hex="0063"/>
  <anchor x="304" y="-20" name="bottom"/>
  <anchor x="304" y="520" name="top"/>
  <outline>
    <contour>
      <point x="292" y="-20" type="curve" smooth="yes"/>
      <point x="394" y="-20"/>
      <point x="472" y="12"/>
      <point x="522" y="73" type="curve"/>
      <point x="437" y="158" type="line"/>
      <point x="410" y="123"/>
      <point x="360" y="104"/>
      <point x="309" y="104" type="curve" smooth="yes"/>
      <point x="230" y="104"/>
      <point x="195" y="155"/>
      <point x="195" y="254" type="curve" smooth="yes"/>
      <point x="195" y="349"/>
      <point x="234" y="396"/>
      <point x="308" y="396" type="curve" smooth="yes"/>
      <point x="355" y="396"/>
      <point x="406" y="377"/>
      <point x="433" y="342" type="curve"/>
      <point x="518" y="427" type="line"/>
      <point x="468" y="488"/>
      <point x="393" y="520"/>
      <point x="294" y="520" type="curve" smooth="yes"/>
      <point x="141" y="520"/>
      <point x="30" y="429"/>
      <point x="30" y="255" type="curve" smooth="yes"/>
      <point x="30" y="89"/>
      <point x="131" y="-20"/>
    </contour>
  </outline>
</glyph>
<glyph name="e" format="2">
  <advance width="570"/>
  <unicode hex="0065"/>
  <anchor x="271" y="-20" name="bottom"/>
  <anchor x="397" y="-3" name="ogonek"/>
  <anchor x="271" y="520" name="top"/>
  <outline>
    <contour>
      <point x="304.361" y="-20" type="curve" smooth="yes"/>
      <point x="394.554" y="-20"/>
      <point x="472.982" y="12"/>
      <point x="522" y="73" type="curve"/>
      <point x="437" y="158" type="line"/>
      <point x="409.294" y="123"/>
      <point x="362.09" y="103"/>
      <point x="305.427" y="103" type="curve" smooth="yes"/>
      <point x="230.517" y="103"/>
      <point x="194.565" y="138"/>
      <point x="191" y="212" type="curve"/>
      <point x="553" y="212" type="line"/>
      <point x="573.595" y="407.026"/>
      <point x="466.306" y="520"/>
      <point x="287" y="520" type="curve" smooth="yes"/>
      <point x="133.803" y="520"/>
      <point x="23" y="420"/>
      <point x="23" y="254" type="curve" smooth="yes"/>
      <point x="23" y="85"/>
      <point x="139.662" y="-20"/>
    </contour>
    <contour>
      <point x="388" y="316" type="curve"/>
      <point x="193" y="316" type="line"/>
      <point x="199" y="366.041"/>
      <point x="235.09" y="397"/>
      <point x="290.829" y="397" type="curve" smooth="yes"/>
      <point x="340.513" y="397"/>
      <point x="382.965" y="372.043"/>
    </contour>
  </outline>
</glyph>
<glyph name="f" format="2">
  <advance width="413"/>
  <unicode hex="0066"/>
  <anchor x="173" y="-20" name="bottom"/>
  <anchor x="230" y="750" name="top"/>
  <outline>
    <contour>
      <point x="89" y="0" type="line"/>
      <point x="254" y="0" type="line"/>
      <point x="254" y="380" type="line"/>
      <point x="390" y="380" type="line"/>
      <point x="390" y="500" type="line"/>
      <point x="254" y="500" type="line"/>
      <point x="254" y="547" type="line" smooth="yes"/>
      <point x="254" y="593"/>
      <point x="270" y="627"/>
      <point x="312" y="627" type="curve" smooth="yes"/>
      <point x="324" y="627"/>
      <point x="348" y="624"/>
      <point x="366" y="617" type="curve"/>
      <point x="396" y="728" type="line"/>
      <point x="337" y="746"/>
      <point x="307" y="751"/>
      <point x="273" y="751" type="curve" smooth="yes"/>
      <point x="158" y="751"/>
      <point x="89" y="694"/>
      <point x="89" y="588" type="curve" smooth="yes"/>
      <point x="89" y="500" type="line"/>
      <point x="12" y="500" type="line"/>
      <point x="12" y="380" type="line"/>
      <point x="89" y="380" type="line"/>
    </contour>
  </outline>
</glyph>
<glyph name="g" format="2">
  <advance width="605"/>
  <unicode hex="0067"/>
  <anchor x="279" y="-220" name="bottom"/>
  <anchor x="288" y="520" name="top"/>
  <outline>
    <contour>
      <point x="268.447" y="-220" type="curve" smooth="yes"/>
      <point x="442.787" y="-220"/>
      <point x="551" y="-121"/>
      <point x="551" y="52" type="curve" smooth="yes"/>
      <point x="551" y="500" type="line"/>
      <point x="386" y="500" type="line"/>
      <point x="386" y="68" type="line" smooth="yes"/>
      <point x="386" y="-56"/>
      <point x="326" y="-97"/>
      <point x="250" y="-97" type="curve" smooth="yes"/>
      <point x="197" y="-97"/>
      <point x="151" y="-77"/>
      <point x="124" y="-42" type="curve"/>
      <point x="39" y="-127" type="line"/>
      <point x="89.098" y="-188"/>
      <point x="169.254" y="-220"/>
    </contour>
    <contour>
      <point x="228" y="-20" type="curve" smooth="yes"/>
      <point x="348" y="-20"/>
      <point x="418" y="90"/>
      <point x="418" y="257" type="curve" smooth="yes"/>
      <point x="418" y="421"/>
      <point x="350" y="520"/>
      <point x="225" y="520" type="curve" smooth="yes"/>
      <point x="94" y="520"/>
      <point x="20" y="411"/>
      <point x="20" y="259" type="curve" smooth="yes"/>
      <point x="20" y="99"/>
      <point x="103" y="-20"/>
    </contour>
    <contour>
      <point x="287.507" y="106" type="curve" smooth="yes"/>
      <point x="226.204" y="106"/>
      <point x="185" y="165"/>
      <point x="185" y="257" type="curve" smooth="yes"/>
      <point x="185" y="344"/>
      <point x="222.184" y="393"/>
      <point x="282.483" y="393" type="curve" smooth="yes"/>
      <point x="347.806" y="393"/>
      <point x="386" y="337"/>
      <point x="386" y="251" type="curve" smooth="yes"/>
      <point x="386" y="166"/>
      <point x="348.811" y="106"/>
    </contour>
  </outline>
</glyph>
<glyph name="h" format="2">
  <advance width="606"/>
  <unicode hex="0068"/>
  <anchor x="308" y="-20" name="bottom"/>
  <anchor x="131" y="750" name="top"/>
  <outline>
    <contour>
      <point x="401" y="272" type="curve" smooth="yes"/>
      <point x="401" y="0" type="line"/>
      <point x="566" y="0" type="line"/>
      <point x="566" y="304" type="line" smooth="yes"/>
      <point x="566" y="448"/>
      <point x="505" y="520"/>
      <point x="390" y="520" type="curve" smooth="yes"/>
      <point x="281" y="520"/>
      <point x="217" y="428"/>
      <point x="200" y="350" type="curve"/>
      <point x="202" y="278" type="line"/>
      <point x="214" y="217" type="line"/>
      <point x="214" y="312"/>
      <point x="250" y="396"/>
      <point x="327" y="396" type="curve" smooth="yes"/>
      <point x="373" y="396"/>
      <point x="401" y="367"/>
    </contour>
    <contour>
      <point x="49" y="0" type="line"/>
      <point x="214" y="0" type="line"/>
      <point x="214" y="750" type="line"/>
      <point x="49" y="750" type="line"/>
    </contour>
  </outline>
</glyph>
<glyph name="k" format="2">
  <advance width="574"/>
  <unicode hex="006B"/>
  <anchor x="277" y="-20" name="bottom"/>
  <anchor x="126" y="750" name="top"/>
  <outline>
    <contour>
      <point x="379" y="0" type="line" name="ab02"/>
      <point x="567" y="0" type="line"/>
      <point x="426" y="265" type="line"/>
      <point x="551" y="500" type="line" name="av02"/>
      <point x="378" y="500" type="line"/>
      <point x="290" y="319" type="line" name="iv02"/>
      <point x="99" y="319" type="line"/>
      <point x="100" y="199" type="line"/>
      <point x="286" y="199" type="line" name="iv01"/>
    </contour>
    <contour>
      <point x="45" y="0" type="line"/>
      <point x="210" y="0" type="line"/>
      <point x="210" y="750" type="line"/>
      <point x="45" y="750" type="line"/>
    </contour>
  </outline>
</glyph>
<glyph name="m" format="2">
  <advance width="899"/>
  <unicode hex="006D"/>
  <anchor x="453" y="-20" name="bottom"/>
  <anchor x="453" y="520" name="top"/>
  <outline>
    <contour>
      <point x="695" y="272" type="curve" smooth="yes"/>
      <point x="695" y="0" type="line"/>
      <point x="860" y="0" type="line"/>
      <point x="860" y="304" type="line" smooth="yes"/>
      <point x="860" y="448"/>
      <point x="803" y="520"/>
      <point x="706" y="520" type="curve" smooth="yes"/>
      <point x="597" y="520"/>
      <point x="537" y="428"/>
      <point x="521" y="350" type="curve"/>
      <point x="523" y="278" type="line"/>
      <point x="535" y="217" type="line"/>
      <point x="535" y="312"/>
      <point x="566" y="396"/>
      <point x="632" y="396" type="curve" smooth="yes"/>
      <point x="670" y="396"/>
      <point x="695" y="367"/>
    </contour>
    <contour>
      <point x="45" y="0" type="line"/>
      <point x="210" y="0" type="line"/>
      <point x="210" y="500" type="line"/>
      <point x="45" y="500" type="line"/>
    </contour>
    <contour>
      <point x="370" y="272" type="curve" smooth="yes"/>
      <point x="370" y="0" type="line"/>
      <point x="535" y="0" type="line"/>
      <point x="535" y="304" type="line" smooth="yes"/>
      <point x="535" y="448"/>
      <point x="478" y="520"/>
      <point x="381" y="520" type="curve" smooth="yes"/>
      <point x="272" y="520"/>
      <point x="212" y="428"/>
      <point x="196" y="350" type="curve"/>
      <point x="198" y="278" type="line"/>
      <point x="210" y="217" type="line"/>
      <point x="210" y="312"/>
      <point x="241" y="396"/>
      <point x="307" y="396" type="curve" smooth="yes"/>
      <point x="345" y="396"/>
      <point x="370" y="367"/>
    </contour>
  </outline>
</glyph>
<glyph name="n" format="2">
  <advance width="606"/>
  <unicode hex="006E"/>
  <anchor x="304" y="-20" name="bottom"/>
  <anchor x="304" y="520" name="top"/>
  <outline>
    <contour>
      <point x="396" y="272" type="curve" smooth="yes"/>
      <point x="396" y="0" type="line"/>
      <point x="561" y="0" type="line"/>
      <point x="561" y="304" type="line" smooth="yes"/>
      <point x="561" y="448"/>
      <point x="501.049" y="520"/>
      <point x="388.026" y="520" type="curve" smooth="yes"/>
      <point x="280.9" y="520"/>
      <point x="218" y="428"/>
      <point x="201" y="350" type="curve"/>
      <point x="203" y="278" type="line"/>
      <point x="215" y="217" type="line"/>
      <point x="215" y="312"/>
      <point x="249.845" y="396"/>
      <point x="324.374" y="396" type="curve" smooth="yes"/>
      <point x="368.898" y="396"/>
      <point x="396" y="367"/>
    </contour>
    <contour>
      <point x="50" y="0" type="line"/>
      <point x="215" y="0" type="line"/>
      <point x="215" y="500" type="line"/>
      <point x="50" y="500" type="line"/>
    </contour>
  </outline>
</glyph>
<glyph name="o" format="2">
  <advance width="578"/>
  <unicode hex="006F"/>
  <anchor x="289" y="-20" name="bottom"/>
  <anchor x="398" y="-3" name="ogonek"/>
  <anchor x="289" y="520" name="top"/>
  <anchor x="289" y="520" name="topgr"/>
  <outline>
    <contour>
      <point x="289" y="-20" type="curve" smooth="yes"/>
      <point x="452.16" y="-20"/>
      <point x="555" y="80"/>
      <point x="555" y="255" type="curve" smooth="yes"/>
      <point x="555" y="431"/>
      <point x="448.204" y="520"/>
      <point x="289" y="520" type="curve" smooth="yes"/>
      <point x="137.706" y="520"/>
      <point x="23" y="429"/>
      <point x="23" y="255" type="curve" smooth="yes"/>
      <point x="23" y="89"/>
      <point x="129.796" y="-20"/>
    </contour>
    <contour>
      <point x="286.087" y="103" type="curve" smooth="yes"/>
      <point x="221.99" y="103"/>
      <point x="188" y="155"/>
      <point x="188" y="254" type="curve" smooth="yes"/>
      <point x="188" y="349"/>
      <point x="221.019" y="396"/>
      <point x="287.058" y="396" type="curve" smooth="yes"/>
      <point x="355.038" y="396"/>
      <point x="390" y="347"/>
      <point x="390" y="252" type="curve" smooth="yes"/>
      <point x="390" y="156"/>
      <point x="353.096" y="103"/>
    </contour>
  </outline>
</glyph>
<glyph name="p" format="2">
  <advance width="632"/>
  <unicode hex="0070"/>
  <anchor x="369" y="-20" name="bottom"/>
  <anchor x="350" y="520" name="top"/>
  <outline>
    <contour>
      <point x="372" y="-20" type="curve" smooth="yes"/>
      <point x="509" y="-20"/>
      <point x="593" y="99"/>
      <point x="593" y="255" type="curve" smooth="yes"/>
      <point x="593" y="411"/>
      <point x="518" y="520"/>
      <point x="379" y="520" type="curve" smooth="yes"/>
      <point x="261" y="520"/>
      <point x="191" y="421"/>
      <point x="191" y="255" type="curve" smooth="yes"/>
      <point x="191" y="90"/>
      <point x="263" y="-20"/>
    </contour>
    <contour>
      <point x="61" y="-200" type="line"/>
      <point x="226" y="-200" type="line"/>
      <point x="226" y="500" type="line"/>
      <point x="61" y="500" type="line"/>
    </contour>
    <contour>
      <point x="323" y="106" type="curve" smooth="yes"/>
      <point x="264" y="106"/>
      <point x="226" y="166"/>
      <point x="226" y="257" type="curve" smooth="yes"/>
      <point x="226" y="337"/>
      <point x="265" y="393"/>
      <point x="322" y="393" type="curve" smooth="yes"/>
      <point x="390" y="393"/>
      <point x="428" y="341"/>
      <point x="428" y="256" type="curve" smooth="yes"/>
      <point x="428" y="164"/>
      <point x="388" y="106"/>
    </contour>
  </outline>
</glyph>
<glyph name="q" format="2">
  <advance width="635"/>
  <unicode hex="0071"/>
  <anchor x="271" y="-20" name="bottom"/>
  <anchor x="272" y="520" name="top"/>
  <outline>
    <contour>
      <point x="249.226" y="-20" type="curve" smooth="yes"/>
      <point x="358.089" y="-20"/>
      <point x="429" y="90"/>
      <point x="429" y="255" type="curve" smooth="yes"/>
      <point x="429" y="421"/>
      <point x="360.086" y="520"/>
      <point x="243.233" y="520" type="curve" smooth="yes"/>
      <point x="104.407" y="520"/>
      <point x="30.5" y="411"/>
      <point x="30.5" y="255" type="curve" smooth="yes"/>
      <point x="30.5" y="99"/>
      <point x="113.396" y="-20"/>
    </contour>
    <contour>
      <point x="299.759" y="106" type="curve" smooth="yes"/>
      <point x="233.595" y="106"/>
      <point x="195.5" y="161"/>
      <point x="195.5" y="256" type="curve" smooth="yes"/>
      <point x="195.5" y="346"/>
      <point x="231.59" y="393"/>
      <point x="300.761" y="393" type="curve" smooth="yes"/>
      <point x="357.903" y="393"/>
      <point x="397" y="337"/>
      <point x="397" y="257" type="curve" smooth="yes"/>
      <point x="397" y="166"/>
      <point x="358.905" y="106"/>
    </contour>
    <contour>
      <point x="397" y="-200" type="line"/>
      <point x="562" y="-200" type="line"/>
      <point x="562" y="500" type="line"/>
      <point x="397" y="500" type="line"/>
    </contour>
  </outline>
</glyph>
<glyph name="r" format="2">
  <advance width="410"/>
  <unicode hex="0072"/>
  <anchor x="131" y="-20" name="bottom"/>
  <anchor x="224" y="520" name="top"/>
  <outline>
    <contour>
      <point x="50" y="0" type="line"/>
      <point x="215" y="0" type="line"/>
      <point x="215" y="209" type="line" smooth="yes"/>
      <point x="215" y="338"/>
      <point x="270" y="397"/>
      <point x="387" y="397" type="curve"/>
      <point x="387" y="520" type="line"/>
      <point x="304" y="519"/>
      <point x="258.065" y="486"/>
      <point x="215" y="400" type="curve"/>
      <point x="215" y="500" type="line"/>
      <point x="50" y="500" type="line"/>
    </contour>
  </outline>
</glyph>
<glyph name="s" format="2">
  <advance width="487"/>
  <unicode hex="0073"/>
  <anchor x="243" y="-20" name="bottom"/>
  <anchor x="243" y="520" name="top"/>
  <outline>
    <contour>
      <point x="236" y="-20" type="curve" smooth="yes"/>
      <point x="360" y="-20"/>
      <point x="462" y="45"/>
      <point x="462" y="147" type="curve" smooth="yes"/>
      <point x="462" y="214"/>
      <point x="416.878" y="267.566"/>
      <point x="277" y="307" type="curve" smooth="yes"/>
      <point x="228.876" y="320.567"/>
      <point x="194" y="326"/>
      <point x="194" y="359" type="curve" smooth="yes"/>
      <point x="194" y="381"/>
      <point x="210" y="397"/>
      <point x="250" y="397" type="curve" smooth="yes"/>
      <point x="294" y="397"/>
      <point x="340" y="377"/>
      <point x="367" y="342" type="curve"/>
      <point x="452" y="427" type="line"/>
      <point x="404" y="486"/>
      <point x="327" y="520"/>
      <point x="230" y="520" type="curve" smooth="yes"/>
      <point x="114" y="520"/>
      <point x="29" y="450"/>
      <point x="29" y="357" type="curve" smooth="yes"/>
      <point x="29" y="283"/>
      <point x="84.014" y="224.071"/>
      <point x="212" y="198" type="curve" smooth="yes"/>
      <point x="246.015" y="191.071"/>
      <point x="297" y="184"/>
      <point x="297" y="148" type="curve" smooth="yes"/>
      <point x="297" y="122"/>
      <point x="269" y="103"/>
      <point x="225" y="103" type="curve" smooth="yes"/>
      <point x="179" y="103"/>
      <point x="133" y="123"/>
      <point x="106" y="158" type="curve"/>
      <point x="21" y="73" type="line"/>
      <point x="69" y="14"/>
      <point x="146" y="-20"/>
    </contour>
  </outline>
</glyph>
<glyph name="u" format="2">
  <advance width="580"/>
  <unicode hex="0075"/>
  <anchor x="290" y="-20" name="bottom"/>
  <anchor x="397" y="-3" name="ogonek"/>
  <anchor x="290" y="520" name="top"/>
  <outline>
    <contour>
      <point x="291" y="-20" type="curve" smooth="yes"/>
      <point x="439" y="-20"/>
      <point x="534" y="65"/>
      <point x="534" y="185" type="curve" smooth="yes"/>
      <point x="534" y="500" type="line"/>
      <point x="369" y="500" type="line"/>
      <point x="369" y="228" type="line" smooth="yes"/>
      <point x="369" y="137"/>
      <point x="345" y="104"/>
      <point x="291" y="104" type="curve" smooth="yes"/>
      <point x="237" y="104"/>
      <point x="212" y="138"/>
      <point x="212" y="228" type="curve" smooth="yes"/>
      <point x="212" y="500" type="line"/>
      <point x="47" y="500" type="line"/>
      <point x="47" y="185" type="line" smooth="yes"/>
      <point x="47" y="62"/>
      <point x="144" y="-20"/>
    </contour>
  </outline>
</glyph>
<glyph name="w" format="2">
  <advance width="854"/>
  <unicode hex="0077"/>
  <anchor x="427" y="-20" name="bottom"/>
  <anchor x="427" y="520" name="top"/>
  <outline>
    <contour>
      <point x="197" y="0" type="line"/>
      <point x="343" y="0" type="line"/>
      <point x="427" y="313" type="line"/>
      <point x="511" y="0" type="line"/>
      <point x="657" y="0" type="line"/>
      <point x="839" y="500" type="line"/>
      <point x="663" y="500" type="line"/>
      <point x="579" y="216" type="line"/>
      <point x="500" y="500" type="line"/>
      <point x="354" y="500" type="line"/>
      <point x="275" y="216" type="line"/>
      <point x="191" y="500" type="line"/>
      <point x="15" y="500" type="line"/>
    </contour>
  </outline>
</glyph>
<glyph name="x" format="2">
  <advance width="574"/>
  <unicode hex="0078"/>
  <anchor x="287" y="-20" name="bottom"/>
  <anchor x="287" y="520" name="top"/>
  <outline>
    <contour>
      <point x="22" y="0" type="line" name="ab01"/>
      <point x="203" y="0" type="line"/>
      <point x="287" y="170" type="line" name="iv01"/>
      <point x="371" y="0" type="line" name="ab02"/>
      <point x="554" y="0" type="line"/>
      <point x="402.491" y="261.985" type="line"/>
      <point x="392.497" y="236.012" type="line"/>
      <point x="545" y="500" type="line" name="av02"/>
      <point x="366" y="500" type="line"/>
      <point x="271.199" y="303.63" type="line" name="iv02"/>
      <point x="304.801" y="303.63" type="line"/>
      <point x="210" y="500" type="line"/>
      <point x="31" y="500" type="line" name="av01"/>
      <point x="183.503" y="236.012" type="line"/>
      <point x="173.509" y="261.985" type="line"/>
    </contour>
  </outline>
</glyph>
<glyph name="y" format="2">
  <advance width="526"/>
  <unicode hex="0079"/>
  <anchor x="448" y="-69" name="bottom"/>
  <anchor x="263" y="520" name="top"/>
  <outline>
    <contour>
      <point x="163" y="-221" type="curve" smooth="yes"/>
      <point x="249" y="-221"/>
      <point x="302" y="-178"/>
      <point x="336" y="-78" type="curve" smooth="yes"/>
      <point x="535" y="500" type="line"/>
      <point x="360" y="500" type="line"/>
      <point x="198" y="-29" type="line" smooth="yes"/>
      <point x="183.462" y="-76.473"/>
      <point x="149" y="-96"/>
      <point x="111" y="-96" type="curve" smooth="yes"/>
      <point x="91" y="-96"/>
      <point x="75" y="-93"/>
      <point x="56" y="-84" type="curve"/>
      <point x="24" y="-198" type="line"/>
      <point x="71" y="-212"/>
      <point x="95" y="-221"/>
    </contour>
    <contour>
      <point x="153" y="0" type="line"/>
      <point x="309" y="0" type="line"/>
      <point x="166" y="500" type="line"/>
      <point x="-9" y="500" type="line"/>
    </contour>
  </outline>
</glyph>
<glyph name="braceleft" format="2">
  <advance width="366"/>
  <unicode hex="007B"/>
  <outline>
    <contour>
      <point x="326" y="-336" type="curve"/>
      <point x="344" y="-288" type="line"/>
      <point x="292" y="-257.709"/>
      <point x="270" y="-202.014"/>
      <point x="270" y="-82.805" type="curve" smooth="yes"/>
      <point x="270" y="139" type="line" smooth="yes"/>
      <point x="270" y="203"/>
      <point x="251" y="261"/>
      <point x="154" y="289" type="curve"/>
      <point x="248" y="315"/>
      <point x="270" y="365"/>
      <point x="270" y="429" type="curve" smooth="yes"/>
      <point x="270" y="609.548" type="line" smooth="yes"/>
      <point x="270" y="732.649"/>
      <point x="292" y="794.199"/>
      <point x="344" y="826" type="curve"/>
      <point x="326" y="874" type="line"/>
      <point x="190" y="803.439"/>
      <point x="134" y="700.154"/>
      <point x="134" y="604.027" type="curve" smooth="yes"/>
      <point x="134" y="422" type="line" smooth="yes"/>
      <point x="134" y="372"/>
      <point x="96" y="310"/>
      <point x="34" y="299" type="curve"/>
      <point x="34" y="282" type="line"/>
      <point x="76" y="272"/>
      <point x="134" y="236"/>
      <point x="134" y="165" type="curve" smooth="yes"/>
      <point x="134" y="-75.205" type="line" smooth="yes"/>
      <point x="134" y="-174.229"/>
      <point x="190" y="-268.35"/>
    </contour>
  </outline>
</glyph>
<glyph name="braceright" format="2">
  <advance width="366"/>
  <unicode hex="007D"/>
  <outline>
    <contour>
      <point x="34" y="-288" type="curve"/>
      <point x="52" y="-336" type="line"/>
      <point x="188" y="-268.35"/>
      <point x="244" y="-174.229"/>
      <point x="244" y="-75.205" type="curve" smooth="yes"/>
      <point x="244" y="165" type="line" smooth="yes"/>
      <point x="244" y="236"/>
      <point x="302" y="272"/>
      <point x="344" y="282" type="curve"/>
      <point x="344" y="299" type="line"/>
      <point x="282" y="310"/>
      <point x="244" y="372"/>
      <point x="244" y="422" type="curve" smooth="yes"/>
      <point x="244" y="604.027" type="line" smooth="yes"/>
      <point x="244" y="700.154"/>
      <point x="188" y="803.439"/>
      <point x="52" y="874" type="curve"/>
      <point x="34" y="826" type="line"/>
      <point x="86" y="794.199"/>
      <point x="108" y="732.649"/>
      <point x="108" y="609.548" type="curve" smooth="yes"/>
      <point x="108" y="429" type="line" smooth="yes"/>
      <point x="108" y="365"/>
      <point x="130" y="315"/>
      <point x="224" y="289" type="curve"/>
      <point x="127" y="261"/>
      <point x="108" y="203"/>
      <point x="108" y="139" type="curve" smooth="yes"/>
      <point x="108" y="-82.805" type="line" smooth="yes"/>
      <point x="108" y="-202.014"/>
      <point x="86" y="-257.709"/>
    </contour>
  </outline>
</glyph>
<glyph name="cent" format="2">
  <advance width="563"/>
  <unicode hex="00A2"/>
  <outline>
    <contour>
      <point x="291" y="80" type="curve" smooth="yes"/>
      <point x="393" y="80"/>
      <point x="471" y="112"/>
      <point x="521" y="173" type="curve"/>
      <point x="436" y="258" type="line"/>
      <point x="409" y="223"/>
      <point x="359" y="204"/>
      <point x="308" y="204" type="curve" smooth="yes"/>
      <point x="229" y="204"/>
      <point x="194" y="255"/>
      <point x="194" y="354" type="curve" smooth="yes"/>
      <point x="194" y="449"/>
      <point x="233" y="496"/>
      <point x="307" y="496" type="curve" smooth="yes"/>
      <point x="354" y="496"/>
      <point x="405" y="477"/>
      <point x="432" y="442" type="curve"/>
      <point x="517" y="527" type="line"/>
      <point x="467" y="588"/>
      <point x="392" y="620"/>
      <point x="293" y="620" type="curve" smooth="yes"/>
      <point x="140" y="620"/>
      <point x="29" y="529"/>
      <point x="29" y="355" type="curve" smooth="yes"/>
      <point x="29" y="189"/>
      <point x="130" y="80"/>
    </contour>
    <contour>
      <point x="275" y="-31" type="line"/>
      <point x="323" y="-31" type="line"/>
      <point x="323" y="90" type="line"/>
      <point x="275" y="89" type="line"/>
    </contour>
    <contour>
      <point x="274" y="610" type="line"/>
      <point x="324" y="610" type="line"/>
      <point x="324" y="730" type="line"/>
      <point x="274" y="730" type="line"/>
    </contour>
  </outline>
</glyph>
<glyph name="yen" format="2">
  <advance width="662"/>
  <unicode hex="00A5"/>
  <outline>
    <contour>
      <point x="248" y="0" type="line"/>
      <point x="414" y="0" type="line"/>
      <point x="414" y="284" type="line"/>
      <point x="654" y="700" type="line"/>
      <point x="463" y="700" type="line"/>
      <point x="331" y="452" type="line"/>
      <point x="199" y="700" type="line"/>
      <point x="8" y="700" type="line"/>
      <point x="248" y="284" type="line"/>
    </contour>
    <contour>
      <point x="130" y="97" type="line"/>
      <point x="533" y="97" type="line"/>
      <point x="533" y="172" type="line"/>
      <point x="130" y="172" type="line"/>
    </contour>
    <contour>
      <point x="130" y="228" type="line"/>
      <point x="533" y="228" type="line"/>
      <point x="533" y="303" type="line"/>
      <point x="130" y="303" type="line"/>
    </contour>
  </outline>
</glyph>
<glyph name="ordfeminine" format="2">
  <advance width="549"/>
  <unicode hex="00AA"/>
  <outline>
    <contour>
      <point x="244.466" y="320" type="curve" smooth="yes"/>
      <point x="349.164" y="320"/>
      <point x="406" y="396"/>
      <point x="406" y="520" type="curve" smooth="yes"/>
      <point x="406" y="644"/>
      <point x="349.164" y="720"/>
      <point x="243.468" y="720" type="curve" smooth="yes"/>
      <point x="131.79" y="720"/>
      <point x="59" y="636"/>
      <point x="59" y="522" type="curve" smooth="yes"/>
      <point x="59" y="408"/>
      <point x="130.793" y="320"/>
    </contour>
    <contour>
      <point x="272.971" y="410" type="curve" smooth="yes"/>
      <point x="204.311" y="410"/>
      <point x="172" y="458"/>
      <point x="172" y="521" type="curve" smooth="yes"/>
      <point x="172" y="584"/>
      <point x="205.32" y="631"/>
      <point x="273.981" y="631" type="curve" smooth="yes"/>
      <point x="338.602" y="631"/>
      <point x="380" y="589"/>
      <point x="380" y="521" type="curve" smooth="yes"/>
      <point x="380" y="453"/>
      <point x="337.592" y="410"/>
    </contour>
    <contour>
      <point x="380" y="335" type="line"/>
      <point x="493" y="335" type="line"/>
      <point x="493" y="702" type="line"/>
      <point x="380" y="702" type="line"/>
    </contour>
  </outline>
</glyph>
<glyph name="uni00B2" format="2">
  <advance width="432"/>
  <unicode hex="00B2"/>
  <outline>
    <contour>
      <point x="34" y="481" type="curve"/>
      <point x="34" y="388" type="line"/>
      <point x="311" y="451.745"/>
      <point x="398" y="542.341"/>
      <point x="398" y="667.579" type="curve" smooth="yes"/>
      <point x="398" y="779.748"/>
      <point x="329" y="834"/>
      <point x="218" y="834" type="curve" smooth="yes"/>
      <point x="137" y="834"/>
      <point x="75" y="803"/>
      <point x="32" y="751" type="curve"/>
      <point x="99" y="684" type="line"/>
      <point x="137" y="724"/>
      <point x="169" y="744"/>
      <point x="214" y="744" type="curve" smooth="yes"/>
      <point x="258" y="744"/>
      <point x="283" y="720.512"/>
      <point x="283" y="665.314" type="curve" smooth="yes"/>
      <point x="283" y="597.198"/>
      <point x="244" y="522"/>
    </contour>
    <contour>
      <point x="34" y="344" type="line"/>
      <point x="398" y="344" type="line"/>
      <point x="398" y="434" type="line"/>
      <point x="34" y="434" type="line"/>
    </contour>
  </outline>
</glyph>
<glyph name="uni00B9" format="2">
  <advance width="333"/>
  <unicode hex="00B9"/>
  <outline>
    <contour>
      <point x="176" y="683" type="curve"/>
      <point x="176" y="343" type="line"/>
      <point x="291" y="343" type="line"/>
      <point x="291" y="828" type="line"/>
      <point x="197" y="828" type="line"/>
      <point x="160" y="767"/>
      <point x="90" y="715"/>
      <point x="27" y="700" type="curve"/>
      <point x="27" y="606" type="line"/>
      <point x="92" y="619"/>
      <point x="145" y="647"/>
    </contour>
  </outline>
</glyph>
<glyph name="AE" format="2">
  <advance width="880"/>
  <unicode hex="00C6"/>
  <anchor x="480" y="-20" name="bottom"/>
  <anchor x="480" y="719" name="top"/>
  <outline>
    <contour>
      <point x="398" y="0" type="line"/>
      <point x="835" y="0" type="line"/>
      <point x="835" y="130" type="line"/>
      <point x="564" y="130" type="line"/>
      <point x="564" y="300" type="line"/>
      <point x="795" y="300" type="line"/>
      <point x="795" y="430" type="line"/>
      <point x="564" y="430" type="line"/>
      <point x="564" y="570" type="line"/>
      <point x="820" y="570" type="line"/>
      <point x="820" y="700" type="line"/>
      <point x="398" y="700" type="line"/>
    </contour>
    <contour>
      <point x="193" y="111" type="line"/>
      <point x="527" y="111" type="line"/>
      <point x="483" y="241" type="line"/>
      <point x="237" y="241" type="line"/>
    </contour>
    <contour>
      <point x="7" y="0" type="line"/>
      <point x="181" y="0" type="line"/>
      <point x="382" y="700" type="line"/>
      <point x="234" y="700" type="line"/>
    </contour>
    <contour>
      <point x="213" y="570" type="line"/>
      <point x="499" y="570" type="line"/>
      <point x="500" y="700" type="line"/>
      <point x="257" y="700" type="line"/>
    </contour>
  </outline>
</glyph>
<glyph name="Eth" format="2">
  <advance width="732"/>
  <unicode hex="00D0"/>
  <outline>
    <contour>
      <point x="68" y="0" type="line"/>
      <point x="350" y="0" type="line" smooth="yes"/>
      <point x="561" y="0"/>
      <point x="704" y="141"/>
      <point x="704" y="350" type="curve" smooth="yes"/>
      <point x="704" y="558"/>
      <point x="560" y="700"/>
      <point x="350" y="700" type="curve" smooth="yes"/>
      <point x="68" y="700" type="line"/>
    </contour>
    <contour>
      <point x="-0.28" y="336" type="line"/>
      <point x="398.082" y="336" type="line"/>
      <point x="398.082" y="370" type="line"/>
      <point x="-0.28" y="370" type="line"/>
    </contour>
    <contour>
      <point x="329" y="130" type="curve" smooth="yes"/>
      <point x="233" y="130" type="line"/>
      <point x="233" y="570" type="line"/>
      <point x="329" y="570" type="line" smooth="yes"/>
      <point x="457" y="570"/>
      <point x="536" y="481"/>
      <point x="536" y="352" type="curve" smooth="yes"/>
      <point x="536" y="218"/>
      <point x="451" y="130"/>
    </contour>
  </outline>
</glyph>
<glyph name="Oslash" format="2">
  <advance width="795"/>
  <unicode hex="00D8"/>
  <anchor x="398" y="-20" name="bottom"/>
  <anchor x="522" y="-1" name="ogonek"/>
  <anchor x="398" y="719" name="top"/>
  <outline>
    <contour>
      <point x="397" y="-20" type="curve" smooth="yes"/>
      <point x="621" y="-20"/>
      <point x="757" y="144"/>
      <point x="757" y="350" type="curve" smooth="yes"/>
      <point x="757" y="557"/>
      <point x="616" y="720"/>
      <point x="398" y="720" type="curve" smooth="yes"/>
      <point x="180" y="720"/>
      <point x="38" y="560"/>
      <point x="38" y="350" type="curve" smooth="yes"/>
      <point x="38" y="142"/>
      <point x="178" y="-20"/>
    </contour>
    <contour>
      <point x="169.464" y="-67" type="line"/>
      <point x="207.946" y="-67" type="line"/>
      <point x="628.975" y="767.75" type="line"/>
      <point x="590.494" y="767.75" type="line"/>
    </contour>
    <contour>
      <point x="398.992" y="111" type="curve" smooth="yes"/>
      <point x="281.605" y="111"/>
      <point x="206" y="210"/>
      <point x="206" y="353" type="curve" smooth="yes"/>
      <point x="206" y="498"/>
      <point x="275.636" y="589"/>
      <point x="395.013" y="589" type="curve" smooth="yes"/>
      <point x="515.384" y="589"/>
      <point x="589" y="493"/>
      <point x="589" y="346" type="curve" smooth="yes"/>
      <point x="589" y="204"/>
      <point x="517.374" y="111"/>
    </contour>
  </outline>
</glyph>
<glyph name="Thorn" format="2">
  <advance width="617"/>
  <unicode hex="00DE"/>
  <outline>
    <contour>
      <point x="140" y="147" type="line"/>
      <point x="306" y="147" type="line" smooth="yes"/>
      <point x="472" y="147"/>
      <point x="578" y="211"/>
      <point x="578" y="363" type="curve" smooth="yes"/>
      <point x="578" y="513"/>
      <point x="474" y="574"/>
      <point x="306" y="574" type="curve" smooth="yes"/>
      <point x="128" y="574" type="line"/>
      <point x="128" y="444" type="line"/>
      <point x="276" y="444" type="line" smooth="yes"/>
      <point x="384" y="444"/>
      <point x="411" y="413"/>
      <point x="411" y="365" type="curve" smooth="yes"/>
      <point x="411" y="316"/>
      <point x="384" y="277"/>
      <point x="276" y="277" type="curve" smooth="yes"/>
      <point x="140" y="277" type="line"/>
    </contour>
    <contour>
      <point x="68" y="0" type="line"/>
      <point x="234" y="0" type="line"/>
      <point x="234" y="700" type="line"/>
      <point x="68" y="700" type="line"/>
    </contour>
  </outline>
</glyph>
<glyph name="germandbls" format="2">
  <advance width="725"/>
  <unicode hex="00DF"/>
  <outline>
    <contour>
      <point x="473" y="-20" type="curve" smooth="yes"/>
      <point x="589" y="-20"/>
      <point x="687" y="45"/>
      <point x="687" y="154" type="curve" smooth="yes"/>
      <point x="687" y="314"/>
      <point x="516.5" y="302"/>
      <point x="516.5" y="396" type="curve" smooth="yes"/>
      <point x="516.5" y="461"/>
      <point x="579" y="481"/>
      <point x="579" y="584" type="curve" smooth="yes"/>
      <point x="579" y="685"/>
      <point x="477.844" y="749"/>
      <point x="330.156" y="749" type="curve" smooth="yes"/>
      <point x="176.399" y="749"/>
      <point x="54" y="680"/>
      <point x="54" y="545" type="curve" smooth="yes"/>
      <point x="54" y="0" type="line"/>
      <point x="219" y="0" type="line"/>
      <point x="219" y="471" type="line" smooth="yes"/>
      <point x="219" y="569"/>
      <point x="256.775" y="626"/>
      <point x="333.346" y="626" type="curve" smooth="yes"/>
      <point x="382.351" y="626"/>
      <point x="414" y="603"/>
      <point x="414" y="562" type="curve" smooth="yes"/>
      <point x="414" y="488"/>
      <point x="351.5" y="466"/>
      <point x="351.5" y="379" type="curve" smooth="yes"/>
      <point x="351.5" y="254"/>
      <point x="527" y="211"/>
      <point x="527" y="151" type="curve" smooth="yes"/>
      <point x="527" y="120"/>
      <point x="495" y="103"/>
      <point x="460" y="103" type="curve" smooth="yes"/>
      <point x="423" y="103"/>
      <point x="386" y="123"/>
      <point x="352" y="167" type="curve"/>
      <point x="259" y="74" type="line"/>
      <point x="298" y="21"/>
      <point x="380" y="-20"/>
    </contour>
  </outline>
</glyph>
<glyph name="aogonek" format="2">
  <advance width="606"/>
  <unicode hex="0105"/>
  <anchor x="294" y="-20" name="bottom"/>
  <anchor x="300" y="520" name="top"/>
  <outline>
    <contour>
      <point x="235" y="-20" type="curve" smooth="yes"/>
      <point x="359" y="-20"/>
      <point x="433" y="90"/>
      <point x="433" y="257" type="curve" smooth="yes"/>
      <point x="433" y="421"/>
      <point x="361" y="520"/>
      <point x="232" y="520" type="curve" smooth="yes"/>
      <point x="97" y="520"/>
      <point x="20" y="411"/>
      <point x="20" y="259" type="curve" smooth="yes"/>
      <point x="20" y="99"/>
      <point x="106" y="-20"/>
    </contour>
    <contour>
      <point x="492" y="-206" type="curve"/>
      <point x="556" y="-183" type="line"/>
      <point x="513" y="-169"/>
      <point x="492" y="-138"/>
      <point x="492" y="-104" type="curve" smooth="yes"/>
      <point x="492" y="-67"/>
      <point x="516" y="-24"/>
      <point x="555" y="0" type="curve"/>
      <point x="516" y="3" type="line"/>
      <point x="420" y="-14"/>
      <point x="372" y="-53"/>
      <point x="372" y="-106" type="curve" smooth="yes"/>
      <point x="372" y="-158"/>
      <point x="418" y="-196"/>
    </contour>
    <contour>
      <point x="294.517" y="106" type="curve" smooth="yes"/>
      <point x="231.218" y="106"/>
      <point x="185" y="168"/>
      <point x="185" y="256" type="curve" smooth="yes"/>
      <point x="185" y="341"/>
      <point x="227.199" y="393"/>
      <point x="290.498" y="393" type="curve" smooth="yes"/>
      <point x="355.806" y="393"/>
      <point x="397" y="337"/>
      <point x="397" y="251" type="curve" smooth="yes"/>
      <point x="397" y="166"/>
      <point x="356.81" y="106"/>
    </contour>
    <contour>
      <point x="397" y="0" type="line"/>
      <point x="562" y="0" type="line"/>
      <point x="562" y="500" type="line"/>
      <point x="397" y="500" type="line"/>
    </contour>
  </outline>
</glyph>
<glyph name="eogonek" format="2">
  <advance width="598"/>
  <unicode hex="0119"/>
  <anchor x="299" y="-20" name="bottom"/>
  <anchor x="299" y="520" name="top"/>
  <outline>
    <contour>
      <point x="315" y="-20" type="curve" smooth="yes"/>
      <point x="407" y="-20"/>
      <point x="487" y="12"/>
      <point x="537" y="73" type="curve"/>
      <point x="452" y="158" type="line"/>
      <point x="425" y="123"/>
      <point x="379" y="103"/>
      <point x="320" y="103" type="curve" smooth="yes"/>
      <point x="242" y="103"/>
      <point x="200" y="138"/>
      <point x="196" y="212" type="curve"/>
      <point x="571" y="212" type="line"/>
      <point x="582.595" y="404.026"/>
      <point x="481.306" y="520"/>
      <point x="302" y="520" type="curve" smooth="yes"/>
      <point x="143" y="520"/>
      <point x="28" y="420"/>
      <point x="28" y="254" type="curve" smooth="yes"/>
      <point x="28" y="85"/>
      <point x="147" y="-20"/>
    </contour>
    <contour>
      <point x="369" y="-206" type="curve"/>
      <point x="433" y="-183" type="line"/>
      <point x="390" y="-169"/>
      <point x="369" y="-138"/>
      <point x="369" y="-104" type="curve" smooth="yes"/>
      <point x="369" y="-67"/>
      <point x="393" y="-24"/>
      <point x="432" y="0" type="curve"/>
      <point x="393" y="3" type="line"/>
      <point x="297" y="-14"/>
      <point x="249" y="-53"/>
      <point x="249" y="-106" type="curve" smooth="yes"/>
      <point x="249" y="-158"/>
      <point x="295" y="-196"/>
    </contour>
    <contour>
      <point x="403" y="332" type="curve"/>
      <point x="198" y="332" type="line"/>
      <point x="204" y="367.896"/>
      <point x="242" y="397"/>
      <point x="300.688" y="397" type="curve" smooth="yes"/>
      <point x="353" y="397"/>
      <point x="397.698" y="373.875"/>
    </contour>
  </outline>
</glyph>
<glyph name="Hbar" format="2">
  <advance width="737"/>
  <unicode hex="0126"/>
  <outline>
    <contour>
      <point x="68" y="0" type="line"/>
      <point x="233" y="0" type="line"/>
      <point x="233" y="305" type="line"/>
      <point x="505" y="305" type="line"/>
      <point x="505" y="0" type="line"/>
      <point x="670" y="0" type="line"/>
      <point x="670" y="700" type="line"/>
      <point x="505" y="700" type="line"/>
      <point x="505" y="435" type="line"/>
      <point x="233" y="435" type="line"/>
      <point x="233" y="700" type="line"/>
      <point x="68" y="700" type="line"/>
    </contour>
    <contour>
      <point x="0.27" y="514" type="line"/>
      <point x="737.266" y="514" type="line"/>
      <point x="737.266" y="548" type="line"/>
      <point x="0.27" y="548" type="line"/>
    </contour>
  </outline>
</glyph>
<glyph name="hbar" format="2">
  <advance width="641"/>
  <unicode hex="0127"/>
  <outline>
    <contour>
      <point x="417" y="252" type="curve" smooth="yes"/>
      <point x="417" y="0" type="line"/>
      <point x="582" y="0" type="line"/>
      <point x="582" y="284" type="line" smooth="yes"/>
      <point x="582" y="428"/>
      <point x="521" y="500"/>
      <point x="406" y="500" type="curve" smooth="yes"/>
      <point x="297" y="500"/>
      <point x="233" y="408"/>
      <point x="216" y="330" type="curve"/>
      <point x="218" y="258" type="line"/>
      <point x="230" y="197" type="line"/>
      <point x="230" y="292"/>
      <point x="266" y="376"/>
      <point x="343" y="376" type="curve" smooth="yes"/>
      <point x="389" y="376"/>
      <point x="417" y="347"/>
    </contour>
    <contour>
      <point x="65" y="0" type="line"/>
      <point x="230" y="0" type="line"/>
      <point x="230" y="750" type="line"/>
      <point x="65" y="750" type="line"/>
    </contour>
    <contour>
      <point x="8.8" y="631" type="line"/>
      <point x="400.464" y="631" type="line"/>
      <point x="400.464" y="665" type="line"/>
      <point x="8.8" y="665" type="line"/>
    </contour>
  </outline>
</glyph>
<glyph name="kgreenlandic" format="2">
  <advance width="594"/>
  <unicode hex="0138"/>
  <outline>
    <contour>
      <point x="399" y="0" type="line" name="ab02"/>
      <point x="587" y="0" type="line"/>
      <point x="446" y="265" type="line"/>
      <point x="571" y="500" type="line" name="av02"/>
      <point x="408" y="500" type="line"/>
      <point x="323" y="318" type="line" name="iv02"/>
      <point x="119" y="318" type="line"/>
      <point x="120" y="199" type="line"/>
      <point x="306" y="199" type="line" name="iv01"/>
    </contour>
    <contour>
      <point x="64" y="0" type="line"/>
      <point x="229" y="0" type="line"/>
      <point x="229" y="500" type="line"/>
      <point x="64" y="500" type="line"/>
    </contour>
  </outline>
</glyph>
<glyph name="Lslash" format="2">
  <advance width="554"/>
  <unicode hex="0141"/>
  <outline>
    <contour>
      <point x="68" y="0" type="line"/>
      <point x="514" y="0" type="line"/>
      <point x="514" y="130" type="line"/>
      <point x="234" y="130" type="line"/>
      <point x="234" y="700" type="line"/>
      <point x="68" y="700" type="line"/>
    </contour>
    <contour>
      <point x="0" y="231" type="line"/>
      <point x="399" y="500" type="line"/>
      <point x="399" y="549" type="line"/>
      <point x="0" y="280" type="line"/>
    </contour>
  </outline>
</glyph>
<glyph name="lslash" format="2">
  <advance width="350"/>
  <unicode hex="0142"/>
  <outline>
    <contour>
      <point x="224" y="-20" type="curve" smooth="yes"/>
      <point x="263" y="-20"/>
      <point x="294" y="-13"/>
      <point x="341" y="3" type="curve"/>
      <point x="317" y="117" type="line"/>
      <point x="298" y="110"/>
      <point x="279" y="107"/>
      <point x="268" y="107" type="curve" smooth="yes"/>
      <point x="238" y="107"/>
      <point x="229" y="127"/>
      <point x="229" y="193" type="curve" smooth="yes"/>
      <point x="229" y="750" type="line"/>
      <point x="64" y="750" type="line"/>
      <point x="64" y="132" type="line" smooth="yes"/>
      <point x="64" y="33"/>
      <point x="115" y="-20"/>
    </contour>
    <contour>
      <point x="6" y="250" type="line"/>
      <point x="328" y="470" type="line"/>
      <point x="328" y="511" type="line"/>
      <point x="6" y="291" type="line"/>
    </contour>
  </outline>
</glyph>
<glyph name="OE" format="2">
  <advance width="968"/>
  <unicode hex="0152"/>
  <anchor x="484" y="-20" name="bottom"/>
  <anchor x="484" y="719" name="top"/>
  <outline>
    <contour>
      <point x="392" y="0" type="curve" smooth="yes"/>
      <point x="646.17" y="0" type="line"/>
      <point x="646.17" y="700" type="line"/>
      <point x="392" y="700" type="line" smooth="yes"/>
      <point x="182" y="700"/>
      <point x="38" y="558"/>
      <point x="38" y="350" type="curve" smooth="yes"/>
      <point x="38" y="141"/>
      <point x="181" y="0"/>
    </contour>
    <contour>
      <point x="413" y="130" type="line"/>
      <point x="291" y="130"/>
      <point x="206" y="218"/>
      <point x="206" y="352" type="curve" smooth="yes"/>
      <point x="206" y="481"/>
      <point x="285" y="570"/>
      <point x="413" y="570" type="curve" smooth="yes"/>
      <point x="485.17" y="570" type="line"/>
      <point x="485.17" y="130" type="line"/>
    </contour>
    <contour>
      <point x="491.17" y="0" type="line"/>
      <point x="922.17" y="0" type="line"/>
      <point x="922.17" y="130" type="line"/>
      <point x="651.17" y="130" type="line"/>
      <point x="651.17" y="300" type="line"/>
      <point x="882.17" y="300" type="line"/>
      <point x="882.17" y="430" type="line"/>
      <point x="651.17" y="430" type="line"/>
      <point x="651.17" y="570" type="line"/>
      <point x="907.17" y="570" type="line"/>
      <point x="907.17" y="700" type="line"/>
      <point x="491.17" y="700" type="line"/>
    </contour>
  </outline>
</glyph>
<glyph name="oe" format="2">
  <advance width="938"/>
  <unicode hex="0153"/>
  <anchor x="460" y="-20" name="bottom"/>
  <anchor x="460" y="520" name="top"/>
  <outline>
    <contour>
      <point x="662.55" y="-20" type="curve" smooth="yes"/>
      <point x="751.79" y="-20"/>
      <point x="829.39" y="12"/>
      <point x="877.89" y="73" type="curve"/>
      <point x="795.44" y="158" type="line"/>
      <point x="769.25" y="123"/>
      <point x="724.63" y="103"/>
      <point x="667.4" y="103" type="curve" smooth="yes"/>
      <point x="591.74" y="103"/>
      <point x="551" y="138"/>
      <point x="547.12" y="212" type="curve"/>
      <point x="910.87" y="212" type="line"/>
      <point x="922.117" y="404.026"/>
      <point x="823.867" y="520"/>
      <point x="649.94" y="520" type="curve" smooth="yes"/>
      <point x="495.71" y="520"/>
      <point x="384.16" y="420"/>
      <point x="384.16" y="254" type="curve" smooth="yes"/>
      <point x="384.16" y="85"/>
      <point x="499.59" y="-20"/>
    </contour>
    <contour>
      <point x="281.76" y="-20" type="curve" smooth="yes"/>
      <point x="441.81" y="-20"/>
      <point x="542.69" y="80"/>
      <point x="542.69" y="255" type="curve" smooth="yes"/>
      <point x="542.69" y="431"/>
      <point x="437.93" y="520"/>
      <point x="281.76" y="520" type="curve" smooth="yes"/>
      <point x="133.35" y="520"/>
      <point x="20.83" y="429"/>
      <point x="20.83" y="255" type="curve" smooth="yes"/>
      <point x="20.83" y="89"/>
      <point x="125.59" y="-20"/>
    </contour>
    <contour>
      <point x="278.85" y="103" type="curve" smooth="yes"/>
      <point x="214.83" y="103"/>
      <point x="180.88" y="155"/>
      <point x="180.88" y="254" type="curve" smooth="yes"/>
      <point x="180.88" y="349"/>
      <point x="213.86" y="396"/>
      <point x="279.82" y="396" type="curve" smooth="yes"/>
      <point x="347.72" y="396"/>
      <point x="382.64" y="347"/>
      <point x="382.64" y="252" type="curve" smooth="yes"/>
      <point x="382.64" y="156"/>
      <point x="345.78" y="103"/>
    </contour>
    <contour>
      <point x="747.91" y="332" type="curve"/>
      <point x="549.06" y="332" type="line"/>
      <point x="554.88" y="367.896"/>
      <point x="591.74" y="397"/>
      <point x="648.667" y="397" type="curve" smooth="yes"/>
      <point x="699.41" y="397"/>
      <point x="742.767" y="373.875"/>
    </contour>
  </outline>
</glyph>
<glyph name="Scedilla" format="2">
  <advance width="600"/>
  <unicode hex="015E"/>
  <anchor x="290" y="-218" name="bottom"/>
  <anchor x="286" y="719" name="top"/>
  <outline>
    <contour>
      <point x="310" y="-20" type="curve" smooth="yes"/>
      <point x="473" y="-20"/>
      <point x="561" y="61"/>
      <point x="561" y="197" type="curve" smooth="yes"/>
      <point x="561" y="298"/>
      <point x="497.807" y="363.922"/>
      <point x="336.373" y="399" type="curve" smooth="yes"/>
      <point x="240.087" y="419.922"/>
      <point x="203" y="442"/>
      <point x="203" y="501" type="curve" smooth="yes"/>
      <point x="203" y="553"/>
      <point x="232.112" y="589"/>
      <point x="294.353" y="589" type="curve" smooth="yes"/>
      <point x="354.585" y="589"/>
      <point x="415.822" y="556"/>
      <point x="462" y="501" type="curve"/>
      <point x="557" y="596" type="line"/>
      <point x="497" y="668"/>
      <point x="407" y="720"/>
      <point x="287" y="720" type="curve" smooth="yes"/>
      <point x="133" y="720"/>
      <point x="38" y="635"/>
      <point x="38" y="498" type="curve" smooth="yes"/>
      <point x="38" y="386"/>
      <point x="109.23" y="315.139"/>
      <point x="280.678" y="277" type="curve" smooth="yes"/>
      <point x="369.958" y="257.139"/>
      <point x="396" y="238"/>
      <point x="396" y="191" type="curve" smooth="yes"/>
      <point x="396" y="138"/>
      <point x="362.878" y="111"/>
      <point x="300.648" y="111" type="curve" smooth="yes"/>
      <point x="232.396" y="111"/>
      <point x="171.17" y="144"/>
      <point x="125" y="199" type="curve"/>
      <point x="30" y="104" type="line"/>
      <point x="90" y="32"/>
      <point x="180" y="-20"/>
    </contour>
    <contour>
      <point x="265" y="-218" type="curve" smooth="yes"/>
      <point x="362" y="-218"/>
      <point x="414" y="-192"/>
      <point x="414" y="-133" type="curve" smooth="yes"/>
      <point x="414" y="-87"/>
      <point x="383" y="-64"/>
      <point x="313" y="-64" type="curve"/>
      <point x="360.224" y="19" type="line"/>
      <point x="267.224" y="19" type="line"/>
      <point x="202" y="-104" type="line"/>
      <point x="217" y="-102"/>
      <point x="235" y="-100"/>
      <point x="249" y="-100" type="curve" smooth="yes"/>
      <point x="282" y="-100"/>
      <point x="301" y="-111"/>
      <point x="301" y="-134" type="curve" smooth="yes"/>
      <point x="301" y="-155"/>
      <point x="285" y="-168"/>
      <point x="256" y="-168" type="curve" smooth="yes"/>
      <point x="238" y="-168"/>
      <point x="203" y="-163"/>
      <point x="183" y="-157" type="curve"/>
      <point x="163" y="-205" type="line"/>
      <point x="185" y="-211"/>
      <point x="218" y="-218"/>
    </contour>
  </outline>
</glyph>
<glyph name="uni0163" format="2">
  <advance width="395"/>
  <unicode hex="0163"/>
  <anchor x="210" y="-218" name="bottom"/>
  <anchor x="175" y="630" name="top"/>
  <anchor x="283" y="700" name="topright"/>
  <outline>
    <contour>
      <point x="251" y="-20" type="curve" smooth="yes"/>
      <point x="293.23" y="-20"/>
      <point x="333.11" y="-9.44"/>
      <point x="385.89" y="9.11" type="curve"/>
      <point x="355.69" y="121.85" type="line"/>
      <point x="333.18" y="111.36"/>
      <point x="308.27" y="106.99"/>
      <point x="295" y="107" type="curve" smooth="yes"/>
      <point x="265" y="107"/>
      <point x="256" y="127"/>
      <point x="256" y="193" type="curve" smooth="yes"/>
      <point x="256" y="620" type="line"/>
      <point x="91" y="620" type="line"/>
      <point x="91" y="132" type="line" smooth="yes"/>
      <point x="91" y="33"/>
      <point x="142" y="-20"/>
    </contour>
    <contour>
      <point x="185" y="-218" type="curve" smooth="yes"/>
      <point x="282" y="-218"/>
      <point x="334" y="-192"/>
      <point x="334" y="-133" type="curve" smooth="yes"/>
      <point x="334" y="-87"/>
      <point x="303" y="-64"/>
      <point x="233" y="-64" type="curve"/>
      <point x="280.224" y="19" type="line"/>
      <point x="187.224" y="19" type="line"/>
      <point x="122" y="-104" type="line"/>
      <point x="137" y="-102"/>
      <point x="155" y="-100"/>
      <point x="169" y="-100" type="curve" smooth="yes"/>
      <point x="202" y="-100"/>
      <point x="221" y="-111"/>
      <point x="221" y="-134" type="curve" smooth="yes"/>
      <point x="221" y="-155"/>
      <point x="205" y="-168"/>
      <point x="176" y="-168" type="curve" smooth="yes"/>
      <point x="158" y="-168"/>
      <point x="123" y="-163"/>
      <point x="103" y="-157" type="curve"/>
      <point x="83" y="-205" type="line"/>
      <point x="105" y="-211"/>
      <point x="138" y="-218"/>
    </contour>
    <contour>
      <point x="14" y="380" type="line"/>
      <point x="378" y="380" type="line"/>
      <point x="378" y="500" type="line"/>
      <point x="14" y="500" type="line"/>
    </contour>
  </outline>
</glyph>
<glyph name="tbar" format="2">
  <advance width="395"/>
  <unicode hex="0167"/>
  <anchor x="230" y="-20" name="bottom"/>
  <anchor x="175" y="630" name="top"/>
  <anchor x="283" y="700" name="topright"/>
  <outline>
    <contour>
      <point x="251" y="-20" type="curve" smooth="yes"/>
      <point x="293.23" y="-20"/>
      <point x="333.11" y="-9.44"/>
      <point x="385.89" y="9.11" type="curve"/>
      <point x="355.69" y="121.85" type="line"/>
      <point x="333.18" y="111.36"/>
      <point x="308.27" y="106.99"/>
      <point x="295" y="107" type="curve" smooth="yes"/>
      <point x="265" y="107"/>
      <point x="256" y="127"/>
      <point x="256" y="193" type="curve" smooth="yes"/>
      <point x="256" y="620" type="line"/>
      <point x="91" y="620" type="line"/>
      <point x="91" y="132" type="line" smooth="yes"/>
      <point x="91" y="33"/>
      <point x="142" y="-20"/>
    </contour>
    <contour>
      <point x="24.441" y="231" type="line"/>
      <point x="351.451" y="231" type="line"/>
      <point x="351.451" y="287" type="line"/>
      <point x="24.441" y="287" type="line"/>
    </contour>
    <contour>
      <point x="14" y="380" type="line"/>
      <point x="378" y="380" type="line"/>
      <point x="378" y="500" type="line"/>
      <point x="14" y="500" type="line"/>
    </contour>
  </outline>
</glyph>
<glyph name="uni0237" format="2">
  <advance width="290"/>
  <unicode hex="0237"/>
  <anchor x="100" y="-217" name="bottom"/>
  <anchor x="161" y="520" name="top"/>
  <outline>
    <contour>
      <point x="95.64" y="-221" type="curve" smooth="yes"/>
      <point x="183.04" y="-221"/>
      <point x="241" y="-174"/>
      <point x="241" y="-68" type="curve" smooth="yes"/>
      <point x="241" y="500" type="line"/>
      <point x="76" y="500" type="line"/>
      <point x="76" y="-8" type="line" smooth="yes"/>
      <point x="76" y="-74"/>
      <point x="71.481" y="-96"/>
      <point x="42.111" y="-96" type="curve" smooth="yes"/>
      <point x="27.049" y="-96"/>
      <point x="17" y="-93"/>
      <point x="-2" y="-84" type="curve"/>
      <point x="-36" y="-198" type="line"/>
      <point x="11" y="-212"/>
      <point x="33.08" y="-221"/>
    </contour>
  </outline>
</glyph>
<glyph name="uni0259" format="2">
  <advance width="613"/>
  <unicode hex="0259"/>
  <anchor x="306" y="-20" name="bottom"/>
  <anchor x="306" y="520" name="top"/>
  <outline>
    <contour>
      <point x="312" y="-20" type="curve" smooth="yes"/>
      <point x="471" y="-20"/>
      <point x="574" y="92"/>
      <point x="574" y="256" type="curve" smooth="yes"/>
      <point x="574" y="418"/>
      <point x="473" y="520"/>
      <point x="301" y="520" type="curve" smooth="yes"/>
      <point x="204" y="520"/>
      <point x="124" y="488"/>
      <point x="74" y="427" type="curve"/>
      <point x="159" y="342" type="line"/>
      <point x="189.699" y="377"/>
      <point x="242" y="397"/>
      <point x="293" y="397" type="curve" smooth="yes"/>
      <point x="355" y="397"/>
      <point x="402.385" y="367"/>
      <point x="410" y="304" type="curve"/>
      <point x="53" y="304" type="line"/>
      <point x="51" y="290"/>
      <point x="49" y="278"/>
      <point x="49" y="255" type="curve" smooth="yes"/>
      <point x="49" y="90"/>
      <point x="154" y="-20"/>
    </contour>
    <contour>
      <point x="309" y="104" type="curve" smooth="yes"/>
      <point x="257" y="104"/>
      <point x="222" y="134"/>
      <point x="214" y="204" type="curve"/>
      <point x="408" y="204" type="line"/>
      <point x="399" y="130"/>
      <point x="358" y="104"/>
    </contour>
  </outline>
</glyph>
<glyph name="acutecomb" format="2">
  <advance width="0"/>
  <unicode hex="0301"/>
  <anchor x="126" y="500" name="_top"/>
  <anchor x="142" y="700" name="top"/>
  <outline>
    <contour>
      <point x="72" y="550" type="line"/>
      <point x="170" y="550" type="line"/>
      <point x="277" y="701" type="line"/>
      <point x="143" y="701" type="line"/>
    </contour>
  </outline>
</glyph>
<glyph name="tildecomb" format="2">
  <advance width="0"/>
  <unicode hex="0303"/>
  <anchor x="222" y="500" name="_top"/>
  <anchor x="222" y="670" name="top"/>
  <outline>
    <contour>
      <point x="292" y="573" type="curve" smooth="yes"/>
      <point x="350" y="573"/>
      <point x="394" y="611.009"/>
      <point x="394" y="686" type="curve"/>
      <point x="304" y="686" type="line"/>
      <point x="303" y="664"/>
      <point x="298" y="653"/>
      <point x="276" y="653" type="curve" smooth="yes"/>
      <point x="233" y="653"/>
      <point x="202" y="695"/>
      <point x="143" y="695" type="curve" smooth="yes"/>
      <point x="90" y="695"/>
      <point x="46" y="658"/>
      <point x="46" y="579" type="curve"/>
      <point x="136" y="579" type="line"/>
      <point x="138" y="604"/>
      <point x="146" y="615"/>
      <point x="165" y="615" type="curve" smooth="yes"/>
      <point x="201" y="615"/>
      <point x="231" y="573"/>
    </contour>
  </outline>
</glyph>
<glyph name="uni0306" format="2">
  <advance width="0"/>
  <unicode hex="0306"/>
  <anchor x="168" y="500" name="_top"/>
  <anchor x="168" y="680" name="top"/>
  <outline>
    <contour>
      <point x="165" y="551" type="curve" smooth="yes"/>
      <point x="249" y="551"/>
      <point x="306" y="612.978"/>
      <point x="315" y="702" type="curve"/>
      <point x="225" y="702" type="line"/>
      <point x="220" y="659.132"/>
      <point x="202" y="631"/>
      <point x="167" y="631" type="curve" smooth="yes"/>
      <point x="135" y="631"/>
      <point x="119" y="655.981"/>
      <point x="114" y="702" type="curve"/>
      <point x="24" y="702" type="line"/>
      <point x="33" y="608.47"/>
      <point x="84" y="551"/>
    </contour>
  </outline>
</glyph>
<glyph name="uni0307" format="2">
  <advance width="0"/>
  <unicode hex="0307"/>
  <anchor x="105" y="500" name="_top"/>
  <anchor x="105" y="686" name="top"/>
  <outline>
    <contour>
      <point x="106.936" y="527.62" type="curve" smooth="yes"/>
      <point x="161.509" y="527.62"/>
      <point x="190.231" y="568.789"/>
      <point x="190.231" y="610.915" type="curve" smooth="yes"/>
      <point x="190.231" y="652.084"/>
      <point x="161.509" y="690.38"/>
      <point x="107.894" y="690.38" type="curve" smooth="yes"/>
      <point x="50.449" y="690.38"/>
      <point x="20.769" y="647.297"/>
      <point x="20.769" y="609.957" type="curve" smooth="yes"/>
      <point x="20.769" y="572.618"/>
      <point x="50.449" y="527.62"/>
    </contour>
  </outline>
</glyph>
<glyph name="uni0308" format="2">
  <advance width="0"/>
  <unicode hex="0308"/>
  <anchor x="204" y="500" name="_top"/>
  <anchor x="204" y="500" name="_topgr"/>
  <anchor x="204" y="669" name="top"/>
  <outline>
    <contour>
      <point x="103.716" y="532.693" type="curve" smooth="yes"/>
      <point x="156.228" y="532.693"/>
      <point x="183.866" y="572.307"/>
      <point x="183.866" y="611" type="curve" smooth="yes"/>
      <point x="183.866" y="652.457"/>
      <point x="156.228" y="689.307"/>
      <point x="103.716" y="689.307" type="curve" smooth="yes"/>
      <point x="49.362" y="689.307"/>
      <point x="20.803" y="647.85"/>
      <point x="20.803" y="611" type="curve" smooth="yes"/>
      <point x="20.803" y="575.992"/>
      <point x="49.362" y="532.693"/>
    </contour>
    <contour>
      <point x="305.126" y="532.693" type="curve" smooth="yes"/>
      <point x="357.638" y="532.693"/>
      <point x="386.197" y="572.307"/>
      <point x="386.197" y="611" type="curve" smooth="yes"/>
      <point x="386.197" y="652.457"/>
      <point x="357.638" y="689.307"/>
      <point x="305.126" y="689.307" type="curve" smooth="yes"/>
      <point x="250.772" y="689.307"/>
      <point x="223.134" y="647.85"/>
      <point x="223.134" y="611" type="curve" smooth="yes"/>
      <point x="223.134" y="575.992"/>
      <point x="250.772" y="532.693"/>
    </contour>
  </outline>
</glyph>
<glyph name="uni030A" format="2">
  <advance width="0"/>
  <unicode hex="030A"/>
  <anchor x="135" y="500" name="_top"/>
  <anchor x="135" y="723" name="top"/>
  <outline>
    <contour>
      <point x="135" y="513" type="curve" smooth="yes"/>
      <point x="200" y="513"/>
      <point x="243" y="554"/>
      <point x="243" y="618" type="curve" smooth="yes"/>
      <point x="243" y="681"/>
      <point x="200" y="723"/>
      <point x="135" y="723" type="curve" smooth="yes"/>
      <point x="70" y="723"/>
      <point x="27" y="681"/>
      <point x="27" y="618" type="curve" smooth="yes"/>
      <point x="27" y="554"/>
      <point x="70" y="513"/>
    </contour>
    <contour>
      <point x="135" y="572" type="curve" smooth="yes"/>
      <point x="108" y="572"/>
      <point x="90" y="589"/>
      <point x="90" y="618" type="curve" smooth="yes"/>
      <point x="90" y="646"/>
      <point x="108" y="664"/>
      <point x="135" y="664" type="curve" smooth="yes"/>
      <point x="162" y="664"/>
      <point x="180" y="646"/>
      <point x="180" y="618" type="curve" smooth="yes"/>
      <point x="180" y="590"/>
      <point x="162" y="572"/>
    </contour>
  </outline>
</glyph>
<glyph name="uni030B" format="2">
  <advance width="0"/>
  <unicode hex="030B"/>
  <anchor x="138" y="500" name="_top"/>
  <anchor x="204" y="702" name="top"/>
  <outline>
    <contour>
      <point x="199" y="551" type="line"/>
      <point x="275" y="551" type="line"/>
      <point x="375" y="702" type="line"/>
      <point x="259" y="702" type="line"/>
    </contour>
    <contour>
      <point x="11" y="551" type="line"/>
      <point x="87" y="551" type="line"/>
      <point x="187" y="702" type="line"/>
      <point x="71" y="702" type="line"/>
    </contour>
  </outline>
</glyph>
<glyph name="uni030C" format="2">
  <advance width="0"/>
  <unicode hex="030C"/>
  <anchor x="173" y="500" name="_top"/>
  <anchor x="173" y="702" name="top"/>
  <outline>
    <contour>
      <point x="119" y="550" type="line"/>
      <point x="228" y="550" type="line"/>
      <point x="330" y="701" type="line"/>
      <point x="222" y="701" type="line"/>
      <point x="173" y="613" type="line"/>
      <point x="125" y="701" type="line"/>
      <point x="17" y="701" type="line"/>
    </contour>
  </outline>
</glyph>
<glyph name="uni0326" format="2">
  <advance width="0"/>
  <unicode hex="0326"/>
  <anchor x="123" y="0" name="_bottom"/>
  <anchor x="123" y="-248" name="bottom"/>
  <outline>
    <contour>
      <point x="66" y="-250" type="curve"/>
      <point x="84" y="-277" type="line"/>
      <point x="147" y="-259.084"/>
      <point x="188" y="-199.363"/>
      <point x="188" y="-138.647" type="curve" smooth="yes"/>
      <point x="188" y="-97.837"/>
      <point x="169" y="-63"/>
      <point x="121" y="-63" type="curve" smooth="yes"/>
      <point x="84" y="-63"/>
      <point x="58" y="-83.811"/>
      <point x="58" y="-118.495" type="curve" smooth="yes"/>
      <point x="58" y="-153.18"/>
      <point x="84" y="-173"/>
      <point x="113" y="-173" type="curve" smooth="yes"/>
      <point x="124" y="-173"/>
      <point x="136" y="-170"/>
      <point x="138" y="-166" type="curve"/>
      <point x="135" y="-197"/>
      <point x="108" y="-229"/>
    </contour>
  </outline>
</glyph>
<glyph name="uni0328" format="2">
  <advance width="0"/>
  <unicode hex="0328"/>
  <anchor x="207" y="0" name="_ogonek"/>
  <outline>
    <contour>
      <point x="144" y="-203" type="curve"/>
      <point x="208" y="-180" type="line"/>
      <point x="165" y="-166"/>
      <point x="144" y="-135"/>
      <point x="144" y="-101" type="curve" smooth="yes"/>
      <point x="144" y="-64"/>
      <point x="168" y="-21"/>
      <point x="207" y="3" type="curve"/>
      <point x="168" y="6" type="line"/>
      <point x="72" y="-11"/>
      <point x="24" y="-50"/>
      <point x="24" y="-103" type="curve" smooth="yes"/>
      <point x="24" y="-155"/>
      <point x="70" y="-193"/>
    </contour>
  </outline>
</glyph>
<glyph name="uni0375" format="2">
  <advance width="241"/>
  <unicode hex="0375"/>
  <outline>
    <contour>
      <point x="13" y="-149" type="line"/>
      <point x="148" y="-149" type="line"/>
      <point x="227" y="68" type="line"/>
      <point x="134" y="68" type="line"/>
    </contour>
  </outline>
</glyph>
<glyph name="uni037E" format="2">
  <advance width="277"/>
  <unicode hex="037E"/>
  <outline>
    <contour>
      <point x="-18" y="-149" type="line"/>
      <point x="113" y="-149" type="line"/>
      <point x="185" y="119" type="line"/>
      <point x="91" y="119" type="line"/>
    </contour>
    <component base="period" xOffset="7" yOffset="381" identifier="8AF41524"/>
  </outline>
</glyph>
<glyph name="uni0394" format="2">
  <advance width="655"/>
  <unicode hex="0394"/>
  <outline>
    <contour>
      <point x="474" y="0" type="line"/>
      <point x="648" y="0" type="line"/>
      <point x="421" y="700" type="line"/>
      <point x="273" y="700" type="line"/>
    </contour>
    <contour>
      <point x="163" y="0" type="line"/>
      <point x="489" y="0" type="line"/>
      <point x="445" y="130" type="line"/>
      <point x="207" y="130" type="line"/>
    </contour>
    <contour>
      <point x="7" y="0" type="line"/>
      <point x="181" y="0" type="line"/>
      <point x="382" y="700" type="line"/>
      <point x="234" y="700" type="line"/>
    </contour>
  </outline>
</glyph>
<glyph name="Xi" format="2">
  <advance width="593"/>
  <unicode hex="039E"/>
  <outline>
    <contour>
      <point x="55" y="570" type="line"/>
      <point x="548" y="570" type="line"/>
      <point x="548" y="700" type="line"/>
      <point x="55" y="700" type="line"/>
    </contour>
    <contour>
      <point x="55" y="0" type="line"/>
      <point x="548" y="0" type="line"/>
      <point x="548" y="130" type="line"/>
      <point x="55" y="130" type="line"/>
    </contour>
    <contour>
      <point x="111" y="286" type="line"/>
      <point x="493" y="286" type="line"/>
      <point x="493" y="412" type="line"/>
      <point x="111" y="412" type="line"/>
    </contour>
  </outline>
</glyph>
<glyph name="Sigma" format="2">
  <advance width="570"/>
  <unicode hex="03A3"/>
  <outline>
    <contour>
      <point x="31" y="0" type="line"/>
      <point x="524" y="0" type="line"/>
      <point x="524" y="130" type="line"/>
      <point x="265" y="130" type="line"/>
      <point x="463" y="350" type="line"/>
      <point x="265" y="570" type="line"/>
      <point x="524" y="570" type="line"/>
      <point x="524" y="700" type="line"/>
      <point x="31" y="700" type="line"/>
      <point x="31" y="602" type="line"/>
      <point x="258" y="350" type="line"/>
      <point x="31" y="98" type="line"/>
    </contour>
  </outline>
</glyph>
<glyph name="alpha" format="2">
  <advance width="631"/>
  <unicode hex="03B1"/>
  <anchor x="284" y="520" name="topgr"/>
  <outline>
    <contour>
      <point x="240" y="-20" type="curve" smooth="yes"/>
      <point x="386.527" y="-20"/>
      <point x="505.441" y="124.319"/>
      <point x="560.263" y="296" type="curve" smooth="yes"/>
      <point x="581.391" y="362.168"/>
      <point x="593" y="432.4"/>
      <point x="593" y="500" type="curve"/>
      <point x="427" y="500" type="line"/>
      <point x="427" y="444.658"/>
      <point x="427.38" y="362.352"/>
      <point x="416.224" y="287.091" type="curve" smooth="yes"/>
      <point x="401.779" y="189.64"/>
      <point x="367.993" y="104"/>
      <point x="289" y="104" type="curve" smooth="yes"/>
      <point x="225" y="104"/>
      <point x="189" y="159"/>
      <point x="189" y="253" type="curve" smooth="yes"/>
      <point x="189" y="346"/>
      <point x="224" y="396"/>
      <point x="285" y="396" type="curve" smooth="yes"/>
      <point x="344.403" y="396"/>
      <point x="379.14" y="347.751"/>
      <point x="399.45" y="282.42" type="curve" smooth="yes"/>
      <point x="427.006" y="193.778"/>
      <point x="428" y="73.689"/>
      <point x="428" y="0" type="curve"/>
      <point x="593" y="0" type="line"/>
      <point x="593" y="101.644"/>
      <point x="570.004" y="206.955"/>
      <point x="528.162" y="296" type="curve" smooth="yes"/>
      <point x="467.503" y="425.092"/>
      <point x="367.235" y="520"/>
      <point x="240" y="520" type="curve" smooth="yes"/>
      <point x="107" y="520"/>
      <point x="23" y="417"/>
      <point x="23" y="254" type="curve" smooth="yes"/>
      <point x="23" y="81"/>
      <point x="117" y="-20"/>
    </contour>
  </outline>
</glyph>
<glyph name="epsilon" format="2">
  <advance width="495"/>
  <unicode hex="03B5"/>
  <anchor x="253" y="520" name="topgr"/>
  <outline>
    <contour>
      <point x="234" y="-20" type="curve" smooth="yes"/>
      <point x="351" y="-20"/>
      <point x="425" y="25"/>
      <point x="463" y="80" type="curve"/>
      <point x="373" y="170" type="line"/>
      <point x="338" y="122"/>
      <point x="297" y="103"/>
      <point x="254" y="103" type="curve" smooth="yes"/>
      <point x="216" y="103"/>
      <point x="194" y="118"/>
      <point x="194" y="143" type="curve" smooth="yes"/>
      <point x="194" y="182"/>
      <point x="245" y="198"/>
      <point x="363" y="198" type="curve"/>
      <point x="363" y="308" type="line"/>
      <point x="244.208" y="308"/>
      <point x="213" y="317"/>
      <point x="213" y="352" type="curve" smooth="yes"/>
      <point x="213" y="381"/>
      <point x="234.135" y="397"/>
      <point x="267.348" y="397" type="curve" smooth="yes"/>
      <point x="297.542" y="397"/>
      <point x="328.742" y="383"/>
      <point x="369" y="337" type="curve"/>
      <point x="459" y="427" type="line"/>
      <point x="415" y="482"/>
      <point x="345" y="520"/>
      <point x="238" y="520" type="curve" smooth="yes"/>
      <point x="96" y="520"/>
      <point x="48" y="452.195"/>
      <point x="48" y="381.309" type="curve" smooth="yes"/>
      <point x="48" y="318.641"/>
      <point x="85" y="257"/>
      <point x="214" y="253" type="curve"/>
      <point x="82" y="243"/>
      <point x="29" y="200.008"/>
      <point x="29" y="127.97" type="curve" smooth="yes"/>
      <point x="29" y="49.117"/>
      <point x="88" y="-20"/>
    </contour>
  </outline>
</glyph>
<glyph name="eta" format="2">
  <advance width="601"/>
  <unicode hex="03B7"/>
  <anchor x="290" y="520" name="topgr"/>
  <outline>
    <contour>
      <point x="391" y="271" type="curve" smooth="yes"/>
      <point x="391" y="-200" type="line"/>
      <point x="556" y="-200" type="line"/>
      <point x="556" y="304" type="line" smooth="yes"/>
      <point x="556" y="448"/>
      <point x="496.857" y="520"/>
      <point x="393.357" y="520" type="curve" smooth="yes"/>
      <point x="289.857" y="520"/>
      <point x="229.729" y="448"/>
      <point x="211" y="370" type="curve"/>
      <point x="213" y="287" type="line"/>
      <point x="234" y="217" type="line"/>
      <point x="234" y="312"/>
      <point x="255.321" y="396"/>
      <point x="325.099" y="396" type="curve" smooth="yes"/>
      <point x="365.802" y="396"/>
      <point x="391" y="367"/>
    </contour>
    <contour>
      <point x="69" y="322" type="curve" smooth="yes"/>
      <point x="69" y="0" type="line"/>
      <point x="234" y="0" type="line"/>
      <point x="234" y="384" type="line" smooth="yes"/>
      <point x="234" y="482"/>
      <point x="168" y="520"/>
      <point x="13" y="520" type="curve"/>
      <point x="13" y="397" type="line"/>
      <point x="50" y="397"/>
      <point x="69" y="382"/>
    </contour>
  </outline>
</glyph>
<glyph name="iota" format="2">
  <advance width="300"/>
  <unicode hex="03B9"/>
  <anchor x="128" y="520" name="topgr"/>
  <outline>
    <contour>
      <point x="220" y="0" type="curve" smooth="yes"/>
      <point x="268" y="0" type="line"/>
      <point x="268" y="120" type="line"/>
      <point x="231" y="120"/>
      <point x="212" y="135.079"/>
      <point x="212" y="197.407" type="curve" smooth="yes"/>
      <point x="212" y="500" type="line"/>
      <point x="47" y="500" type="line"/>
      <point x="47" y="153" type="line" smooth="yes"/>
      <point x="47" y="47"/>
      <point x="101" y="0"/>
    </contour>
  </outline>
</glyph>
<glyph name="lambda" format="2">
  <advance width="600"/>
  <unicode hex="03BB"/>
  <anchor x="300" y="721" name="topgr"/>
  <outline>
    <contour>
      <point x="481" y="-21" type="curve" smooth="yes"/>
      <point x="519" y="-21"/>
      <point x="548" y="-13"/>
      <point x="590" y="2" type="curve"/>
      <point x="566" y="115" type="line"/>
      <point x="548" y="106"/>
      <point x="536" y="104"/>
      <point x="526" y="104" type="curve" smooth="yes"/>
      <point x="503" y="104"/>
      <point x="473" y="115"/>
      <point x="451" y="190" type="curve" smooth="yes"/>
      <point x="354" y="529" type="line" smooth="yes"/>
      <point x="310" y="683"/>
      <point x="257" y="751"/>
      <point x="146" y="751" type="curve" smooth="yes"/>
      <point x="113" y="751"/>
      <point x="77" y="745"/>
      <point x="21" y="728" type="curve"/>
      <point x="51" y="617" type="line"/>
      <point x="71" y="623"/>
      <point x="96" y="625"/>
      <point x="106" y="625" type="curve" smooth="yes"/>
      <point x="157" y="625"/>
      <point x="178.096" y="575.028"/>
      <point x="201" y="495" type="curve" smooth="yes"/>
      <point x="286" y="198" type="line" smooth="yes"/>
      <point x="339.479" y="11.137"/>
      <point x="406" y="-21"/>
    </contour>
    <contour>
      <point x="14" y="0" type="line"/>
      <point x="181" y="0" type="line"/>
      <point x="287" y="276" type="line"/>
      <point x="206" y="500" type="line"/>
    </contour>
  </outline>
</glyph>
<glyph name="rho" format="2">
  <advance width="600"/>
  <unicode hex="03C1"/>
  <anchor x="312" y="520" name="topgr"/>
  <outline>
    <contour>
      <point x="334" y="-20" type="curve" smooth="yes"/>
      <point x="478" y="-20"/>
      <point x="577" y="104"/>
      <point x="577" y="262" type="curve" smooth="yes"/>
      <point x="577" y="414"/>
      <point x="486" y="520"/>
      <point x="316" y="520" type="curve" smooth="yes"/>
      <point x="142" y="520"/>
      <point x="51" y="410"/>
      <point x="51" y="247" type="curve"/>
      <point x="67" y="250" type="line"/>
      <point x="94" y="235"/>
      <point x="138" y="210"/>
      <point x="159" y="192" type="curve"/>
      <point x="151" y="84"/>
      <point x="202" y="-20"/>
    </contour>
    <contour>
      <point x="51" y="-200" type="line"/>
      <point x="216" y="-200" type="line"/>
      <point x="216" y="274" type="line"/>
      <point x="51" y="251" type="line"/>
    </contour>
    <contour>
      <point x="313" y="103" type="curve" smooth="yes"/>
      <point x="249" y="103"/>
      <point x="216" y="158"/>
      <point x="216" y="249" type="curve" smooth="yes"/>
      <point x="216" y="344"/>
      <point x="252" y="397"/>
      <point x="315" y="397" type="curve" smooth="yes"/>
      <point x="377" y="397"/>
      <point x="412" y="346"/>
      <point x="412" y="253" type="curve" smooth="yes"/>
      <point x="412" y="158"/>
      <point x="376" y="103"/>
    </contour>
  </outline>
</glyph>
<glyph name="uni03C2" format="2">
  <advance width="572"/>
  <unicode hex="03C2"/>
  <anchor x="286" y="520" name="topgr"/>
  <outline>
    <contour>
      <point x="343" y="-200" type="curve"/>
      <point x="490.697" y="-200" type="line"/>
      <point x="511.133" y="-175"/>
      <point x="539" y="-131"/>
      <point x="539" y="-71" type="curve" smooth="yes"/>
      <point x="539" y="24"/>
      <point x="463" y="103"/>
      <point x="329" y="103" type="curve" smooth="yes"/>
      <point x="222" y="103"/>
      <point x="185" y="154"/>
      <point x="185" y="248" type="curve" smooth="yes"/>
      <point x="185" y="354"/>
      <point x="232" y="397"/>
      <point x="308" y="397" type="curve" smooth="yes"/>
      <point x="360" y="397"/>
      <point x="406" y="377"/>
      <point x="433" y="342" type="curve"/>
      <point x="518" y="427" type="line"/>
      <point x="469" y="496"/>
      <point x="374" y="520"/>
      <point x="287" y="520" type="curve" smooth="yes"/>
      <point x="115" y="520"/>
      <point x="20" y="426"/>
      <point x="20" y="254" type="curve" smooth="yes"/>
      <point x="20" y="118"/>
      <point x="81.5" y="-20"/>
      <point x="276.424" y="-20" type="curve" smooth="yes"/>
      <point x="367.11" y="-20"/>
      <point x="389" y="-50"/>
      <point x="389" y="-97" type="curve" smooth="yes"/>
      <point x="389" y="-143"/>
      <point x="368" y="-166"/>
    </contour>
  </outline>
</glyph>
<glyph name="phi" format="2">
  <advance width="712"/>
  <unicode hex="03C6"/>
  <anchor x="356" y="520" name="topgr"/>
  <outline>
    <contour>
      <point x="271.5" y="-20" type="curve"/>
      <point x="271.5" y="-200" type="line"/>
      <point x="436.5" y="-200" type="line"/>
      <point x="436.5" y="-20" type="line"/>
      <point x="593.808" y="-12"/>
      <point x="692" y="91"/>
      <point x="692" y="250" type="curve" smooth="yes"/>
      <point x="692" y="414"/>
      <point x="589.122" y="520"/>
      <point x="429.312" y="520" type="curve" smooth="yes"/>
      <point x="327.433" y="520"/>
      <point x="271.5" y="467"/>
      <point x="271.5" y="366" type="curve" smooth="yes"/>
      <point x="271.5" y="104" type="line"/>
      <point x="215.174" y="111"/>
      <point x="185" y="163"/>
      <point x="185" y="254" type="curve" smooth="yes"/>
      <point x="185" y="332"/>
      <point x="204" y="368"/>
      <point x="232" y="396" type="curve"/>
      <point x="128" y="500" type="line"/>
      <point x="61" y="447"/>
      <point x="20" y="365"/>
      <point x="20" y="251" type="curve" smooth="yes"/>
      <point x="20" y="87"/>
      <point x="125.209" y="-15"/>
    </contour>
    <contour>
      <point x="436.5" y="104" type="curve"/>
      <point x="436.5" y="373" type="line" smooth="yes"/>
      <point x="436.5" y="386"/>
      <point x="436.5" y="396"/>
      <point x="452.589" y="396" type="curve" smooth="yes"/>
      <point x="489.794" y="396"/>
      <point x="527" y="343"/>
      <point x="527" y="252" type="curve" smooth="yes"/>
      <point x="527" y="165"/>
      <point x="489.794" y="104"/>
    </contour>
  </outline>
</glyph>
<glyph name="psi" format="2">
  <advance width="774"/>
  <unicode hex="03C8"/>
  <anchor x="387" y="656" name="topgr"/>
  <outline>
    <contour>
      <point x="388" y="-20" type="curve" smooth="yes"/>
      <point x="576" y="-20"/>
      <point x="718" y="70"/>
      <point x="718" y="206" type="curve" smooth="yes"/>
      <point x="718" y="500" type="line"/>
      <point x="553" y="500" type="line"/>
      <point x="553" y="247" type="line" smooth="yes"/>
      <point x="553" y="163"/>
      <point x="487" y="104"/>
      <point x="388" y="104" type="curve" smooth="yes"/>
      <point x="294" y="104"/>
      <point x="222" y="156"/>
      <point x="222" y="247" type="curve" smooth="yes"/>
      <point x="222" y="500" type="line"/>
      <point x="57" y="500" type="line"/>
      <point x="57" y="206" type="line" smooth="yes"/>
      <point x="57" y="70"/>
      <point x="198" y="-20"/>
    </contour>
    <contour>
      <point x="305" y="-200" type="line"/>
      <point x="470" y="-200" type="line"/>
      <point x="470" y="656" type="line"/>
      <point x="305" y="656" type="line"/>
    </contour>
  </outline>
</glyph>
<glyph name="omega" format="2">
  <advance width="794"/>
  <unicode hex="03C9"/>
  <anchor x="397" y="520" name="topgr"/>
  <outline>
    <contour>
      <point x="244" y="-20" type="curve" smooth="yes"/>
      <point x="316" y="-20"/>
      <point x="364" y="10"/>
      <point x="397" y="71" type="curve"/>
      <point x="430" y="10"/>
      <point x="478" y="-20"/>
      <point x="550" y="-20" type="curve" smooth="yes"/>
      <point x="685" y="-20"/>
      <point x="774" y="87"/>
      <point x="774" y="254" type="curve" smooth="yes"/>
      <point x="774" y="342"/>
      <point x="749" y="429"/>
      <point x="705" y="500" type="curve"/>
      <point x="535" y="500" type="line"/>
      <point x="578" y="431"/>
      <point x="609" y="356"/>
      <point x="609" y="253" type="curve" smooth="yes"/>
      <point x="609" y="165"/>
      <point x="588" y="103"/>
      <point x="538" y="103" type="curve" smooth="yes"/>
      <point x="502" y="103"/>
      <point x="479" y="129"/>
      <point x="479" y="206" type="curve" smooth="yes"/>
      <point x="479" y="361" type="line"/>
      <point x="314" y="361" type="line"/>
      <point x="314" y="206" type="line" smooth="yes"/>
      <point x="314" y="136"/>
      <point x="295" y="103"/>
      <point x="256" y="103" type="curve" smooth="yes"/>
      <point x="207" y="103"/>
      <point x="185" y="165"/>
      <point x="185" y="254" type="curve" smooth="yes"/>
      <point x="185" y="356"/>
      <point x="217" y="428"/>
      <point x="259" y="500" type="curve"/>
      <point x="88" y="500" type="line"/>
      <point x="43" y="422"/>
      <point x="20" y="342"/>
      <point x="20" y="257" type="curve" smooth="yes"/>
      <point x="20" y="87"/>
      <point x="109" y="-20"/>
    </contour>
  </outline>
</glyph>
<glyph name="uni03CF" format="2">
  <advance width="670"/>
  <unicode hex="03CF"/>
  <outline>
    <contour>
      <point x="467" y="0" type="line"/>
      <point x="659" y="0" type="line"/>
      <point x="447" y="367" type="line"/>
      <point x="655" y="700" type="line"/>
      <point x="481" y="700" type="line"/>
      <point x="320" y="421" type="line"/>
      <point x="117" y="421" type="line"/>
      <point x="106" y="287" type="line"/>
      <point x="308" y="287" type="line"/>
    </contour>
    <contour>
      <point x="338" y="-221" type="curve" smooth="yes"/>
      <point x="527" y="-221"/>
      <point x="659" y="-135"/>
      <point x="659" y="0" type="curve"/>
      <point x="547" y="17" type="line"/>
      <point x="467" y="0" type="line"/>
      <point x="467" y="-61"/>
      <point x="414" y="-91"/>
      <point x="308" y="-91" type="curve" smooth="yes"/>
      <point x="211" y="-91"/>
      <point x="125" y="-66"/>
      <point x="58" y="-10" type="curve"/>
      <point x="58" y="-125" type="line"/>
      <point x="115" y="-184"/>
      <point x="214" y="-221"/>
    </contour>
    <contour>
      <point x="58" y="0" type="line"/>
      <point x="224" y="0" type="line"/>
      <point x="224" y="700" type="line"/>
      <point x="58" y="700" type="line"/>
    </contour>
  </outline>
</glyph>
<glyph name="uni03D7" format="2">
  <advance width="594"/>
  <unicode hex="03D7"/>
  <outline>
    <contour>
      <point x="399" y="0" type="line" name="ab02"/>
      <point x="587" y="0" type="line"/>
      <point x="446" y="265" type="line"/>
      <point x="571" y="500" type="line" name="av02"/>
      <point x="408" y="500" type="line"/>
      <point x="323" y="318" type="line" name="iv02"/>
      <point x="119" y="318" type="line"/>
      <point x="120" y="199" type="line"/>
      <point x="306" y="199" type="line" name="iv01"/>
    </contour>
    <contour>
      <point x="225" y="-81" type="curve"/>
      <point x="225" y="-203" type="line"/>
      <point x="436" y="-203"/>
      <point x="587" y="-143"/>
      <point x="587" y="0" type="curve"/>
      <point x="399" y="1" type="line"/>
      <point x="399" y="-63"/>
      <point x="344" y="-81"/>
    </contour>
    <contour>
      <point x="64" y="0" type="line"/>
      <point x="229" y="0" type="line"/>
      <point x="229" y="500" type="line"/>
      <point x="64" y="500" type="line"/>
    </contour>
  </outline>
</glyph>
<glyph name="uni0404" format="2">
  <advance width="694"/>
  <unicode hex="0404"/>
  <anchor x="365" y="719" name="top"/>
  <outline>
    <contour>
      <point x="396" y="-20" type="curve" smooth="yes"/>
      <point x="516" y="-20"/>
      <point x="591" y="28"/>
      <point x="662" y="107" type="curve"/>
      <point x="567" y="202" type="line"/>
      <point x="518.266" y="144"/>
      <point x="455.609" y="110"/>
      <point x="389.967" y="110" type="curve" smooth="yes"/>
      <point x="277.582" y="110"/>
      <point x="201" y="209"/>
      <point x="201" y="358" type="curve" smooth="yes"/>
      <point x="201" y="499"/>
      <point x="269.622" y="589"/>
      <point x="383.992" y="589" type="curve" smooth="yes"/>
      <point x="450.625" y="589"/>
      <point x="515.268" y="559"/>
      <point x="564" y="501" type="curve"/>
      <point x="659" y="596" type="line"/>
      <point x="598" y="670"/>
      <point x="505" y="720"/>
      <point x="381" y="720" type="curve" smooth="yes"/>
      <point x="168" y="720"/>
      <point x="33" y="573"/>
      <point x="33" y="360" type="curve" smooth="yes"/>
      <point x="33" y="139"/>
      <point x="178" y="-20"/>
    </contour>
    <contour>
      <point x="494" y="293" type="line"/>
      <point x="494" y="423" type="line"/>
      <point x="149" y="423" type="line"/>
      <point x="149" y="293" type="line"/>
    </contour>
  </outline>
</glyph>
<glyph name="uni0409" format="2">
  <advance width="974"/>
  <unicode hex="0409"/>
  <outline>
    <contour>
      <point x="127" y="-20" type="curve" smooth="yes"/>
      <point x="258.822" y="-20"/>
      <point x="301.288" y="39.8"/>
      <point x="311.954" y="346.884" type="curve" smooth="yes"/>
      <point x="314.153" y="410.197"/>
      <point x="315" y="484.021"/>
      <point x="315" y="570" type="curve"/>
      <point x="467" y="570" type="line"/>
      <point x="467" y="0" type="line"/>
      <point x="695" y="0" type="line" smooth="yes"/>
      <point x="863" y="0"/>
      <point x="945" y="81.341"/>
      <point x="945" y="228.415" type="curve" smooth="yes"/>
      <point x="945" y="379.878"/>
      <point x="858" y="450"/>
      <point x="695" y="450" type="curve" smooth="yes"/>
      <point x="633" y="450" type="line"/>
      <point x="633" y="700" type="line"/>
      <point x="150" y="700" type="line"/>
      <point x="150" y="619.244"/>
      <point x="149.937" y="548.681"/>
      <point x="149.473" y="487.234" type="curve" smooth="yes"/>
      <point x="147.316" y="201.709"/>
      <point x="136.489" y="113"/>
      <point x="83" y="113" type="curve" smooth="yes"/>
      <point x="72" y="113"/>
      <point x="63" y="117"/>
      <point x="29" y="140" type="curve"/>
      <point x="1" y="9" type="line"/>
      <point x="42" y="-9"/>
      <point x="70" y="-20"/>
    </contour>
    <contour>
      <point x="640" y="130" type="curve" smooth="yes"/>
      <point x="633" y="130" type="line"/>
      <point x="633" y="320" type="line"/>
      <point x="640" y="320" type="line" smooth="yes"/>
      <point x="745" y="320"/>
      <point x="779" y="299.733"/>
      <point x="779" y="219.933" type="curve" smooth="yes"/>
      <point x="779" y="149"/>
      <point x="752" y="130"/>
    </contour>
  </outline>
</glyph>
<glyph name="uni040B" format="2">
  <advance width="752"/>
  <unicode hex="040B"/>
  <outline>
    <contour>
      <point x="162" y="0" type="line"/>
      <point x="328" y="0" type="line"/>
      <point x="328" y="570" type="line"/>
      <point x="562" y="570" type="line"/>
      <point x="562" y="700" type="line"/>
      <point x="21" y="700" type="line"/>
      <point x="21" y="570" type="line"/>
      <point x="162" y="570" type="line"/>
    </contour>
    <contour>
      <point x="527" y="265" type="curve" smooth="yes"/>
      <point x="527" y="0" type="line"/>
      <point x="693" y="0" type="line"/>
      <point x="693" y="271" type="line" smooth="yes"/>
      <point x="693" y="417"/>
      <point x="607" y="482"/>
      <point x="491" y="482" type="curve" smooth="yes"/>
      <point x="378" y="482"/>
      <point x="320" y="420"/>
      <point x="310" y="327" type="curve"/>
      <point x="328" y="211" type="line"/>
      <point x="328" y="303"/>
      <point x="369" y="353"/>
      <point x="444" y="353" type="curve" smooth="yes"/>
      <point x="493" y="353"/>
      <point x="527" y="332"/>
    </contour>
  </outline>
</glyph>
<glyph name="uni0411" format="2">
  <advance width="613"/>
  <unicode hex="0411"/>
  <outline>
    <contour>
      <point x="57" y="0" type="line"/>
      <point x="333" y="0" type="line" smooth="yes"/>
      <point x="494" y="0"/>
      <point x="584" y="95.118"/>
      <point x="584" y="225.011" type="curve" smooth="yes"/>
      <point x="584" y="355.927"/>
      <point x="493" y="449"/>
      <point x="332" y="449" type="curve" smooth="yes"/>
      <point x="223" y="449" type="line"/>
      <point x="223" y="700" type="line"/>
      <point x="57" y="700" type="line"/>
    </contour>
    <contour>
      <point x="293" y="130" type="curve" smooth="yes"/>
      <point x="223" y="130" type="line"/>
      <point x="223" y="318" type="line"/>
      <point x="293" y="318" type="line" smooth="yes"/>
      <point x="376" y="318"/>
      <point x="418" y="298.989"/>
      <point x="418" y="229.281" type="curve" smooth="yes"/>
      <point x="418" y="158.517"/>
      <point x="376" y="130"/>
    </contour>
    <contour>
      <point x="108" y="569" type="line"/>
      <point x="535" y="569" type="line"/>
      <point x="535" y="700" type="line"/>
      <point x="75" y="700" type="line"/>
      <point x="75" y="694" type="line"/>
    </contour>
  </outline>
</glyph>
<glyph name="uni0414" format="2">
  <advance width="864"/>
  <unicode hex="0414"/>
  <outline>
    <contour>
      <point x="20" y="-140" type="curve"/>
      <point x="153" y="-140" type="line"/>
      <point x="153" y="-47"/>
      <point x="150" y="0"/>
      <point x="209" y="0" type="curve" smooth="yes"/>
      <point x="648" y="0" type="line" smooth="yes"/>
      <point x="719" y="0"/>
      <point x="711" y="-42"/>
      <point x="711" y="-140" type="curve"/>
      <point x="844" y="-140" type="line"/>
      <point x="844" y="103"/>
      <point x="812" y="129"/>
      <point x="712" y="129" type="curve"/>
      <point x="712" y="700" type="line"/>
      <point x="233" y="700" type="line"/>
      <point x="233" y="671" type="line" smooth="yes"/>
      <point x="233" y="252"/>
      <point x="226" y="195"/>
      <point x="165" y="131" type="curve"/>
      <point x="65" y="131"/>
      <point x="20" y="103"/>
    </contour>
    <contour>
      <point x="308" y="130" type="line"/>
      <point x="383.22" y="191.62"/>
      <point x="396.84" y="239.35"/>
      <point x="398.73" y="570" type="curve"/>
      <point x="546" y="570" type="line"/>
      <point x="546" y="130" type="line"/>
    </contour>
  </outline>
</glyph>
<glyph name="uni0418" format="2">
  <advance width="752"/>
  <unicode hex="0418"/>
  <anchor x="376" y="-20" name="bottom"/>
  <anchor x="376" y="719" name="top"/>
  <outline>
    <contour>
      <point x="67" y="0" type="line"/>
      <point x="223" y="0" type="line"/>
      <point x="519" y="439" type="line"/>
      <point x="519" y="0" type="line"/>
      <point x="685" y="0" type="line"/>
      <point x="685" y="700" type="line"/>
      <point x="529" y="700" type="line"/>
      <point x="233" y="261" type="line"/>
      <point x="233" y="700" type="line"/>
      <point x="67" y="700" type="line"/>
    </contour>
  </outline>
</glyph>
<glyph name="uni041A" format="2">
  <advance width="640"/>
  <unicode hex="041A"/>
  <anchor x="320" y="-20" name="bottom"/>
  <anchor x="320" y="719" name="top"/>
  <outline>
    <contour>
      <point x="184" y="310" type="line"/>
      <point x="388" y="310" type="line" smooth="yes"/>
      <point x="482" y="310"/>
      <point x="549" y="356"/>
      <point x="563" y="470" type="curve"/>
      <point x="585" y="700" type="line"/>
      <point x="420" y="700" type="line"/>
      <point x="406" y="551" type="line" smooth="yes"/>
      <point x="398" y="466"/>
      <point x="378" y="440"/>
      <point x="320" y="440" type="curve" smooth="yes"/>
      <point x="184" y="440" type="line"/>
    </contour>
    <contour>
      <point x="58" y="0" type="line"/>
      <point x="223" y="0" type="line"/>
      <point x="223" y="700" type="line"/>
      <point x="58" y="700" type="line"/>
    </contour>
    <contour>
      <point x="455" y="0" type="line"/>
      <point x="629" y="0" type="line"/>
      <point x="503" y="346" type="line"/>
      <point x="335" y="329" type="line"/>
    </contour>
  </outline>
</glyph>
<glyph name="uni041B" format="2">
  <advance width="720"/>
  <unicode hex="041B"/>
  <outline>
    <contour>
      <point x="127" y="-20" type="curve" smooth="yes"/>
      <point x="244.412" y="-20"/>
      <point x="290.936" y="27.44"/>
      <point x="307.241" y="254.798" type="curve" smooth="yes"/>
      <point x="313.016" y="335.33"/>
      <point x="315" y="438.435"/>
      <point x="315" y="570" type="curve"/>
      <point x="498" y="570" type="line"/>
      <point x="498" y="0" type="line"/>
      <point x="663" y="0" type="line"/>
      <point x="663" y="700" type="line"/>
      <point x="150" y="700" type="line"/>
      <point x="150" y="544.725"/>
      <point x="149.768" y="427.133"/>
      <point x="146.896" y="339.567" type="curve" smooth="yes"/>
      <point x="141.333" y="169.974"/>
      <point x="125.866" y="113"/>
      <point x="83" y="113" type="curve" smooth="yes"/>
      <point x="72" y="113"/>
      <point x="63" y="117"/>
      <point x="29" y="140" type="curve"/>
      <point x="1" y="9" type="line"/>
      <point x="42" y="-9"/>
      <point x="70" y="-20"/>
    </contour>
  </outline>
</glyph>
<glyph name="uni0423" format="2">
  <advance width="612"/>
  <unicode hex="0423"/>
  <anchor x="317" y="-20" name="bottom"/>
  <anchor x="306" y="719" name="top"/>
  <outline>
    <contour>
      <point x="81" y="44" type="curve"/>
      <point x="81" y="-86" type="line"/>
      <point x="230" y="-86"/>
      <point x="315" y="-54"/>
      <point x="349" y="36" type="curve" smooth="yes"/>
      <point x="604" y="700" type="line"/>
      <point x="426" y="700" type="line"/>
      <point x="236" y="150" type="line" smooth="yes"/>
      <point x="212.037" y="80.633"/>
      <point x="167" y="44"/>
    </contour>
    <contour>
      <point x="213" y="138" type="line"/>
      <point x="266" y="138" type="line"/>
      <point x="366" y="142" type="line"/>
      <point x="184" y="700" type="line"/>
      <point x="8" y="700" type="line"/>
    </contour>
  </outline>
</glyph>
<glyph name="uni0424" format="2">
  <advance width="836"/>
  <unicode hex="0424"/>
  <outline>
    <contour>
      <point x="335" y="60" type="curve"/>
      <point x="335" y="-20" type="line"/>
      <point x="501" y="-20" type="line"/>
      <point x="501" y="60" type="line"/>
      <point x="669" y="60"/>
      <point x="798" y="179"/>
      <point x="798" y="354" type="curve" smooth="yes"/>
      <point x="798" y="527"/>
      <point x="671" y="642"/>
      <point x="501" y="642" type="curve"/>
      <point x="501" y="722" type="line"/>
      <point x="335" y="722" type="line"/>
      <point x="335" y="642" type="line"/>
      <point x="165" y="642"/>
      <point x="38" y="527"/>
      <point x="38" y="354" type="curve" smooth="yes"/>
      <point x="38" y="179"/>
      <point x="167" y="60"/>
    </contour>
    <contour>
      <point x="335" y="512" type="curve"/>
      <point x="335" y="190" type="line"/>
      <point x="263" y="190"/>
      <point x="205" y="254"/>
      <point x="205" y="356" type="curve" smooth="yes"/>
      <point x="205" y="455"/>
      <point x="260" y="512"/>
    </contour>
    <contour>
      <point x="501" y="190" type="curve"/>
      <point x="501" y="512" type="line"/>
      <point x="576" y="512"/>
      <point x="631" y="455"/>
      <point x="631" y="356" type="curve" smooth="yes"/>
      <point x="631" y="254"/>
      <point x="573" y="190"/>
    </contour>
  </outline>
</glyph>
<glyph name="uni0426" format="2">
  <advance width="760"/>
  <unicode hex="0426"/>
  <outline>
    <contour>
      <point x="606" y="-140" type="curve"/>
      <point x="739" y="-140" type="line"/>
      <point x="739" y="98"/>
      <point x="707" y="130"/>
      <point x="607" y="130" type="curve"/>
      <point x="607" y="701" type="line"/>
      <point x="441" y="701" type="line"/>
      <point x="441" y="130" type="line"/>
      <point x="233" y="130" type="line"/>
      <point x="233" y="701" type="line"/>
      <point x="67" y="701" type="line"/>
      <point x="67" y="0" type="line"/>
      <point x="543" y="0" type="line" smooth="yes"/>
      <point x="614" y="0"/>
      <point x="606" y="-42"/>
    </contour>
  </outline>
</glyph>
<glyph name="uni0427" format="2">
  <advance width="674"/>
  <unicode hex="0427"/>
  <anchor x="337" y="719" name="top"/>
  <outline>
    <contour>
      <point x="271" y="193" type="curve" smooth="yes"/>
      <point x="391" y="193"/>
      <point x="443" y="262"/>
      <point x="453" y="355" type="curve"/>
      <point x="441" y="464" type="line"/>
      <point x="441" y="372"/>
      <point x="400" y="322"/>
      <point x="325" y="322" type="curve" smooth="yes"/>
      <point x="266" y="322"/>
      <point x="226" y="353"/>
      <point x="226" y="470" type="curve" smooth="yes"/>
      <point x="226" y="700" type="line"/>
      <point x="60" y="700" type="line"/>
      <point x="60" y="414" type="line" smooth="yes"/>
      <point x="60" y="268"/>
      <point x="139" y="193"/>
    </contour>
    <contour>
      <point x="441" y="0" type="line"/>
      <point x="607" y="0" type="line"/>
      <point x="607" y="700" type="line"/>
      <point x="441" y="700" type="line"/>
    </contour>
  </outline>
</glyph>
<glyph name="uni0428" format="2">
  <advance width="970"/>
  <unicode hex="0428"/>
  <outline>
    <contour>
      <point x="67" y="0" type="line"/>
      <point x="903" y="0" type="line"/>
      <point x="903" y="700" type="line"/>
      <point x="737" y="700" type="line"/>
      <point x="737" y="130" type="line"/>
      <point x="568" y="130" type="line"/>
      <point x="568" y="700" type="line"/>
      <point x="402" y="700" type="line"/>
      <point x="402" y="130" type="line"/>
      <point x="233" y="130" type="line"/>
      <point x="233" y="700" type="line"/>
      <point x="67" y="700" type="line"/>
    </contour>
  </outline>
</glyph>
<glyph name="uni042A" format="2">
  <advance width="735"/>
  <unicode hex="042A"/>
  <outline>
    <contour>
      <point x="169" y="0" type="line"/>
      <point x="445" y="0" type="line" smooth="yes"/>
      <point x="606" y="0"/>
      <point x="696" y="97.237"/>
      <point x="696" y="230.023" type="curve" smooth="yes"/>
      <point x="696" y="363.854"/>
      <point x="605" y="459"/>
      <point x="444" y="459" type="curve" smooth="yes"/>
      <point x="335" y="459" type="line"/>
      <point x="335" y="700" type="line"/>
      <point x="169" y="700" type="line"/>
    </contour>
    <contour>
      <point x="21" y="569" type="line"/>
      <point x="194" y="569" type="line"/>
      <point x="227" y="694" type="line"/>
      <point x="227" y="700" type="line"/>
      <point x="21" y="700" type="line"/>
    </contour>
    <contour>
      <point x="405" y="130" type="curve" smooth="yes"/>
      <point x="335" y="130" type="line"/>
      <point x="335" y="328" type="line"/>
      <point x="405" y="328" type="line" smooth="yes"/>
      <point x="488" y="328"/>
      <point x="530" y="304.978"/>
      <point x="530" y="231.562" type="curve" smooth="yes"/>
      <point x="530" y="157.034"/>
      <point x="488" y="130"/>
    </contour>
  </outline>
</glyph>
<glyph name="uni042F" format="2">
  <advance width="648"/>
  <unicode hex="042F"/>
  <anchor x="324" y="-20" name="bottom"/>
  <anchor x="324" y="719" name="top"/>
  <outline>
    <contour>
      <point x="424.5" y="0" type="line"/>
      <point x="589.5" y="0" type="line"/>
      <point x="589.5" y="700" type="line"/>
      <point x="302.513" y="700" type="line" smooth="yes"/>
      <point x="135.445" y="700"/>
      <point x="35" y="615"/>
      <point x="35" y="476" type="curve" smooth="yes"/>
      <point x="35" y="334"/>
      <point x="139.806" y="244"/>
      <point x="303.179" y="244" type="curve" smooth="yes"/>
      <point x="558" y="244" type="line"/>
      <point x="558" y="374" type="line"/>
      <point x="333.988" y="374" type="line" smooth="yes"/>
      <point x="233.497" y="374"/>
      <point x="200" y="407"/>
      <point x="200" y="472" type="curve" smooth="yes"/>
      <point x="200" y="537"/>
      <point x="234.538" y="570"/>
      <point x="338.154" y="570" type="curve" smooth="yes"/>
      <point x="424.5" y="570" type="line"/>
    </contour>
    <contour>
      <point x="31" y="0" type="line"/>
      <point x="209" y="0" type="line"/>
      <point x="372" y="281" type="line"/>
      <point x="221" y="333" type="line"/>
    </contour>
  </outline>
</glyph>
<glyph name="uni0434" format="2">
  <advance width="760"/>
  <unicode hex="0434"/>
  <anchor x="399" y="-20" name="bottom"/>
  <anchor x="400" y="520" name="top"/>
  <outline>
    <contour>
      <point x="15" y="-140" type="curve"/>
      <point x="142" y="-140" type="line"/>
      <point x="143" y="-107"/>
      <point x="129" y="0"/>
      <point x="188" y="0" type="curve" smooth="yes"/>
      <point x="568" y="0" type="line" smooth="yes"/>
      <point x="639" y="0"/>
      <point x="620" y="-102"/>
      <point x="620" y="-140" type="curve"/>
      <point x="746" y="-140" type="line"/>
      <point x="746" y="69"/>
      <point x="722" y="129"/>
      <point x="625" y="129" type="curve"/>
      <point x="625" y="500" type="line"/>
      <point x="186" y="500" type="line"/>
      <point x="186" y="331" type="line" smooth="yes"/>
      <point x="186" y="200"/>
      <point x="173" y="160"/>
      <point x="149" y="131" type="curve"/>
      <point x="46" y="131"/>
      <point x="15" y="62"/>
    </contour>
    <contour>
      <point x="258" y="130" type="line"/>
      <point x="335.726" y="142.934"/>
      <point x="345" y="169.813"/>
      <point x="345" y="370" type="curve"/>
      <point x="460" y="370" type="line"/>
      <point x="460" y="130" type="line"/>
    </contour>
  </outline>
</glyph>
<glyph name="uni0437" format="2">
  <advance width="495"/>
  <unicode hex="0437"/>
  <anchor x="280" y="-20" name="bottom"/>
  <anchor x="250" y="520" name="top"/>
  <outline>
    <contour>
      <point x="234" y="-20" type="curve" smooth="yes"/>
      <point x="377" y="-20"/>
      <point x="475" y="48"/>
      <point x="475" y="151" type="curve" smooth="yes"/>
      <point x="475" y="228.806"/>
      <point x="415.022" y="275"/>
      <point x="314" y="275" type="curve"/>
      <point x="398.455" y="275"/>
      <point x="448" y="315.302"/>
      <point x="448" y="384" type="curve" smooth="yes"/>
      <point x="448" y="468"/>
      <point x="370" y="520"/>
      <point x="247" y="520" type="curve" smooth="yes"/>
      <point x="163" y="520"/>
      <point x="75" y="496"/>
      <point x="29" y="427" type="curve"/>
      <point x="119" y="337" type="line"/>
      <point x="150" y="378"/>
      <point x="188" y="397"/>
      <point x="235" y="397" type="curve" smooth="yes"/>
      <point x="269" y="397"/>
      <point x="285" y="387"/>
      <point x="285" y="362" type="curve" smooth="yes"/>
      <point x="285" y="329"/>
      <point x="257" y="320"/>
      <point x="179" y="315" type="curve"/>
      <point x="179" y="209" type="line"/>
      <point x="274" y="219"/>
      <point x="312" y="207"/>
      <point x="312" y="163" type="curve" smooth="yes"/>
      <point x="312" y="124"/>
      <point x="281" y="104"/>
      <point x="228" y="104" type="curve" smooth="yes"/>
      <point x="180" y="104"/>
      <point x="143" y="121"/>
      <point x="108" y="170" type="curve"/>
      <point x="18" y="80" type="line"/>
      <point x="58" y="11"/>
      <point x="137" y="-20"/>
    </contour>
  </outline>
</glyph>
<glyph name="uni0438" format="2">
  <advance width="609"/>
  <unicode hex="0438"/>
  <anchor x="305" y="-20" name="bottom"/>
  <anchor x="305" y="520" name="top"/>
  <outline>
    <contour>
      <point x="43" y="0" type="line"/>
      <point x="193" y="0" type="line"/>
      <point x="406" y="273" type="line"/>
      <point x="406" y="0" type="line"/>
      <point x="566" y="0" type="line"/>
      <point x="566" y="500" type="line"/>
      <point x="416" y="500" type="line"/>
      <point x="203" y="227" type="line"/>
      <point x="203" y="500" type="line"/>
      <point x="43" y="500" type="line"/>
    </contour>
  </outline>
</glyph>
<glyph name="uni043A" format="2">
  <advance width="588"/>
  <unicode hex="043A"/>
  <anchor x="288" y="-20" name="bottom"/>
  <anchor x="288" y="520" name="top"/>
  <outline>
    <contour>
      <point x="215" y="205" type="line"/>
      <point x="381" y="205" type="line" smooth="yes"/>
      <point x="461" y="205"/>
      <point x="515" y="252"/>
      <point x="526" y="334" type="curve"/>
      <point x="543" y="500" type="line"/>
      <point x="390" y="500" type="line"/>
      <point x="379" y="392.775" type="line" smooth="yes"/>
      <point x="373" y="342.197"/>
      <point x="359" y="325"/>
      <point x="303" y="325" type="curve" smooth="yes"/>
      <point x="215" y="325" type="line"/>
    </contour>
    <contour>
      <point x="64" y="0" type="line"/>
      <point x="229" y="0" type="line"/>
      <point x="229" y="500" type="line"/>
      <point x="64" y="500" type="line"/>
    </contour>
    <contour>
      <point x="411" y="0" type="line"/>
      <point x="581" y="0" type="line"/>
      <point x="473" y="247" type="line"/>
      <point x="309" y="235" type="line"/>
    </contour>
  </outline>
</glyph>
<glyph name="uni043B" format="2">
  <advance width="590"/>
  <unicode hex="043B"/>
  <outline>
    <contour>
      <point x="90" y="-20" type="curve" smooth="yes"/>
      <point x="213" y="-20"/>
      <point x="271" y="48"/>
      <point x="271" y="370" type="curve"/>
      <point x="381" y="370" type="line"/>
      <point x="381" y="0" type="line"/>
      <point x="546" y="0" type="line"/>
      <point x="546" y="500" type="line"/>
      <point x="107" y="500" type="line"/>
      <point x="107" y="180"/>
      <point x="99" y="103"/>
      <point x="55" y="103" type="curve" smooth="yes"/>
      <point x="49" y="103"/>
      <point x="41" y="104"/>
      <point x="30" y="106" type="curve"/>
      <point x="5" y="-9" type="line"/>
      <point x="26" y="-16"/>
      <point x="46" y="-20"/>
    </contour>
  </outline>
</glyph>
<glyph name="uni043C" format="2">
  <advance width="689"/>
  <unicode hex="043C"/>
  <outline>
    <contour>
      <point x="43" y="0" type="line"/>
      <point x="198" y="0" type="line"/>
      <point x="198" y="277" type="line"/>
      <point x="311" y="89" type="line"/>
      <point x="378" y="89" type="line"/>
      <point x="491" y="277" type="line"/>
      <point x="491" y="0" type="line"/>
      <point x="646" y="0" type="line"/>
      <point x="646" y="500" type="line"/>
      <point x="498" y="500" type="line"/>
      <point x="345" y="246" type="line"/>
      <point x="192" y="500" type="line"/>
      <point x="43" y="500" type="line"/>
    </contour>
  </outline>
</glyph>
<glyph name="uni043D" format="2">
  <advance width="593"/>
  <unicode hex="043D"/>
  <anchor x="296" y="-20" name="bottom"/>
  <anchor x="296" y="520" name="top"/>
  <outline>
    <contour>
      <point x="43" y="0" type="line"/>
      <point x="208" y="0" type="line"/>
      <point x="208" y="189" type="line"/>
      <point x="385" y="189" type="line"/>
      <point x="385" y="0" type="line"/>
      <point x="550" y="0" type="line"/>
      <point x="550" y="500" type="line"/>
      <point x="385" y="500" type="line"/>
      <point x="385" y="319" type="line"/>
      <point x="208" y="319" type="line"/>
      <point x="208" y="500" type="line"/>
      <point x="43" y="500" type="line"/>
    </contour>
  </outline>
</glyph>
<glyph name="uni043F" format="2">
  <advance width="618"/>
  <unicode hex="043F"/>
  <anchor x="309" y="-20" name="bottom"/>
  <anchor x="309" y="520" name="top"/>
  <outline>
    <contour>
      <point x="53" y="0" type="line"/>
      <point x="218" y="0" type="line"/>
      <point x="218" y="370" type="line"/>
      <point x="400" y="370" type="line"/>
      <point x="400" y="0" type="line"/>
      <point x="565" y="0" type="line"/>
      <point x="565" y="500" type="line"/>
      <point x="53" y="500" type="line"/>
    </contour>
  </outline>
</glyph>
<glyph name="uni0442" format="2">
  <advance width="525"/>
  <unicode hex="0442"/>
  <anchor x="262" y="-20" name="bottom"/>
  <anchor x="263" y="520" name="top"/>
  <outline>
    <contour>
      <point x="180" y="0" type="line"/>
      <point x="345" y="0" type="line"/>
      <point x="345" y="380" type="line"/>
      <point x="503" y="380" type="line"/>
      <point x="503" y="500" type="line"/>
      <point x="22" y="500" type="line"/>
      <point x="22" y="380" type="line"/>
      <point x="180" y="380" type="line"/>
    </contour>
  </outline>
</glyph>
<glyph name="uni0444" format="2">
  <advance width="806"/>
  <unicode hex="0444"/>
  <outline>
    <contour>
      <point x="524" y="-20" type="curve" smooth="yes"/>
      <point x="685" y="-20"/>
      <point x="786" y="89"/>
      <point x="786" y="255" type="curve" smooth="yes"/>
      <point x="786" y="429"/>
      <point x="675" y="520"/>
      <point x="522" y="520" type="curve" smooth="yes"/>
      <point x="423" y="520"/>
      <point x="348" y="488"/>
      <point x="298" y="427" type="curve"/>
      <point x="383" y="342" type="line"/>
      <point x="410" y="377"/>
      <point x="461" y="396"/>
      <point x="508" y="396" type="curve" smooth="yes"/>
      <point x="582" y="396"/>
      <point x="621" y="349"/>
      <point x="621" y="254" type="curve" smooth="yes"/>
      <point x="621" y="155"/>
      <point x="586" y="104"/>
      <point x="507" y="104" type="curve" smooth="yes"/>
      <point x="456" y="104"/>
      <point x="406" y="123"/>
      <point x="379" y="158" type="curve"/>
      <point x="294" y="73" type="line"/>
      <point x="344" y="12"/>
      <point x="422" y="-20"/>
    </contour>
    <contour>
      <point x="282" y="-20" type="curve" smooth="yes"/>
      <point x="384" y="-20"/>
      <point x="462" y="12"/>
      <point x="512" y="73" type="curve"/>
      <point x="427" y="158" type="line"/>
      <point x="400" y="123"/>
      <point x="350" y="104"/>
      <point x="299" y="104" type="curve" smooth="yes"/>
      <point x="220" y="104"/>
      <point x="185" y="155"/>
      <point x="185" y="254" type="curve" smooth="yes"/>
      <point x="185" y="349"/>
      <point x="224" y="396"/>
      <point x="298" y="396" type="curve" smooth="yes"/>
      <point x="345" y="396"/>
      <point x="396" y="377"/>
      <point x="423" y="342" type="curve"/>
      <point x="508" y="427" type="line"/>
      <point x="458" y="488"/>
      <point x="383" y="520"/>
      <point x="284" y="520" type="curve" smooth="yes"/>
      <point x="131" y="520"/>
      <point x="20" y="429"/>
      <point x="20" y="255" type="curve" smooth="yes"/>
      <point x="20" y="89"/>
      <point x="121" y="-20"/>
    </contour>
    <contour>
      <point x="320" y="-200" type="line"/>
      <point x="485" y="-200" type="line"/>
      <point x="485" y="750" type="line"/>
      <point x="320" y="750" type="line"/>
    </contour>
  </outline>
</glyph>
<glyph name="uni0449" format="2">
  <advance width="944"/>
  <unicode hex="0449"/>
  <outline>
    <contour>
      <point x="818" y="-140" type="curve"/>
      <point x="935" y="-140" type="line"/>
      <point x="935" y="61.226"/>
      <point x="914.175" y="130"/>
      <point x="816" y="130" type="curve"/>
      <point x="816" y="500" type="line"/>
      <point x="651" y="500" type="line"/>
      <point x="651" y="130" type="line"/>
      <point x="512" y="130" type="line"/>
      <point x="512" y="500" type="line"/>
      <point x="347" y="500" type="line"/>
      <point x="347" y="130" type="line"/>
      <point x="208" y="130" type="line"/>
      <point x="208" y="500" type="line"/>
      <point x="43" y="500" type="line"/>
      <point x="43" y="0" type="line"/>
      <point x="764" y="0" type="line" smooth="yes"/>
      <point x="832" y="0"/>
      <point x="818" y="-102"/>
    </contour>
  </outline>
</glyph>
<glyph name="uni044A" format="2">
  <advance width="580"/>
  <unicode hex="044A"/>
  <outline>
    <contour>
      <point x="107" y="0" type="line"/>
      <point x="364" y="0" type="line" smooth="yes"/>
      <point x="501" y="0"/>
      <point x="558" y="85.263"/>
      <point x="558" y="180" type="curve" smooth="yes"/>
      <point x="558" y="274.737"/>
      <point x="498" y="360"/>
      <point x="363" y="360" type="curve" smooth="yes"/>
      <point x="158" y="360" type="line"/>
      <point x="158" y="240" type="line"/>
      <point x="314" y="240" type="line" smooth="yes"/>
      <point x="370" y="240"/>
      <point x="393" y="225.306"/>
      <point x="393" y="180" type="curve" smooth="yes"/>
      <point x="393" y="137.143"/>
      <point x="369" y="120"/>
      <point x="314" y="120" type="curve" smooth="yes"/>
      <point x="272" y="120" type="line"/>
      <point x="272" y="500" type="line"/>
      <point x="107" y="500" type="line"/>
    </contour>
    <contour>
      <point x="11" y="378" type="line"/>
      <point x="169" y="378" type="line"/>
      <point x="202" y="497" type="line"/>
      <point x="202" y="500" type="line"/>
      <point x="11" y="500" type="line"/>
    </contour>
  </outline>
</glyph>
<glyph name="uni044C" format="2">
  <advance width="516"/>
  <unicode hex="044C"/>
  <anchor x="258" y="-20" name="bottom"/>
  <anchor x="258" y="520" name="top"/>
  <outline>
    <contour>
      <point x="43" y="0" type="line"/>
      <point x="299.497" y="0" type="line" smooth="yes"/>
      <point x="438.971" y="0"/>
      <point x="494" y="85.263"/>
      <point x="494" y="180" type="curve" smooth="yes"/>
      <point x="494" y="274.737"/>
      <point x="435.776" y="360"/>
      <point x="298.02" y="360" type="curve" smooth="yes"/>
      <point x="94" y="360" type="line"/>
      <point x="94" y="242" type="line"/>
      <point x="267.123" y="242" type="line" smooth="yes"/>
      <point x="310.837" y="242"/>
      <point x="334" y="226.694"/>
      <point x="334" y="179.5" type="curve" smooth="yes"/>
      <point x="334" y="134.857"/>
      <point x="308.668" y="117"/>
      <point x="264.194" y="117" type="curve" smooth="yes"/>
      <point x="204" y="117" type="line"/>
      <point x="204" y="500" type="line"/>
      <point x="43" y="500" type="line"/>
    </contour>
  </outline>
</glyph>
<glyph name="uni044D" format="2">
  <advance width="563"/>
  <unicode hex="044D"/>
  <anchor x="301" y="-20" name="bottom"/>
  <anchor x="281" y="520" name="top"/>
  <outline>
    <contour>
      <point x="259" y="-20" type="curve" smooth="yes"/>
      <point x="420" y="-20"/>
      <point x="521" y="89"/>
      <point x="521" y="255" type="curve" smooth="yes"/>
      <point x="521" y="429"/>
      <point x="410" y="520"/>
      <point x="257" y="520" type="curve" smooth="yes"/>
      <point x="158" y="520"/>
      <point x="83" y="488"/>
      <point x="33" y="427" type="curve"/>
      <point x="118" y="342" type="line"/>
      <point x="145" y="377"/>
      <point x="196" y="396"/>
      <point x="243" y="396" type="curve" smooth="yes"/>
      <point x="317" y="396"/>
      <point x="356" y="349"/>
      <point x="356" y="254" type="curve" smooth="yes"/>
      <point x="356" y="155"/>
      <point x="321" y="104"/>
      <point x="242" y="104" type="curve" smooth="yes"/>
      <point x="191" y="104"/>
      <point x="141" y="123"/>
      <point x="114" y="158" type="curve"/>
      <point x="29" y="73" type="line"/>
      <point x="79" y="12"/>
      <point x="157" y="-20"/>
    </contour>
    <contour>
      <point x="148" y="200" type="line"/>
      <point x="422" y="200" type="line"/>
      <point x="422" y="304" type="line"/>
      <point x="148" y="304" type="line"/>
    </contour>
  </outline>
</glyph>
<glyph name="uni044F" format="2">
  <advance width="540"/>
  <unicode hex="044F"/>
  <anchor x="270" y="-20" name="bottom"/>
  <anchor x="270" y="520" name="top"/>
  <outline>
    <contour>
      <point x="115" y="196" type="curve"/>
      <point x="15" y="0" type="line"/>
      <point x="188" y="0" type="line"/>
      <point x="270" y="162" type="line"/>
      <point x="332" y="162" type="line"/>
      <point x="332" y="0" type="line"/>
      <point x="497" y="0" type="line"/>
      <point x="497" y="500" type="line"/>
      <point x="239" y="500" type="line" smooth="yes"/>
      <point x="94" y="500"/>
      <point x="25" y="437"/>
      <point x="25" y="341" type="curve" smooth="yes"/>
      <point x="25" y="271"/>
      <point x="61" y="227"/>
    </contour>
    <contour>
      <point x="258" y="278" type="line"/>
      <point x="214" y="278"/>
      <point x="190" y="291.553"/>
      <point x="190" y="332.043" type="curve" smooth="yes"/>
      <point x="190" y="370.489"/>
      <point x="214" y="383"/>
      <point x="258" y="383" type="curve" smooth="yes"/>
      <point x="332" y="383" type="line"/>
      <point x="332" y="278" type="line"/>
    </contour>
  </outline>
</glyph>
<glyph name="uni0454" format="2">
  <advance width="563"/>
  <unicode hex="0454"/>
  <anchor x="249" y="-20" name="bottom"/>
  <anchor x="269" y="520" name="top"/>
  <outline>
    <contour>
      <point x="291" y="-20" type="curve" smooth="yes"/>
      <point x="393" y="-20"/>
      <point x="471" y="12"/>
      <point x="521" y="73" type="curve"/>
      <point x="436" y="158" type="line"/>
      <point x="409" y="123"/>
      <point x="359" y="104"/>
      <point x="308" y="104" type="curve" smooth="yes"/>
      <point x="229" y="104"/>
      <point x="194" y="155"/>
      <point x="194" y="254" type="curve" smooth="yes"/>
      <point x="194" y="349"/>
      <point x="233" y="396"/>
      <point x="307" y="396" type="curve" smooth="yes"/>
      <point x="354" y="396"/>
      <point x="405" y="377"/>
      <point x="432" y="342" type="curve"/>
      <point x="517" y="427" type="line"/>
      <point x="467" y="488"/>
      <point x="392" y="520"/>
      <point x="293" y="520" type="curve" smooth="yes"/>
      <point x="140" y="520"/>
      <point x="29" y="429"/>
      <point x="29" y="255" type="curve" smooth="yes"/>
      <point x="29" y="89"/>
      <point x="130" y="-20"/>
    </contour>
    <contour>
      <point x="402" y="200" type="line"/>
      <point x="402" y="304" type="line"/>
      <point x="128" y="304" type="line"/>
      <point x="128" y="200" type="line"/>
    </contour>
  </outline>
</glyph>
<glyph name="uni0457" format="2">
  <advance width="272"/>
  <unicode hex="0457"/>
  <anchor x="136" y="-20" name="bottom"/>
  <anchor x="212" y="-3" name="ogonek"/>
  <anchor x="136" y="689" name="top"/>
  <outline>
    <contour>
      <point x="54" y="0" type="line"/>
      <point x="219" y="0" type="line"/>
      <point x="219" y="500" type="line"/>
      <point x="54" y="500" type="line"/>
    </contour>
    <contour>
      <point x="35.716" y="552.693" type="curve" smooth="yes"/>
      <point x="88.228" y="552.693"/>
      <point x="115.866" y="592.307"/>
      <point x="115.866" y="631" type="curve" smooth="yes"/>
      <point x="115.866" y="672.457"/>
      <point x="88.228" y="709.307"/>
      <point x="35.716" y="709.307" type="curve" smooth="yes"/>
      <point x="-18.638" y="709.307"/>
      <point x="-47.197" y="667.85"/>
      <point x="-47.197" y="631" type="curve" smooth="yes"/>
      <point x="-47.197" y="595.992"/>
      <point x="-18.638" y="552.693"/>
    </contour>
    <contour>
      <point x="237.126" y="552.693" type="curve" smooth="yes"/>
      <point x="289.638" y="552.693"/>
      <point x="318.197" y="592.307"/>
      <point x="318.197" y="631" type="curve" smooth="yes"/>
      <point x="318.197" y="672.457"/>
      <point x="289.638" y="709.307"/>
      <point x="237.126" y="709.307" type="curve" smooth="yes"/>
      <point x="182.772" y="709.307"/>
      <point x="155.134" y="667.85"/>
      <point x="155.134" y="631" type="curve" smooth="yes"/>
      <point x="155.134" y="595.992"/>
      <point x="182.772" y="552.693"/>
    </contour>
  </outline>
</glyph>
<glyph name="uni045A" format="2">
  <advance width="810"/>
  <unicode hex="045A"/>
  <outline>
    <contour>
      <point x="43" y="0" type="line"/>
      <point x="208" y="0" type="line"/>
      <point x="208" y="211" type="line"/>
      <point x="349" y="211" type="line"/>
      <point x="349" y="0" type="line"/>
      <point x="514" y="0" type="line"/>
      <point x="514" y="500" type="line"/>
      <point x="349" y="500" type="line"/>
      <point x="349" y="331" type="line"/>
      <point x="208" y="331" type="line"/>
      <point x="208" y="500" type="line"/>
      <point x="43" y="500" type="line"/>
    </contour>
    <contour>
      <point x="353" y="0" type="line"/>
      <point x="607" y="0" type="line" smooth="yes"/>
      <point x="727" y="0"/>
      <point x="790" y="56.408"/>
      <point x="790" y="167.096" type="curve" smooth="yes"/>
      <point x="790" y="276.72"/>
      <point x="728" y="331"/>
      <point x="606" y="331" type="curve" smooth="yes"/>
      <point x="439" y="331" type="line"/>
      <point x="439" y="211" type="line"/>
      <point x="577.043" y="211" type="line" smooth="yes"/>
      <point x="613.925" y="211"/>
      <point x="635" y="193.731"/>
      <point x="635" y="167.164" type="curve" smooth="yes"/>
      <point x="635" y="139.269"/>
      <point x="612.205" y="122"/>
      <point x="572.043" y="122" type="curve" smooth="yes"/>
      <point x="508" y="122" type="line"/>
      <point x="508" y="500" type="line"/>
      <point x="353" y="500" type="line"/>
    </contour>
  </outline>
</glyph>
<glyph name="uni045F" format="2">
  <advance width="605"/>
  <unicode hex="045F"/>
  <outline>
    <contour>
      <point x="251" y="-141" type="curve"/>
      <point x="363" y="-141" type="line"/>
      <point x="379" y="-88"/>
      <point x="375" y="-52"/>
      <point x="357" y="0" type="curve"/>
      <point x="552" y="0" type="line"/>
      <point x="552" y="500" type="line"/>
      <point x="387" y="500" type="line"/>
      <point x="387" y="122" type="line"/>
      <point x="218" y="122" type="line"/>
      <point x="218" y="500" type="line"/>
      <point x="53" y="500" type="line"/>
      <point x="53" y="0" type="line"/>
      <point x="247" y="0" type="line"/>
      <point x="262" y="-42"/>
      <point x="260" y="-97"/>
    </contour>
  </outline>
</glyph>
<glyph name="uni0490" format="2">
  <advance width="557"/>
  <unicode hex="0490"/>
  <outline>
    <contour>
      <point x="67" y="0" type="line"/>
      <point x="233" y="0" type="line"/>
      <point x="233" y="570" type="line"/>
      <point x="343" y="570" type="line" smooth="yes"/>
      <point x="502" y="570"/>
      <point x="547" y="624"/>
      <point x="547" y="814" type="curve"/>
      <point x="414" y="814" type="line"/>
      <point x="414" y="720"/>
      <point x="397" y="700"/>
      <point x="342" y="700" type="curve" smooth="yes"/>
      <point x="67" y="700" type="line"/>
    </contour>
  </outline>
</glyph>
<glyph name="uni0491" format="2">
  <advance width="510"/>
  <unicode hex="0491"/>
  <outline>
    <contour>
      <point x="53" y="0" type="line"/>
      <point x="218" y="0" type="line"/>
      <point x="218" y="378" type="line"/>
      <point x="364" y="378" type="line" smooth="yes"/>
      <point x="470" y="378"/>
      <point x="493" y="436"/>
      <point x="493" y="638" type="curve"/>
      <point x="371" y="638" type="line"/>
      <point x="371" y="601"/>
      <point x="373" y="500"/>
      <point x="321" y="500" type="curve" smooth="yes"/>
      <point x="53" y="500" type="line"/>
    </contour>
  </outline>
</glyph>
<glyph name="uni1E9E" format="2">
  <advance width="715"/>
  <unicode hex="1E9E"/>
  <outline>
    <contour>
      <point x="475.736" y="-20" type="curve" smooth="yes"/>
      <point x="640.447" y="-20"/>
      <point x="696" y="81"/>
      <point x="696" y="170" type="curve" smooth="yes"/>
      <point x="696" y="352"/>
      <point x="509" y="338"/>
      <point x="509" y="413" type="curve" smooth="yes"/>
      <point x="509" y="445"/>
      <point x="524.614" y="473.827"/>
      <point x="540" y="495" type="curve" smooth="yes"/>
      <point x="645.80426" y="640.60232" type="line"/>
      <point x="580.60229" y="683.54003"/>
      <point x="490.31147" y="720"/>
      <point x="357.038" y="720" type="curve" smooth="yes"/>
      <point x="157.92" y="720"/>
      <point x="50" y="638.806"/>
      <point x="50" y="489" type="curve"/>
      <point x="50" y="0" type="line"/>
      <point x="216" y="0" type="line"/>
      <point x="216" y="456.335" type="line" smooth="yes"/>
      <point x="216" y="557.006"/>
      <point x="247.668" y="589"/>
      <point x="370.41" y="589" type="curve" smooth="yes"/>
      <point x="399.617" y="589"/>
      <point x="430.528" y="584.498"/>
      <point x="449.103" y="573.656" type="curve"/>
      <point x="433.451" y="591.689" type="line"/>
      <point x="393.911" y="540.675" type="line" smooth="yes"/>
      <point x="365.671" y="504.24"/>
      <point x="343" y="467.208"/>
      <point x="343" y="398.169" type="curve" smooth="yes"/>
      <point x="343" y="228.072"/>
      <point x="532" y="255.082"/>
      <point x="532" y="160.028" type="curve" smooth="yes"/>
      <point x="532" y="135.014"/>
      <point x="517.111" y="111"/>
      <point x="471.514" y="111" type="curve" smooth="yes"/>
      <point x="429.639" y="111"/>
      <point x="398" y="131"/>
      <point x="367" y="169" type="curve"/>
      <point x="273" y="75" type="line"/>
      <point x="312" y="18"/>
      <point x="374.376" y="-20"/>
    </contour>
  </outline>
</glyph>
<glyph name="quotesinglbase" format="2">
  <advance width="308"/>
  <unicode hex="201A"/>
  <outline>
    <contour>
      <point x="86" y="-142" type="curve"/>
      <point x="97" y="-158" type="line"/>
      <point x="179" y="-119"/>
      <point x="244" y="-28"/>
      <point x="244" y="58" type="curve" smooth="yes"/>
      <point x="244" y="125"/>
      <point x="204" y="160"/>
      <point x="154" y="160" type="curve" smooth="yes"/>
      <point x="102" y="160"/>
      <point x="64" y="121"/>
      <point x="64" y="71" type="curve" smooth="yes"/>
      <point x="64" y="21"/>
      <point x="102" y="-20"/>
      <point x="152" y="-20" type="curve" smooth="yes"/>
      <point x="165" y="-20"/>
      <point x="175" y="-17"/>
      <point x="184" y="-13" type="curve"/>
      <point x="176" y="-51"/>
      <point x="132" y="-114"/>
    </contour>
  </outline>
</glyph>
<glyph name="dagger" format="2">
  <advance width="701"/>
  <unicode hex="2020"/>
  <outline>
    <contour>
      <point x="308" y="-104" type="line"/>
      <point x="396" y="-104" type="line"/>
      <point x="425" y="385" type="line"/>
      <point x="650" y="372" type="line"/>
      <point x="650" y="502" type="line"/>
      <point x="427" y="489" type="line"/>
      <point x="432" y="696" type="line"/>
      <point x="273" y="696" type="line"/>
      <point x="277" y="488" type="line"/>
      <point x="50" y="502" type="line"/>
      <point x="50" y="372" type="line"/>
      <point x="279" y="385" type="line"/>
    </contour>
  </outline>
</glyph>
<glyph name="uni2070" format="2">
  <advance width="438"/>
  <unicode hex="2070"/>
  <outline>
    <contour>
      <point x="221" y="336" type="curve" smooth="yes"/>
      <point x="349" y="336"/>
      <point x="418" y="418"/>
      <point x="418" y="583" type="curve" smooth="yes"/>
      <point x="418" y="747"/>
      <point x="350" y="831"/>
      <point x="224" y="831" type="curve" smooth="yes"/>
      <point x="94" y="831"/>
      <point x="22" y="741"/>
      <point x="22" y="579" type="curve" smooth="yes"/>
      <point x="22" y="420"/>
      <point x="92" y="336"/>
    </contour>
    <contour>
      <point x="219" y="426" type="curve" smooth="yes"/>
      <point x="166" y="426"/>
      <point x="137" y="472"/>
      <point x="137" y="584" type="curve" smooth="yes"/>
      <point x="137" y="696"/>
      <point x="166" y="741"/>
      <point x="219" y="741" type="curve" smooth="yes"/>
      <point x="273" y="741"/>
      <point x="303" y="695"/>
      <point x="303" y="585" type="curve" smooth="yes"/>
      <point x="303" y="470"/>
      <point x="270" y="426"/>
    </contour>
  </outline>
</glyph>
<glyph name="uni2074" format="2">
  <advance width="460"/>
  <unicode hex="2074"/>
  <outline>
    <contour>
      <point x="253" y="344" type="line"/>
      <point x="368" y="344" type="line"/>
      <point x="368" y="448" type="line"/>
      <point x="456" y="448" type="line"/>
      <point x="456" y="538" type="line"/>
      <point x="368" y="538" type="line"/>
      <point x="368" y="830" type="line"/>
      <point x="215" y="830" type="line"/>
      <point x="5" y="510" type="line"/>
      <point x="5" y="448" type="line"/>
      <point x="253" y="448" type="line"/>
    </contour>
    <contour>
      <point x="144" y="538" type="line"/>
      <point x="253" y="706" type="line"/>
      <point x="253" y="538" type="line"/>
    </contour>
  </outline>
</glyph>
<glyph name="uni2076" format="2">
  <advance width="450"/>
  <unicode hex="2076"/>
  <outline>
    <contour>
      <point x="240" y="336" type="curve" smooth="yes"/>
      <point x="352" y="336"/>
      <point x="419" y="408"/>
      <point x="419" y="503" type="curve" smooth="yes"/>
      <point x="419" y="600"/>
      <point x="350" y="658"/>
      <point x="257" y="658" type="curve" smooth="yes"/>
      <point x="205" y="658"/>
      <point x="155" y="640"/>
      <point x="130" y="592" type="curve"/>
      <point x="130" y="690"/>
      <point x="168" y="744"/>
      <point x="235" y="744" type="curve" smooth="yes"/>
      <point x="263" y="744"/>
      <point x="295" y="735"/>
      <point x="324" y="707" type="curve"/>
      <point x="395" y="778" type="line"/>
      <point x="371" y="803"/>
      <point x="313" y="834"/>
      <point x="240" y="834" type="curve" smooth="yes"/>
      <point x="113" y="834"/>
      <point x="35" y="741"/>
      <point x="35" y="582" type="curve" smooth="yes"/>
      <point x="35" y="408"/>
      <point x="128" y="336"/>
    </contour>
    <contour>
      <point x="233" y="426" type="curve" smooth="yes"/>
      <point x="191" y="426"/>
      <point x="160" y="456"/>
      <point x="160" y="501" type="curve" smooth="yes"/>
      <point x="160" y="545"/>
      <point x="189" y="577"/>
      <point x="235" y="577" type="curve" smooth="yes"/>
      <point x="279" y="577"/>
      <point x="304" y="548"/>
      <point x="304" y="504" type="curve" smooth="yes"/>
      <point x="304" y="456"/>
      <point x="275" y="426"/>
    </contour>
  </outline>
</glyph>
<glyph name="uni2077" format="2">
  <advance width="417"/>
  <unicode hex="2077"/>
  <outline>
    <contour>
      <point x="58" y="344" type="line"/>
      <point x="184" y="344" type="line"/>
      <point x="406" y="821" type="line"/>
      <point x="406" y="830" type="line"/>
      <point x="30" y="830" type="line"/>
      <point x="30" y="740" type="line"/>
      <point x="243" y="740" type="line"/>
    </contour>
  </outline>
</glyph>
<glyph name="uni207A" format="2">
  <advance width="401"/>
  <unicode hex="207A"/>
  <outline>
    <contour>
      <point x="178" y="417" type="line"/>
      <point x="212" y="417" type="line"/>
      <point x="212" y="569" type="line"/>
      <point x="367" y="569" type="line"/>
      <point x="367" y="603" type="line"/>
      <point x="212" y="603" type="line"/>
      <point x="212" y="752" type="line"/>
      <point x="178" y="752" type="line"/>
      <point x="178" y="603" type="line"/>
      <point x="30" y="603" type="line"/>
      <point x="30" y="569" type="line"/>
      <point x="178" y="569" type="line"/>
    </contour>
  </outline>
</glyph>
<glyph name="uni20B3" format="2">
  <advance width="718"/>
  <unicode hex="20B3"/>
  <outline>
    <contour>
      <point x="515.5" y="0" type="line"/>
      <point x="679.5" y="0" type="line"/>
      <point x="452.5" y="700" type="line"/>
      <point x="324.5" y="700" type="line"/>
    </contour>
    <contour>
      <point x="13" y="129" type="line"/>
      <point x="705" y="129" type="line"/>
      <point x="705" y="200" type="line"/>
      <point x="13" y="200" type="line"/>
    </contour>
    <contour>
      <point x="38.5" y="0" type="line"/>
      <point x="202.5" y="0" type="line"/>
      <point x="393.5" y="700" type="line"/>
      <point x="265.5" y="700" type="line"/>
    </contour>
    <contour>
      <point x="13" y="268" type="line"/>
      <point x="705" y="268" type="line"/>
      <point x="705" y="339" type="line"/>
      <point x="13" y="339" type="line"/>
    </contour>
  </outline>
</glyph>
<glyph name="uni20BC" format="2">
  <advance width="801"/>
  <unicode hex="20BC"/>
  <outline>
    <contour>
      <point x="85" y="0" type="curve"/>
      <point x="255" y="0" type="line"/>
      <point x="221" y="58"/>
      <point x="203" y="130"/>
      <point x="203" y="198" type="curve" smooth="yes"/>
      <point x="203" y="362"/>
      <point x="282" y="472"/>
      <point x="400.5" y="472" type="curve" smooth="yes"/>
      <point x="520.795" y="472"/>
      <point x="598" y="364"/>
      <point x="598" y="201" type="curve" smooth="yes"/>
      <point x="598" y="132"/>
      <point x="580" y="59"/>
      <point x="545" y="0" type="curve"/>
      <point x="711" y="0" type="line"/>
      <point x="745" y="75"/>
      <point x="763" y="154"/>
      <point x="763" y="230" type="curve" smooth="yes"/>
      <point x="763" y="450"/>
      <point x="615.175" y="602"/>
      <point x="402.383" y="602" type="curve" smooth="yes"/>
      <point x="185.825" y="602"/>
      <point x="38" y="444"/>
      <point x="38" y="214" type="curve" smooth="yes"/>
      <point x="38" y="143"/>
      <point x="54" y="69"/>
    </contour>
    <contour>
      <point x="340" y="110" type="line"/>
      <point x="461" y="163" type="line"/>
      <point x="461" y="756" type="line"/>
      <point x="340" y="703" type="line"/>
    </contour>
  </outline>
</glyph>
<glyph name="trademark" format="2">
  <advance width="1016"/>
  <unicode hex="2122"/>
  <outline>
    <contour>
      <point x="473" y="248" type="line"/>
      <point x="588" y="248" type="line"/>
      <point x="588" y="476" type="line"/>
      <point x="685" y="248" type="line"/>
      <point x="770" y="248" type="line"/>
      <point x="862" y="476" type="line"/>
      <point x="862" y="248" type="line"/>
      <point x="977" y="248" type="line"/>
      <point x="977" y="700" type="line"/>
      <point x="872" y="700" type="line"/>
      <point x="728" y="360" type="line"/>
      <point x="579" y="700" type="line"/>
      <point x="473" y="700" type="line"/>
    </contour>
    <contour>
      <point x="168" y="248" type="line"/>
      <point x="283" y="248" type="line"/>
      <point x="283" y="610" type="line"/>
      <point x="430" y="610" type="line"/>
      <point x="430" y="700" type="line"/>
      <point x="21" y="700" type="line"/>
      <point x="21" y="610" type="line"/>
      <point x="168" y="610" type="line"/>
    </contour>
  </outline>
</glyph>
<glyph name="uni2126" format="2">
  <advance width="790"/>
  <unicode hex="2126"/>
  <anchor x="-20" y="500" name="topgr"/>
  <outline>
    <contour>
      <point x="56" y="0" type="line"/>
      <point x="368" y="0" type="line"/>
      <point x="368" y="130" type="line"/>
      <point x="257.366" y="186"/>
      <point x="206" y="267.903"/>
      <point x="206" y="382.381" type="curve" smooth="yes"/>
      <point x="206" y="499.651"/>
      <point x="265.388" y="589"/>
      <point x="395.051" y="589" type="curve" smooth="yes"/>
      <point x="524.714" y="589"/>
      <point x="594" y="498.721"/>
      <point x="594" y="381.45" type="curve" smooth="yes"/>
      <point x="594" y="266.972"/>
      <point x="533.739" y="186"/>
      <point x="431" y="130" type="curve"/>
      <point x="431" y="0" type="line"/>
      <point x="742.5" y="0" type="line"/>
      <point x="742.5" y="131" type="line"/>
      <point x="595" y="131" type="line"/>
      <point x="704" y="178"/>
      <point x="762" y="284"/>
      <point x="762" y="401" type="curve" smooth="yes"/>
      <point x="762" y="578"/>
      <point x="615" y="720"/>
      <point x="400" y="720" type="curve" smooth="yes"/>
      <point x="180" y="720"/>
      <point x="38" y="572"/>
      <point x="38" y="396" type="curve" smooth="yes"/>
      <point x="38" y="278"/>
      <point x="95" y="177"/>
      <point x="204" y="131" type="curve"/>
      <point x="56" y="131" type="line"/>
    </contour>
  </outline>
</glyph>
<glyph name="summation" format="2">
  <advance width="662"/>
  <unicode hex="2211"/>
  <outline>
    <contour>
      <point x="30" y="-122" type="line"/>
      <point x="621" y="-122" type="line"/>
      <point x="621" y="8" type="line"/>
      <point x="274" y="8" type="line"/>
      <point x="550" y="287" type="line"/>
      <point x="274" y="570" type="line"/>
      <point x="621" y="570" type="line"/>
      <point x="621" y="700" type="line"/>
      <point x="30" y="700" type="line"/>
      <point x="30" y="600" type="line"/>
      <point x="333" y="287" type="line"/>
      <point x="30" y="-22" type="line"/>
    </contour>
  </outline>
</glyph>
<glyph name="integral" format="2">
  <advance width="452"/>
  <unicode hex="222B"/>
  <outline>
    <contour>
      <point x="87" y="-163" type="curve" smooth="yes"/>
      <point x="227" y="-163"/>
      <point x="289.773" y="-95.994"/>
      <point x="294" y="59" type="curve" smooth="yes"/>
      <point x="306" y="499" type="line" smooth="yes"/>
      <point x="308.345" y="584.991"/>
      <point x="331" y="630"/>
      <point x="399" y="630" type="curve" smooth="yes"/>
      <point x="416" y="630"/>
      <point x="467" y="627"/>
      <point x="520" y="580" type="curve"/>
      <point x="557" y="709" type="line"/>
      <point x="516" y="742"/>
      <point x="442" y="760"/>
      <point x="369" y="760" type="curve" smooth="yes"/>
      <point x="227" y="760"/>
      <point x="150.715" y="692.984"/>
      <point x="147" y="539" type="curve" smooth="yes"/>
      <point x="136" y="83" type="line" smooth="yes"/>
      <point x="134.625" y="26.008"/>
      <point x="118" y="-33"/>
      <point x="54" y="-33" type="curve" smooth="yes"/>
      <point x="34" y="-33"/>
      <point x="-9" y="-27"/>
      <point x="-62" y="20" type="curve"/>
      <point x="-105" y="-112" type="line"/>
      <point x="-57" y="-143"/>
      <point x="10" y="-163"/>
    </contour>
  </outline>
</glyph>
<glyph name="f_f" format="2">
  <advance width="806"/>
  <unicode hex="FB00"/>
  <anchor x="403" y="0" name="caret_1"/>
  <outline>
    <contour>
      <point x="482" y="0" type="line"/>
      <point x="647" y="0" type="line"/>
      <point x="647" y="380" type="line"/>
      <point x="783" y="380" type="line"/>
      <point x="783" y="500" type="line"/>
      <point x="647" y="500" type="line"/>
      <point x="647" y="547" type="line" smooth="yes"/>
      <point x="647" y="593"/>
      <point x="663" y="627"/>
      <point x="705" y="627" type="curve" smooth="yes"/>
      <point x="717" y="627"/>
      <point x="741" y="624"/>
      <point x="759" y="617" type="curve"/>
      <point x="789" y="728" type="line"/>
      <point x="730" y="746"/>
      <point x="700" y="751"/>
      <point x="666" y="751" type="curve" smooth="yes"/>
      <point x="551" y="751"/>
      <point x="482" y="694"/>
      <point x="482" y="588" type="curve" smooth="yes"/>
      <point x="482" y="500" type="line"/>
      <point x="405" y="500" type="line"/>
      <point x="405" y="380" type="line"/>
      <point x="482" y="380" type="line"/>
    </contour>
    <contour>
      <point x="89" y="0" type="line"/>
      <point x="254" y="0" type="line"/>
      <point x="254" y="380" type="line"/>
      <point x="390" y="380" type="line"/>
      <point x="390" y="500" type="line"/>
      <point x="254" y="500" type="line"/>
      <point x="254" y="547" type="line" smooth="yes"/>
      <point x="254" y="593"/>
      <point x="270" y="627"/>
      <point x="312" y="627" type="curve" smooth="yes"/>
      <point x="324" y="627"/>
      <point x="348" y="624"/>
      <point x="366" y="617" type="curve"/>
      <point x="396" y="728" type="line"/>
      <point x="337" y="746"/>
      <point x="307" y="751"/>
      <point x="273" y="751" type="curve" smooth="yes"/>
      <point x="158" y="751"/>
      <point x="89" y="694"/>
      <point x="89" y="588" type="curve" smooth="yes"/>
      <point x="89" y="500" type="line"/>
      <point x="12" y="500" type="line"/>
      <point x="12" y="380" type="line"/>
      <point x="89" y="380" type="line"/>
    </contour>
    <contour>
      <point x="249" y="380" type="line"/>
      <point x="488" y="380" type="line"/>
      <point x="488" y="500" type="line"/>
      <point x="249" y="500" type="line"/>
    </contour>
  </outline>
</glyph>
<glyph name="C.ss09" format="2">
  <advance width="753"/>
  <anchor x="397" y="-19" name="bottom"/>
  <anchor x="377" y="719" name="top"/>
  <outline>
    <contour>
      <point x="392" y="-20" type="curve" smooth="yes"/>
      <point x="575" y="-20"/>
      <point x="693" y="103"/>
      <point x="725" y="261" type="curve"/>
      <point x="559" y="261" type="line"/>
      <point x="547" y="164"/>
      <point x="475" y="111"/>
      <point x="385" y="111" type="curve" smooth="yes"/>
      <point x="266" y="111"/>
      <point x="195" y="203"/>
      <point x="195" y="353" type="curve" smooth="yes"/>
      <point x="195" y="500"/>
      <point x="263" y="589"/>
      <point x="389" y="589" type="curve" smooth="yes"/>
      <point x="473" y="589"/>
      <point x="523" y="550"/>
      <point x="549" y="485" type="curve"/>
      <point x="715" y="485" type="line"/>
      <point x="672" y="623"/>
      <point x="558" y="720"/>
      <point x="389" y="720" type="curve" smooth="yes"/>
      <point x="176" y="720"/>
      <point x="28" y="565"/>
      <point x="28" y="357" type="curve" smooth="yes"/>
      <point x="28" y="146"/>
      <point x="180" y="-20"/>
    </contour>
  </outline>
</glyph>
<glyph name="C.ss10" format="2">
  <advance width="715"/>
  <anchor x="397" y="-19" name="bottom"/>
  <anchor x="377" y="719" name="top"/>
  <outline>
    <contour>
      <point x="394" y="-20" type="curve" smooth="yes"/>
      <point x="519" y="-20"/>
      <point x="623" y="34"/>
      <point x="687" y="117" type="curve"/>
      <point x="642" y="276" type="line"/>
      <point x="567" y="156"/>
      <point x="489" y="111"/>
      <point x="400" y="111" type="curve" smooth="yes"/>
      <point x="270.4" y="111"/>
      <point x="194" y="209"/>
      <point x="194" y="356" type="curve" smooth="yes"/>
      <point x="194" y="495.8"/>
      <point x="267.2" y="589"/>
      <point x="392" y="589" type="curve" smooth="yes"/>
      <point x="482" y="589"/>
      <point x="558" y="544"/>
      <point x="633" y="424" type="curve"/>
      <point x="678" y="583" type="line"/>
      <point x="614" y="666"/>
      <point x="512" y="720"/>
      <point x="385" y="720" type="curve" smooth="yes"/>
      <point x="170.8" y="720"/>
      <point x="28" y="574.8"/>
      <point x="28" y="357" type="curve" smooth="yes"/>
      <point x="28" y="130.8"/>
      <point x="174.4" y="-20"/>
    </contour>
  </outline>
</glyph>
<glyph name="Ccedilla.ss09" format="2">
  <advance width="753"/>
  <anchor x="377" y="-217" name="bottom"/>
  <anchor x="377" y="719" name="top"/>
  <outline>
    <contour>
      <point x="392" y="-20" type="curve" smooth="yes"/>
      <point x="575" y="-20"/>
      <point x="693" y="103"/>
      <point x="725" y="261" type="curve"/>
      <point x="559" y="261" type="line"/>
      <point x="547" y="164"/>
      <point x="475" y="111"/>
      <point x="385" y="111" type="curve" smooth="yes"/>
      <point x="266" y="111"/>
      <point x="195" y="203"/>
      <point x="195" y="353" type="curve" smooth="yes"/>
      <point x="195" y="500"/>
      <point x="263" y="589"/>
      <point x="389" y="589" type="curve" smooth="yes"/>
      <point x="473" y="589"/>
      <point x="523" y="550"/>
      <point x="549" y="485" type="curve"/>
      <point x="715" y="485" type="line"/>
      <point x="672" y="623"/>
      <point x="558" y="720"/>
      <point x="389" y="720" type="curve" smooth="yes"/>
      <point x="176" y="720"/>
      <point x="28" y="565"/>
      <point x="28" y="357" type="curve" smooth="yes"/>
      <point x="28" y="146"/>
      <point x="180" y="-20"/>
    </contour>
    <contour>
      <point x="352" y="-217" type="curve" smooth="yes"/>
      <point x="449" y="-217"/>
      <point x="501" y="-191"/>
      <point x="501" y="-132" type="curve" smooth="yes"/>
      <point x="501" y="-86"/>
      <point x="470" y="-63"/>
      <point x="400" y="-63" type="curve"/>
      <point x="447.224" y="20" type="line"/>
      <point x="354.224" y="20" type="line"/>
      <point x="289" y="-103" type="line"/>
      <point x="304" y="-101"/>
      <point x="322" y="-99"/>
      <point x="336" y="-99" type="curve" smooth="yes"/>
      <point x="369" y="-99"/>
      <point x="388" y="-110"/>
      <point x="388" y="-133" type="curve" smooth="yes"/>
      <point x="388" y="-154"/>
      <point x="372" y="-167"/>
      <point x="343" y="-167" type="curve" smooth="yes"/>
      <point x="325" y="-167"/>
      <point x="290" y="-162"/>
      <point x="270" y="-156" type="curve"/>
      <point x="250" y="-204" type="line"/>
      <point x="272" y="-210"/>
      <point x="305" y="-217"/>
    </contour>
  </outline>
</glyph>
<glyph name="Ccedilla.ss10" format="2">
  <advance width="715"/>
  <anchor x="377" y="-217" name="bottom"/>
  <anchor x="377" y="719" name="top"/>
  <outline>
    <contour>
      <point x="394" y="-20" type="curve" smooth="yes"/>
      <point x="519" y="-20"/>
      <point x="623" y="34"/>
      <point x="687" y="117" type="curve"/>
      <point x="642" y="276" type="line"/>
      <point x="567" y="156"/>
      <point x="489" y="111"/>
      <point x="400" y="111" type="curve" smooth="yes"/>
      <point x="270.4" y="111"/>
      <point x="194" y="209"/>
      <point x="194" y="356" type="curve" smooth="yes"/>
      <point x="194" y="495.8"/>
      <point x="267.2" y="589"/>
      <point x="392" y="589" type="curve" smooth="yes"/>
      <point x="482" y="589"/>
      <point x="558" y="544"/>
      <point x="633" y="424" type="curve"/>
      <point x="678" y="583" type="line"/>
      <point x="614" y="666"/>
      <point x="512" y="720"/>
      <point x="385" y="720" type="curve" smooth="yes"/>
      <point x="170.8" y="720"/>
      <point x="28" y="574.8"/>
      <point x="28" y="357" type="curve" smooth="yes"/>
      <point x="28" y="130.8"/>
      <point x="174.4" y="-20"/>
    </contour>
    <contour>
      <point x="352" y="-217" type="curve" smooth="yes"/>
      <point x="449" y="-217"/>
      <point x="501" y="-191"/>
      <point x="501" y="-132" type="curve" smooth="yes"/>
      <point x="501" y="-86"/>
      <point x="470" y="-63"/>
      <point x="400" y="-63" type="curve"/>
      <point x="447.224" y="20" type="line"/>
      <point x="354.224" y="20" type="line"/>
      <point x="289" y="-103" type="line"/>
      <point x="304" y="-101"/>
      <point x="322" y="-99"/>
      <point x="336" y="-99" type="curve" smooth="yes"/>
      <point x="369" y="-99"/>
      <point x="388" y="-110"/>
      <point x="388" y="-133" type="curve" smooth="yes"/>
      <point x="388" y="-154"/>
      <point x="372" y="-167"/>
      <point x="343" y="-167" type="curve" smooth="yes"/>
      <point x="325" y="-167"/>
      <point x="290" y="-162"/>
      <point x="270" y="-156" type="curve"/>
      <point x="250" y="-204" type="line"/>
      <point x="272" y="-210"/>
      <point x="305" y="-217"/>
    </contour>
  </outline>
</glyph>
<glyph name="Ccedilla.ss12" format="2">
  <advance width="649"/>
  <anchor x="347" y="-217" name="bottom"/>
  <anchor x="347" y="719" name="top"/>
  <outline>
    <contour>
      <point x="363" y="-20.371" type="curve" smooth="yes"/>
      <point x="461.725" y="-20.371"/>
      <point x="566.397" y="21.829"/>
      <point x="618.472" y="88.007" type="curve"/>
      <point x="608.708" y="198.665" type="line"/>
      <point x="529.511" y="140.747"/>
      <point x="435.754" y="109.53"/>
      <point x="375" y="109.53" type="curve" smooth="yes"/>
      <point x="241" y="109.53"/>
      <point x="193" y="197"/>
      <point x="193" y="349" type="curve" smooth="yes"/>
      <point x="193" y="504"/>
      <point x="243" y="590"/>
      <point x="377" y="590" type="curve" smooth="yes"/>
      <point x="437.754" y="590"/>
      <point x="531.511" y="558.783"/>
      <point x="610.708" y="500.865" type="curve"/>
      <point x="620.472" y="611.523" type="line"/>
      <point x="568.397" y="677.701"/>
      <point x="463.725" y="719.901"/>
      <point x="365" y="719.901" type="curve" smooth="yes"/>
      <point x="158" y="719.901"/>
      <point x="28" y="569"/>
      <point x="28" y="348" type="curve" smooth="yes"/>
      <point x="28" y="122.577"/>
      <point x="159.79" y="-20.371"/>
    </contour>
    <contour>
      <point x="322" y="-217" type="curve" smooth="yes"/>
      <point x="419" y="-217"/>
      <point x="471" y="-191"/>
      <point x="471" y="-132" type="curve" smooth="yes"/>
      <point x="471" y="-86"/>
      <point x="440" y="-63"/>
      <point x="370" y="-63" type="curve"/>
      <point x="417.224" y="20" type="line"/>
      <point x="324.224" y="20" type="line"/>
      <point x="259" y="-103" type="line"/>
      <point x="274" y="-101"/>
      <point x="292" y="-99"/>
      <point x="306" y="-99" type="curve" smooth="yes"/>
      <point x="339" y="-99"/>
      <point x="358" y="-110"/>
      <point x="358" y="-133" type="curve" smooth="yes"/>
      <point x="358" y="-154"/>
      <point x="342" y="-167"/>
      <point x="313" y="-167" type="curve" smooth="yes"/>
      <point x="295" y="-167"/>
      <point x="260" y="-162"/>
      <point x="240" y="-156" type="curve"/>
      <point x="220" y="-204" type="line"/>
      <point x="242" y="-210"/>
      <point x="275" y="-217"/>
    </contour>
  </outline>
</glyph>
<glyph name="Eng.ss07" format="2">
  <advance width="732"/>
  <anchor x="352" y="-213" name="bottom"/>
  <anchor x="366" y="719" name="top"/>
  <outline>
    <contour>
      <point x="57.5" y="0" type="line"/>
      <point x="222.5" y="0" type="line"/>
      <point x="222.5" y="439" type="line"/>
      <point x="518.5" y="0" type="line"/>
      <point x="675.5" y="147.644" type="line"/>
      <point x="675.5" y="700" type="line"/>
      <point x="509.5" y="700" type="line"/>
      <point x="509.5" y="261" type="line"/>
      <point x="213.5" y="700" type="line"/>
      <point x="57.5" y="700" type="line"/>
    </contour>
    <contour>
      <point x="359.5" y="-104" type="curve"/>
      <point x="359.5" y="-234" type="line"/>
      <point x="593.131" y="-234"/>
      <point x="676.195" y="-157"/>
      <point x="676" y="58" type="curve" smooth="yes"/>
      <point x="675.5" y="610" type="line"/>
      <point x="511" y="610" type="line"/>
      <point x="511" y="52" type="line" smooth="yes"/>
      <point x="511" y="-74"/>
      <point x="464.5" y="-104"/>
    </contour>
  </outline>
</glyph>
<glyph name="Eng.ss09" format="2">
  <advance width="732"/>
  <anchor x="388" y="-197" name="bottom"/>
  <anchor x="366" y="719" name="top"/>
  <outline>
    <contour>
      <point x="57.5" y="0" type="line"/>
      <point x="222.5" y="0" type="line"/>
      <point x="222.5" y="439" type="line"/>
      <point x="518.5" y="0" type="line"/>
      <point x="674.5" y="130.106" type="line"/>
      <point x="674.5" y="700" type="line"/>
      <point x="509.5" y="700" type="line"/>
      <point x="509.5" y="261" type="line"/>
      <point x="213.5" y="700" type="line"/>
      <point x="57.5" y="700" type="line"/>
    </contour>
    <contour>
      <point x="436.513" y="-224" type="curve" smooth="yes"/>
      <point x="601.719" y="-224"/>
      <point x="675.25" y="-129"/>
      <point x="675.25" y="48" type="curve" smooth="yes"/>
      <point x="675.25" y="496" type="line"/>
      <point x="510.75" y="496" type="line"/>
      <point x="510.75" y="45" type="line" smooth="yes"/>
      <point x="510.75" y="-57"/>
      <point x="491.521" y="-93"/>
      <point x="439.953" y="-93" type="curve" smooth="yes"/>
      <point x="396.251" y="-93"/>
      <point x="375.275" y="-68"/>
      <point x="367.25" y="-9" type="curve"/>
      <point x="206.25" y="-9" type="line"/>
      <point x="231.199" y="-149"/>
      <point x="299.955" y="-224"/>
    </contour>
  </outline>
</glyph>
<glyph name="Eng.ss12" format="2">
  <advance width="732"/>
  <anchor x="348" y="-214" name="bottom"/>
  <anchor x="366" y="719" name="top"/>
  <outline>
    <contour>
      <point x="57.5" y="0" type="line"/>
      <point x="222.5" y="0" type="line"/>
      <point x="222.5" y="439" type="line"/>
      <point x="518.5" y="0" type="line"/>
      <point x="675.5" y="129.134" type="line"/>
      <point x="676" y="700" type="line"/>
      <point x="509.5" y="700" type="line"/>
      <point x="509.5" y="261" type="line"/>
      <point x="213.5" y="700" type="line"/>
      <point x="57.5" y="700" type="line"/>
    </contour>
    <contour>
      <point x="447.793" y="-227" type="curve" smooth="yes"/>
      <point x="600.427" y="-227"/>
      <point x="676.432" y="-145"/>
      <point x="676.25" y="25" type="curve" smooth="yes"/>
      <point x="675.75" y="493" type="line"/>
      <point x="509.75" y="493" type="line"/>
      <point x="509.75" y="32" type="line" smooth="yes"/>
      <point x="509.75" y="-64"/>
      <point x="488.706" y="-97"/>
      <point x="424.571" y="-97" type="curve" smooth="yes"/>
      <point x="370.458" y="-97"/>
      <point x="327.368" y="-88"/>
      <point x="271.25" y="-67" type="curve"/>
      <point x="257.25" y="-184" type="line"/>
      <point x="304.138" y="-210"/>
      <point x="359.006" y="-227"/>
    </contour>
  </outline>
</glyph>
<glyph name="Ereversedcyr.ss10" format="2">
  <advance width="735"/>
  <anchor x="357" y="719" name="top"/>
  <outline>
    <contour>
      <point x="331" y="-20" type="curve" smooth="yes"/>
      <point x="550.6" y="-20"/>
      <point x="697" y="130.8"/>
      <point x="697" y="357" type="curve" smooth="yes"/>
      <point x="697" y="574.8"/>
      <point x="554.2" y="720"/>
      <point x="340" y="720" type="curve" smooth="yes"/>
      <point x="213" y="720"/>
      <point x="111" y="666"/>
      <point x="47" y="583" type="curve"/>
      <point x="92" y="424" type="line"/>
      <point x="167" y="544"/>
      <point x="243" y="589"/>
      <point x="333" y="589" type="curve" smooth="yes"/>
      <point x="457.8" y="589"/>
      <point x="531" y="495.8"/>
      <point x="531" y="356" type="curve" smooth="yes"/>
      <point x="531" y="209"/>
      <point x="454.6" y="111"/>
      <point x="325" y="111" type="curve" smooth="yes"/>
      <point x="236" y="111"/>
      <point x="158" y="156"/>
      <point x="83" y="276" type="curve"/>
      <point x="38" y="117" type="line"/>
      <point x="102" y="34"/>
      <point x="206" y="-20"/>
    </contour>
    <contour>
      <point x="216" y="295" type="line"/>
      <point x="561" y="295" type="line"/>
      <point x="561" y="425" type="line"/>
      <point x="216" y="425" type="line"/>
    </contour>
  </outline>
</glyph>
<glyph name="Ereversedcyr.ss12" format="2">
  <advance width="669"/>
  <anchor x="304" y="719" name="top"/>
  <outline>
    <contour>
      <point x="296" y="-20.371" type="curve" smooth="yes"/>
      <point x="499.21" y="-20.371"/>
      <point x="631" y="122.577"/>
      <point x="631" y="348" type="curve" smooth="yes"/>
      <point x="631" y="569"/>
      <point x="501" y="719.901"/>
      <point x="294" y="719.901" type="curve" smooth="yes"/>
      <point x="195.275" y="719.901"/>
      <point x="90.603" y="677.701"/>
      <point x="38.528" y="611.523" type="curve"/>
      <point x="48.292" y="500.865" type="line"/>
      <point x="127.489" y="558.783"/>
      <point x="221.246" y="590"/>
      <point x="282" y="590" type="curve" smooth="yes"/>
      <point x="416" y="590"/>
      <point x="466" y="504"/>
      <point x="466" y="349" type="curve" smooth="yes"/>
      <point x="466" y="197"/>
      <point x="418" y="109.53"/>
      <point x="284" y="109.53" type="curve" smooth="yes"/>
      <point x="223.246" y="109.53"/>
      <point x="129.489" y="140.747"/>
      <point x="50.292" y="198.665" type="curve"/>
      <point x="40.528" y="88.007" type="line"/>
      <point x="92.603" y="21.829"/>
      <point x="197.275" y="-20.371"/>
    </contour>
    <contour>
      <point x="166" y="295" type="line"/>
      <point x="521" y="295" type="line"/>
      <point x="521" y="425" type="line"/>
      <point x="166" y="425" type="line"/>
    </contour>
  </outline>
</glyph>
<glyph name="Eukrcyr.ss09" format="2">
  <advance width="773"/>
  <anchor x="386" y="719" name="top"/>
  <outline>
    <contour>
      <point x="402" y="-20" type="curve" smooth="yes"/>
      <point x="585" y="-20"/>
      <point x="703" y="103"/>
      <point x="735" y="261" type="curve"/>
      <point x="569" y="261" type="line"/>
      <point x="557" y="164"/>
      <point x="485" y="111"/>
      <point x="395" y="111" type="curve" smooth="yes"/>
      <point x="276" y="111"/>
      <point x="205" y="203"/>
      <point x="205" y="353" type="curve" smooth="yes"/>
      <point x="205" y="500"/>
      <point x="273" y="589"/>
      <point x="399" y="589" type="curve" smooth="yes"/>
      <point x="483" y="589"/>
      <point x="533" y="550"/>
      <point x="559" y="485" type="curve"/>
      <point x="725" y="485" type="line"/>
      <point x="682" y="623"/>
      <point x="568" y="720"/>
      <point x="399" y="720" type="curve" smooth="yes"/>
      <point x="186" y="720"/>
      <point x="38" y="565"/>
      <point x="38" y="357" type="curve" smooth="yes"/>
      <point x="38" y="146"/>
      <point x="190" y="-20"/>
    </contour>
    <contour>
      <point x="507" y="295" type="line"/>
      <point x="507" y="425" type="line"/>
      <point x="162" y="425" type="line"/>
      <point x="162" y="295" type="line"/>
    </contour>
  </outline>
</glyph>
<glyph name="Eukrcyr.ss10" format="2">
  <advance width="735"/>
  <anchor x="378" y="719" name="top"/>
  <outline>
    <contour>
      <point x="404" y="-20" type="curve" smooth="yes"/>
      <point x="529" y="-20"/>
      <point x="633" y="34"/>
      <point x="697" y="117" type="curve"/>
      <point x="652" y="276" type="line"/>
      <point x="577" y="156"/>
      <point x="499" y="111"/>
      <point x="410" y="111" type="curve" smooth="yes"/>
      <point x="280.4" y="111"/>
      <point x="204" y="209"/>
      <point x="204" y="356" type="curve" smooth="yes"/>
      <point x="204" y="495.8"/>
      <point x="277.2" y="589"/>
      <point x="402" y="589" type="curve" smooth="yes"/>
      <point x="492" y="589"/>
      <point x="568" y="544"/>
      <point x="643" y="424" type="curve"/>
      <point x="688" y="583" type="line"/>
      <point x="624" y="666"/>
      <point x="522" y="720"/>
      <point x="395" y="720" type="curve" smooth="yes"/>
      <point x="180.8" y="720"/>
      <point x="38" y="574.8"/>
      <point x="38" y="357" type="curve" smooth="yes"/>
      <point x="38" y="130.8"/>
      <point x="184.4" y="-20"/>
    </contour>
    <contour>
      <point x="519" y="295" type="line"/>
      <point x="519" y="425" type="line"/>
      <point x="174" y="425" type="line"/>
      <point x="174" y="295" type="line"/>
    </contour>
  </outline>
</glyph>
